<svg width="108" height="1343" viewBox="0 0 108 1343" fill="none" xmlns="http://www.w3.org/2000/svg">
<g opacity="0.2" filter="url(#filter0_d_4180_1157)">
<path d="M53.7326 1334.22C41.0341 1334.22 28.3459 1329.39 18.6763 1319.72C-0.652521 1300.39 -0.652521 1268.95 18.6763 1249.62C28.0441 1240.25 40.4928 1235.1 53.7326 1235.1C66.9724 1235.1 79.4212 1240.25 88.7889 1249.62C108.118 1268.95 108.118 1300.39 88.7889 1319.72C79.1297 1329.38 66.4311 1334.22 53.7326 1334.22ZM21.2785 1317.12C39.1709 1335.01 68.2839 1335.01 86.1763 1317.12C104.069 1299.23 104.069 1270.11 86.1763 1252.22C77.506 1243.55 65.9836 1238.78 53.7222 1238.78C41.4609 1238.78 29.9384 1243.56 21.2681 1252.22C3.37561 1270.11 3.37561 1299.23 21.2681 1317.12H21.2785Z" fill="#9DADF2"/>
<path d="M53.077 1303.21C53.2539 1303.64 53.6703 1303.89 54.1074 1303.89C54.2532 1303.89 54.3989 1303.86 54.5446 1303.81C58.0419 1302.34 61.2269 1300.07 63.7458 1297.24C64.1518 1296.78 64.1101 1296.07 63.6521 1295.67C63.1942 1295.26 62.4864 1295.3 62.0804 1295.76C59.7801 1298.35 56.8761 1300.42 53.6806 1301.76C53.1186 1301.99 52.8479 1302.65 53.0873 1303.21H53.077Z" fill="#9DADF2"/>
<path d="M72.6226 1267.53L54.1369 1260.14C53.8663 1260.04 53.5748 1260.04 53.3042 1260.14L34.8185 1267.53C34.3917 1267.7 34.1211 1268.1 34.1211 1268.56V1281.8C34.1419 1294.02 41.8651 1305.07 53.3355 1309.27C53.4604 1309.31 53.5853 1309.33 53.7206 1309.33C53.8559 1309.33 53.9808 1309.31 54.1057 1309.27C65.576 1305.05 73.2992 1294.02 73.32 1281.8V1268.56C73.32 1268.1 73.0494 1267.7 72.6226 1267.53ZM71.0926 1281.8C71.0718 1292.92 64.0979 1303.05 53.7309 1307.03C43.3639 1303.05 36.3797 1292.92 36.3589 1281.8V1269.32L53.7309 1262.38L71.0926 1269.32V1281.8Z" fill="#9DADF2"/>
<path d="M46.0084 1269.27C45.7378 1269.16 45.4359 1269.16 45.1549 1269.27L40.752 1271.03C40.3253 1271.2 40.0547 1271.6 40.0547 1272.06V1276.75C40.0547 1277.37 40.5543 1277.87 41.1684 1277.87C41.7825 1277.87 42.2821 1277.37 42.2821 1276.75V1272.82L45.9772 1271.34C46.2582 1271.23 46.4664 1271.02 46.5913 1270.74C46.7058 1270.47 46.7058 1270.17 46.5913 1269.88C46.4768 1269.6 46.2686 1269.39 45.998 1269.27H46.0084Z" fill="#9DADF2"/>
<path d="M81.8877 1256.52C74.3727 1248.99 64.3699 1244.86 53.7323 1244.86C43.0947 1244.86 33.1024 1249 25.577 1256.52C10.0577 1272.04 10.0577 1297.3 25.577 1312.83C33.3418 1320.6 43.5318 1324.47 53.7323 1324.47C63.9328 1324.47 74.1229 1320.58 81.8877 1312.83C97.407 1297.31 97.407 1272.05 81.8877 1256.52ZM76.3815 1281.8C76.4127 1295.93 67.3884 1308.28 53.9301 1312.56C53.8052 1312.6 53.6698 1312.6 53.5345 1312.56C40.0762 1308.28 31.0519 1295.93 31.0832 1281.8V1266.18C31.0832 1265.92 31.2392 1265.68 31.4891 1265.58L53.4929 1256.78C53.5658 1256.75 53.649 1256.74 53.7323 1256.74C53.8156 1256.74 53.8989 1256.75 53.9717 1256.78L75.9756 1265.59C76.2254 1265.68 76.3815 1265.92 76.3815 1266.19V1281.81V1281.8Z" fill="#9DADF2"/>
<path d="M53.7326 1207.61C26.4099 1207.61 4.1875 1185.38 4.1875 1158.06C4.1875 1130.75 26.4203 1108.52 53.7326 1108.52C81.0448 1108.52 103.278 1130.75 103.278 1158.06C103.278 1185.38 81.0448 1207.61 53.7326 1207.61ZM53.7326 1111.82C28.2314 1111.82 7.48702 1132.56 7.48702 1158.06C7.48702 1183.57 28.2314 1204.31 53.7326 1204.31C79.2337 1204.31 99.9782 1183.57 99.9782 1158.06C99.9782 1132.56 79.2337 1111.82 53.7326 1111.82Z" fill="#7DDACF"/>
<path d="M86.0648 1122.71L70.7266 1138.05L73.7442 1141.07L89.0824 1125.73L86.0648 1122.71Z" fill="#7DDACF"/>
<path d="M33.2639 1175.51L17.9256 1190.85L20.9432 1193.87L36.2815 1178.53L33.2639 1175.51Z" fill="#7DDACF"/>
<path d="M74.1934 1175.52L71.1758 1178.54L86.514 1193.87L89.5316 1190.86L74.1934 1175.52Z" fill="#7DDACF"/>
<path d="M20.9395 1122.26L17.9219 1125.27L33.2528 1140.61L36.2704 1137.59L20.9395 1122.26Z" fill="#7DDACF"/>
<path d="M65.8167 1159.4C66.816 1158.4 66.816 1156.78 65.8167 1155.8L63.6933 1153.68C62.6941 1152.68 61.0808 1152.68 60.092 1153.68L58.947 1154.83L57.6251 1153.51C56.6259 1152.51 55.0126 1152.51 54.0237 1153.51L52.8788 1154.66L51.5569 1153.33C50.5577 1152.33 48.9443 1152.33 47.9555 1153.33L40.9297 1160.35C40.8776 1160.41 40.8776 1160.49 40.9297 1160.55C41.8664 1161.49 43.3965 1161.49 44.3437 1160.55L48.8715 1156.02C49.3607 1155.54 50.1517 1155.54 50.6409 1156.02L50.974 1156.36C51.0365 1156.42 51.0365 1156.51 50.974 1156.58L47.1957 1160.35C47.1436 1160.41 47.1436 1160.49 47.1957 1160.55C48.1325 1161.49 49.6625 1161.49 50.6097 1160.55L54.9501 1156.21C55.4393 1155.72 56.2304 1155.72 56.7196 1156.21L57.0526 1156.55C57.1047 1156.6 57.1047 1156.68 57.0526 1156.74L53.4096 1160.39C53.3576 1160.44 53.3576 1160.52 53.4096 1160.58C54.3464 1161.52 55.8765 1161.52 56.8237 1160.58L61.0183 1156.39C61.5075 1155.9 62.2986 1155.9 62.7878 1156.39L63.506 1157.11C63.787 1157.39 63.787 1157.86 63.506 1158.14L63.3915 1158.25C63.1105 1158.53 62.6421 1158.53 62.3611 1158.25L61.4347 1157.33C61.3826 1157.27 61.2994 1157.27 61.2369 1157.33L59.634 1158.93C59.582 1158.98 59.582 1159.06 59.634 1159.13L61.0808 1160.57C62.08 1161.57 63.6934 1161.57 64.6822 1160.57L65.8272 1159.43L65.8167 1159.4Z" fill="#7DDACF"/>
<path d="M53.7337 1120.07C32.7499 1120.07 15.7422 1137.08 15.7422 1158.06C15.7422 1179.05 32.7499 1196.06 53.7337 1196.06C74.7175 1196.06 91.7252 1179.05 91.7252 1158.06C91.7252 1137.08 74.7175 1120.07 53.7337 1120.07ZM55.2846 1131.8C61.3841 1132.16 66.9215 1134.59 71.2098 1138.4L65.7245 1143.89C62.8621 1141.46 59.2503 1139.89 55.2846 1139.56V1131.8ZM52.1932 1131.8V1139.56C48.2276 1139.88 44.6158 1141.46 41.7534 1143.89L36.268 1138.4C40.5564 1134.59 46.0938 1132.16 52.1932 1131.8ZM34.0823 1140.59L39.5676 1146.07C37.1424 1148.94 35.5707 1152.55 35.2376 1156.51H27.4832C27.8371 1150.41 30.2727 1144.88 34.0823 1140.59ZM27.4832 1159.61H35.2376C35.5603 1163.57 37.1424 1167.18 39.5676 1170.05L34.0823 1175.53C30.2727 1171.24 27.8371 1165.7 27.4832 1159.61ZM52.1932 1184.32C46.0938 1183.96 40.5564 1181.53 36.268 1177.72L41.7534 1172.23C44.6158 1174.66 48.2276 1176.23 52.1932 1176.56V1184.32ZM37.7669 1158.05C37.7669 1149.24 44.9176 1142.09 53.7337 1142.09C62.5498 1142.09 69.7006 1149.24 69.7006 1158.05C69.7006 1166.87 62.5498 1174.02 53.7337 1174.02C44.9176 1174.02 37.7669 1166.87 37.7669 1158.05ZM55.2846 1184.32V1176.56C59.2503 1176.24 62.8621 1174.66 65.7245 1172.23L71.2098 1177.72C66.9215 1181.53 61.3841 1183.96 55.2846 1184.32ZM73.3956 1175.53L67.9103 1170.05C70.3355 1167.18 71.9072 1163.57 72.2403 1159.61H79.9947C79.6408 1165.7 77.2052 1171.24 73.3956 1175.53ZM72.2403 1156.51C71.9176 1152.55 70.3355 1148.94 67.9103 1146.07L73.3956 1140.59C77.2052 1144.88 79.6408 1150.41 79.9947 1156.51H72.2403Z" fill="#7DDACF"/>
<path d="M53.877 1084.15C26.5543 1084.15 4.33191 1061.92 4.33191 1034.61C4.33191 1007.3 26.5647 985.062 53.877 985.062C81.1893 985.062 103.422 1007.3 103.422 1034.61C103.422 1061.92 81.1893 1084.15 53.877 1084.15ZM53.877 988.362C28.3758 988.362 7.63143 1009.11 7.63143 1034.61C7.63143 1060.11 28.3758 1080.85 53.877 1080.85C79.3782 1080.85 100.123 1060.11 100.123 1034.61C100.123 1009.11 79.3782 988.362 53.877 988.362Z" fill="#9DADF2"/>
<path d="M69.9514 1003.67C69.7016 1003.67 69.4517 1003.62 69.2227 1003.51C64.4244 1001.13 59.2617 999.926 53.8804 999.926C48.4992 999.926 43.3365 1001.13 38.5381 1003.51C37.9032 1003.82 37.1433 1003.69 36.6437 1003.19L28.1295 994.68C27.7652 994.316 27.5986 993.816 27.6611 993.306C27.7235 992.796 28.015 992.349 28.4521 992.088C36.1233 987.488 44.9186 985.062 53.8908 985.062C62.8631 985.062 71.6584 987.498 79.3295 992.088C79.7667 992.349 80.0582 992.796 80.1206 993.306C80.1831 993.816 80.0061 994.316 79.6522 994.68L71.138 1003.19C70.8153 1003.51 70.3989 1003.67 69.9618 1003.67H69.9514ZM53.8804 996.626C59.3658 996.626 64.6533 997.771 69.6079 1000.03L75.7698 993.868C69.0667 990.256 61.5412 988.362 53.8804 988.362C46.2197 988.362 38.6943 990.256 31.9911 993.868L38.153 1000.03C43.1075 997.771 48.3951 996.626 53.8804 996.626Z" fill="#9DADF2"/>
<path d="M53.8786 1084.15C44.9064 1084.15 36.1111 1081.72 28.4399 1077.13C28.0028 1076.87 27.7113 1076.42 27.6489 1075.91C27.5864 1075.4 27.7634 1074.9 28.1173 1074.54L36.6315 1066.02C37.1311 1065.52 37.9014 1065.4 38.5259 1065.71C43.3243 1068.08 48.487 1069.29 53.8682 1069.29C59.2495 1069.29 64.4122 1068.08 69.2106 1065.71C69.8455 1065.4 70.6053 1065.52 71.1049 1066.02L79.6192 1074.54C79.9835 1074.9 80.15 1075.4 80.0876 1075.91C80.0251 1076.42 79.7337 1076.87 79.2965 1077.13C71.6253 1081.73 62.8301 1084.15 53.8579 1084.15H53.8786ZM31.9893 1075.35C38.6925 1078.96 46.2179 1080.85 53.8786 1080.85C61.5394 1080.85 69.0649 1078.96 75.768 1075.35L69.6061 1069.19C64.6516 1071.44 59.364 1072.59 53.8786 1072.59C48.3933 1072.59 43.1057 1071.44 38.1512 1069.19L31.9893 1075.35Z" fill="#9DADF2"/>
<path d="M94.9826 1060.85C94.5454 1060.85 94.1291 1060.68 93.8168 1060.37L85.3026 1051.85C84.803 1051.36 84.6781 1050.58 84.9903 1049.96C87.3635 1045.16 88.5709 1040 88.5709 1034.62C88.5709 1029.24 87.3635 1024.07 84.9903 1019.28C84.6781 1018.64 84.803 1017.87 85.3026 1017.38L93.8168 1008.87C94.1811 1008.5 94.6808 1008.34 95.1908 1008.4C95.7008 1008.46 96.1484 1008.75 96.4086 1009.19C101.009 1016.86 103.434 1025.66 103.434 1034.63C103.434 1043.6 101.009 1052.4 96.4086 1060.07C96.1484 1060.5 95.7008 1060.8 95.1908 1060.86C95.1179 1060.86 95.0555 1060.86 94.9826 1060.86V1060.85ZM88.4564 1050.33L94.6183 1056.5C98.2301 1049.79 100.124 1042.27 100.124 1034.61C100.124 1026.95 98.2301 1019.42 94.6183 1012.72L88.4564 1018.88C90.7151 1023.83 91.86 1029.12 91.86 1034.61C91.86 1040.09 90.7151 1045.38 88.4564 1050.33Z" fill="#9DADF2"/>
<path d="M12.7731 1060.85C12.7002 1060.85 12.6378 1060.85 12.5753 1060.84C12.0653 1060.77 11.6178 1060.48 11.3575 1060.05C6.75693 1052.38 4.33171 1043.58 4.33171 1034.61C4.33171 1025.64 6.75693 1016.84 11.3575 1009.17C11.6178 1008.73 12.0653 1008.44 12.5753 1008.38C13.0854 1008.32 13.585 1008.49 13.9493 1008.85L22.4635 1017.36C22.9632 1017.86 23.088 1018.63 22.7758 1019.25C20.4026 1024.05 19.1952 1029.22 19.1952 1034.6C19.1952 1039.98 20.4026 1045.14 22.7758 1049.94C23.088 1050.57 22.9632 1051.34 22.4635 1051.83L13.9493 1060.35C13.637 1060.66 13.2207 1060.84 12.7835 1060.84L12.7731 1060.85ZM13.1374 1012.72C9.52558 1019.42 7.63123 1026.95 7.63123 1034.61C7.63123 1042.27 9.52558 1049.79 13.1374 1056.5L19.2993 1050.34C17.0407 1045.38 15.8957 1040.09 15.8957 1034.61C15.8957 1029.12 17.0407 1023.83 19.2993 1018.88L13.1374 1012.72Z" fill="#9DADF2"/>
<path d="M53.8781 996.616C32.9359 996.616 15.8866 1013.66 15.8866 1034.61C15.8866 1055.56 32.9255 1072.6 53.8781 1072.6C74.8307 1072.6 91.8696 1055.56 91.8696 1034.61C91.8696 1013.66 74.8307 996.616 53.8781 996.616ZM75.2575 1022.13C77.0582 1025.21 78.1511 1028.57 78.505 1032.14C78.5154 1032.29 78.4529 1032.42 78.328 1032.49C75.6113 1034.16 73.1757 1036.2 71.0732 1038.58C70.9795 1038.7 70.8234 1038.74 70.6881 1038.69L65.9938 1037.16C65.8585 1037.12 65.7648 1037 65.744 1036.86C65.2131 1032.97 64.0057 1029.26 62.153 1025.8C62.0905 1025.68 62.101 1025.53 62.1842 1025.42L65.0882 1021.42C65.1611 1021.33 65.2756 1021.26 65.3901 1021.26C65.4213 1021.26 65.4421 1021.26 65.4733 1021.26C68.5751 1021.95 71.7602 1022.18 74.9244 1021.92C75.0701 1021.91 75.2054 1021.98 75.2783 1022.11L75.2575 1022.13ZM63.1834 1037.51C63.1938 1037.62 63.1626 1037.72 63.1002 1037.79C60.6333 1040.63 57.4899 1042.91 54.0239 1044.37C53.9302 1044.41 53.8365 1044.41 53.7428 1044.37C50.2767 1042.9 47.1333 1040.62 44.6665 1037.79C44.604 1037.72 44.5728 1037.62 44.5832 1037.51C45.062 1033.74 46.2382 1030.14 48.0597 1026.81C48.1118 1026.72 48.195 1026.66 48.2991 1026.63C50.131 1026.25 52.0046 1026.05 53.8885 1026.05C55.7725 1026.05 57.646 1026.25 59.478 1026.63C59.5821 1026.66 59.6653 1026.72 59.7173 1026.81C61.5389 1030.14 62.7047 1033.74 63.1939 1037.51H63.1834ZM62.6214 1011.68C62.6214 1011.68 62.7463 1011.57 62.8712 1011.57C62.9128 1011.57 62.9649 1011.57 63.0169 1011.6C66.8473 1013.12 70.2717 1015.62 72.9363 1018.82C73.0716 1018.97 73.0196 1019.14 72.9884 1019.2C72.9675 1019.26 72.8739 1019.42 72.6553 1019.42C70.2926 1019.45 67.9402 1019.18 65.6607 1018.64C65.567 1018.62 65.4838 1018.56 65.4317 1018.47C64.2139 1016.47 63.2355 1014.3 62.5277 1012.05C62.4652 1011.85 62.5798 1011.72 62.6318 1011.68H62.6214ZM48.6218 1010.43C52.067 1009.69 55.6996 1009.69 59.1449 1010.43C59.2802 1010.46 59.3947 1010.56 59.4259 1010.7C60.1649 1013.79 61.3619 1016.75 62.9753 1019.48C63.0481 1019.61 63.0377 1019.77 62.9545 1019.89L60.0713 1023.87C59.988 1023.98 59.8423 1024.04 59.707 1024.01C55.8974 1023.24 51.8693 1023.24 48.0597 1024.01C47.9244 1024.04 47.7787 1023.98 47.6954 1023.87L44.8122 1019.89C44.729 1019.78 44.7185 1019.61 44.7914 1019.48C46.4047 1016.75 47.6017 1013.79 48.3407 1010.7C48.3719 1010.56 48.4865 1010.46 48.6218 1010.43ZM34.8303 1018.82C37.4949 1015.61 40.9194 1013.11 44.7498 1011.6C44.8018 1011.58 44.8538 1011.57 44.8955 1011.57C45.0308 1011.57 45.114 1011.65 45.1453 1011.68C45.1973 1011.73 45.3118 1011.85 45.2494 1012.05C44.5416 1014.31 43.5631 1016.47 42.3453 1018.47C42.2933 1018.56 42.21 1018.62 42.1164 1018.64C39.8369 1019.18 37.4846 1019.45 35.1218 1019.42C34.9032 1019.42 34.8095 1019.26 34.7887 1019.2C34.7575 1019.14 34.7054 1018.97 34.8407 1018.82H34.8303ZM32.5092 1022.13C32.5717 1022.01 32.6966 1021.94 32.8319 1021.94C32.8319 1021.94 32.8527 1021.94 32.8631 1021.94C36.0377 1022.19 39.2228 1021.97 42.3141 1021.28C42.4599 1021.25 42.6056 1021.31 42.6888 1021.43L45.5929 1025.43C45.6762 1025.54 45.6865 1025.7 45.6241 1025.81C43.7713 1029.27 42.5639 1032.98 42.0331 1036.87C42.0123 1037 41.9186 1037.12 41.7833 1037.17L37.089 1038.7C36.9537 1038.74 36.7975 1038.7 36.7039 1038.59C34.6013 1036.21 32.1657 1034.17 29.4491 1032.51C29.3346 1032.43 29.2617 1032.3 29.2721 1032.15C29.626 1028.58 30.7189 1025.21 32.5196 1022.14L32.5092 1022.13ZM33.6437 1047.77C33.5813 1047.97 33.4043 1048.01 33.3315 1048.02C33.2586 1048.02 33.0921 1048.02 32.9776 1047.86C30.7605 1044.37 29.4491 1040.33 29.1889 1036.19C29.1785 1035.98 29.3138 1035.88 29.3762 1035.85C29.4387 1035.82 29.6052 1035.74 29.7717 1035.87C31.6973 1037.23 33.446 1038.83 34.9761 1040.61C35.0385 1040.69 35.0697 1040.78 35.0593 1040.88C34.8719 1043.23 34.3931 1045.55 33.6333 1047.79L33.6437 1047.77ZM43.9275 1057.28C40.68 1055.85 37.8176 1053.76 35.4236 1051.07C35.3299 1050.97 35.2987 1050.81 35.3508 1050.69C36.5686 1047.75 37.3388 1044.66 37.6407 1041.5C37.6511 1041.35 37.7552 1041.23 37.8905 1041.19L42.5327 1039.68C42.5327 1039.68 42.6056 1039.66 42.6472 1039.66C42.7513 1039.66 42.845 1039.7 42.9179 1039.78C45.52 1042.7 48.7779 1045.07 52.3481 1046.64C52.4834 1046.7 52.5666 1046.83 52.5666 1046.97V1051.85C52.5666 1052 52.4834 1052.14 52.3481 1052.19C49.4337 1053.45 46.7274 1055.14 44.3022 1057.22C44.1981 1057.31 44.0419 1057.33 43.917 1057.27L43.9275 1057.28ZM60.3002 1058.31C60.2898 1058.38 60.2378 1058.55 60.0297 1058.6C56.0119 1059.62 51.7651 1059.62 47.7474 1058.6C47.5496 1058.55 47.4873 1058.38 47.4768 1058.31C47.4664 1058.24 47.4456 1058.07 47.6225 1057.93C49.5169 1056.53 51.5778 1055.35 53.7532 1054.45C53.8469 1054.4 53.9406 1054.4 54.0343 1054.45C56.1993 1055.35 58.2602 1056.53 60.165 1057.93C60.3315 1058.06 60.3211 1058.24 60.3106 1058.31H60.3002ZM72.3639 1051.08C69.9699 1053.77 67.1075 1055.85 63.86 1057.28C63.7247 1057.34 63.579 1057.31 63.4749 1057.23C61.0497 1055.15 58.3538 1053.46 55.429 1052.2C55.2937 1052.14 55.2105 1052.01 55.2105 1051.87V1046.98C55.2105 1046.84 55.2937 1046.7 55.429 1046.65C58.9992 1045.08 62.2675 1042.71 64.8592 1039.79C64.9321 1039.71 65.0258 1039.67 65.1298 1039.67C65.1715 1039.67 65.2027 1039.67 65.2443 1039.69L69.8866 1041.2C70.0219 1041.24 70.126 1041.36 70.1364 1041.51C70.4382 1044.67 71.2085 1047.75 72.4263 1050.7C72.4784 1050.82 72.4575 1050.98 72.3534 1051.08H72.3639ZM74.7995 1047.87C74.685 1048.05 74.508 1048.05 74.4456 1048.03C74.3727 1048.03 74.2062 1047.98 74.1333 1047.79C73.3839 1045.55 72.9051 1043.23 72.7074 1040.88C72.7074 1040.79 72.7281 1040.69 72.7906 1040.61C74.3207 1038.83 76.0693 1037.24 77.9949 1035.87C78.0678 1035.82 78.1406 1035.79 78.2031 1035.79C78.2864 1035.79 78.3488 1035.83 78.3904 1035.85C78.4529 1035.88 78.5987 1035.98 78.5778 1036.19C78.3176 1040.33 77.0061 1044.37 74.7891 1047.86L74.7995 1047.87Z" fill="#9DADF2"/>
<path d="M103.111 912.285C103.111 939.608 80.8782 961.841 53.5555 961.841C26.2328 961.841 4 939.608 4 912.285C4 884.963 26.2328 862.73 53.5555 862.73C80.8782 862.73 103.111 884.963 103.111 912.285ZM7.57015 912.285C7.57015 937.641 28.2001 958.271 53.5555 958.271C78.9109 958.271 99.5408 937.641 99.5408 912.285C99.5408 886.93 78.9109 866.3 53.5555 866.3C28.2001 866.3 7.57015 886.93 7.57015 912.285Z" fill="#478BF9"/>
<path d="M103.114 791.149C103.114 792.138 102.312 792.929 101.334 792.929C100.355 792.929 99.5539 792.128 99.5539 791.149C99.5539 765.794 78.924 745.164 53.5685 745.164C28.2131 745.164 7.58317 765.794 7.58317 791.149C7.58317 792.138 6.78169 792.929 5.80327 792.929C4.82486 792.929 4.02344 792.128 4.02344 791.149C4.02344 763.827 26.2563 741.594 53.5789 741.594C80.9016 741.594 103.134 763.827 103.134 791.149H103.114Z" fill="#478BF9"/>
<path d="M44.0119 903.532C44.0119 905.353 45.2506 906.935 47.0201 907.372L50.382 908.215V899.566H47.9881C45.8022 899.566 44.0224 901.346 44.0224 903.532H44.0119Z" fill="#478BF9"/>
<path d="M56.7293 925.005H59.1234C61.3092 925.005 63.0891 923.225 63.0891 921.039C63.0891 919.217 61.8504 917.635 60.0809 917.198L56.719 916.355V925.005H56.7293Z" fill="#478BF9"/>
<path d="M53.5564 871.962C31.3235 871.962 13.2229 890.052 13.2229 912.296C13.2229 934.539 31.3131 952.629 53.5564 952.629C75.7996 952.629 93.8898 934.539 93.8898 912.296C93.8898 890.052 75.7996 871.962 53.5564 871.962ZM69.4608 905.926H63.1011V902.74C63.1011 900.992 61.6751 899.555 59.916 899.555H56.731V909.798L61.6335 911.026C66.2341 912.181 69.4504 916.293 69.4504 921.039C69.4504 926.732 64.8185 931.364 59.125 931.364H56.731V939.421H50.3713V931.364H47.1863C41.9195 931.364 37.6416 927.086 37.6416 921.82V918.635H44.0012V921.82C44.0012 923.568 45.4272 925.005 47.1863 925.005H50.3713V914.762L45.4688 913.534C40.8682 912.379 37.652 908.267 37.652 903.521C37.652 897.828 42.2838 893.196 47.9773 893.196H50.3713V885.14H56.731V893.196H59.916C65.1828 893.196 69.4608 897.474 69.4608 902.74V905.926Z" fill="#478BF9"/>
<path d="M103.173 790.39V909.985C103.173 910.974 102.372 911.765 101.393 911.765C100.415 911.765 99.6133 910.963 99.6133 909.985V790.39C99.6133 789.401 100.415 788.61 101.393 788.61C102.372 788.61 103.173 789.411 103.173 790.39Z" fill="#478BF9"/>
<path d="M7.63786 790.129V909.725C7.63786 910.714 6.83637 911.505 5.85796 911.505C4.87955 911.505 4.07812 910.703 4.07812 909.725V790.129C4.07812 789.141 4.87955 788.35 5.85796 788.35C6.83637 788.35 7.63786 789.151 7.63786 790.129Z" fill="#478BF9"/>
<path d="M53.7326 711C41.0341 711 28.3459 706.171 18.6763 696.501C-0.652521 677.172 -0.652521 645.728 18.6763 626.399C28.0441 617.031 40.4928 611.879 53.7326 611.879C66.9724 611.879 79.4212 617.031 88.7889 626.399C108.118 645.728 108.118 677.172 88.7889 696.501C79.1297 706.16 66.4311 711 53.7326 711ZM21.2785 693.899C39.1709 711.791 68.2839 711.791 86.1763 693.899C104.069 676.006 104.069 646.893 86.1763 629.001C77.506 620.33 65.9836 615.563 53.7222 615.563C41.4609 615.563 29.9384 620.341 21.2681 629.001C3.37561 646.893 3.37561 676.006 21.2681 693.899H21.2785Z" fill="#9DADF2"/>
<path d="M53.077 679.993C53.2539 680.42 53.6703 680.669 54.1074 680.669C54.2532 680.669 54.3989 680.638 54.5446 680.586C58.0419 679.118 61.2269 676.849 63.7458 674.018C64.1518 673.56 64.1101 672.853 63.6521 672.447C63.1942 672.041 62.4864 672.082 62.0804 672.54C59.7801 675.132 56.8761 677.203 53.6806 678.536C53.1186 678.775 52.8479 679.431 53.0873 679.993H53.077Z" fill="#9DADF2"/>
<path d="M72.6226 644.312L54.1369 636.922C53.8663 636.818 53.5748 636.818 53.3042 636.922L34.8185 644.312C34.3917 644.479 34.1211 644.884 34.1211 645.342V658.582C34.1419 670.802 41.8651 681.846 53.3355 686.051C53.4604 686.092 53.5853 686.113 53.7206 686.113C53.8559 686.113 53.9808 686.092 54.1057 686.051C65.576 681.835 73.2992 670.802 73.32 658.582V645.342C73.32 644.884 73.0494 644.479 72.6226 644.312ZM71.0926 658.582C71.0718 669.699 64.0979 679.826 53.7309 683.813C43.3639 679.826 36.3797 669.699 36.3589 658.582V646.102L53.7309 639.16L71.0926 646.102V658.582Z" fill="#9DADF2"/>
<path d="M46.0084 646.05C45.7378 645.936 45.4359 645.936 45.1549 646.05L40.752 647.809C40.3253 647.976 40.0547 648.382 40.0547 648.84V653.534C40.0547 654.148 40.5543 654.648 41.1684 654.648C41.7825 654.648 42.2821 654.148 42.2821 653.534V649.6L45.9772 648.122C46.2582 648.007 46.4664 647.799 46.5913 647.518C46.7058 647.247 46.7058 646.945 46.5913 646.664C46.4768 646.383 46.2686 646.175 45.998 646.05H46.0084Z" fill="#9DADF2"/>
<path d="M81.8877 633.3C74.3727 625.774 64.3699 621.642 53.7323 621.642C43.0947 621.642 33.1024 625.785 25.577 633.3C10.0577 648.819 10.0577 674.081 25.577 689.611C33.3418 697.375 43.5318 701.247 53.7323 701.247C63.9328 701.247 74.1229 697.365 81.8877 689.611C97.407 674.091 97.407 648.829 81.8877 633.3ZM76.3815 658.582C76.4127 672.707 67.3884 685.062 53.9301 689.34C53.8052 689.382 53.6698 689.382 53.5345 689.34C40.0762 685.062 31.0519 672.707 31.0832 658.582V642.959C31.0832 642.699 31.2392 642.459 31.4891 642.355L53.4929 633.56C53.5658 633.529 53.649 633.518 53.7323 633.518C53.8156 633.518 53.8989 633.529 53.9717 633.56L75.9756 642.366C76.2254 642.459 76.3815 642.699 76.3815 642.969V658.593V658.582Z" fill="#9DADF2"/>
<path d="M53.7326 584.39C26.4099 584.39 4.1875 562.157 4.1875 534.844C4.1875 507.532 26.4203 485.299 53.7326 485.299C81.0448 485.299 103.278 507.532 103.278 534.844C103.278 562.157 81.0448 584.39 53.7326 584.39ZM53.7326 488.599C28.2314 488.599 7.48702 509.343 7.48702 534.844C7.48702 560.346 28.2314 581.09 53.7326 581.09C79.2337 581.09 99.9782 560.346 99.9782 534.844C99.9782 509.343 79.2337 488.599 53.7326 488.599Z" fill="#7DDACF"/>
<path d="M86.0648 499.491L70.7266 514.829L73.7442 517.847L89.0824 502.509L86.0648 499.491Z" fill="#7DDACF"/>
<path d="M33.2639 552.29L17.9256 567.628L20.9432 570.646L36.2815 555.308L33.2639 552.29Z" fill="#7DDACF"/>
<path d="M74.1934 552.298L71.1758 555.315L86.514 570.653L89.5316 567.636L74.1934 552.298Z" fill="#7DDACF"/>
<path d="M20.9395 499.037L17.9219 502.054L33.2528 517.385L36.2704 514.368L20.9395 499.037Z" fill="#7DDACF"/>
<path d="M65.8167 536.177C66.816 535.178 66.816 533.564 65.8167 532.575L63.6933 530.462C62.6941 529.463 61.0808 529.463 60.092 530.462L58.947 531.607L57.6251 530.285C56.6259 529.286 55.0126 529.286 54.0237 530.285L52.8788 531.441L51.5569 530.109C50.5577 529.109 48.9443 529.109 47.9555 530.109L40.9297 537.134C40.8776 537.186 40.8776 537.27 40.9297 537.332C41.8664 538.269 43.3965 538.269 44.3437 537.332L48.8715 532.804C49.3607 532.315 50.1517 532.315 50.6409 532.804L50.974 533.138C51.0365 533.2 51.0365 533.294 50.974 533.356L47.1957 537.134C47.1436 537.186 47.1436 537.27 47.1957 537.332C48.1325 538.269 49.6625 538.269 50.6097 537.332L54.9501 532.992C55.4393 532.503 56.2304 532.503 56.7196 532.992L57.0526 533.325C57.1047 533.377 57.1047 533.46 57.0526 533.523L53.4096 537.166C53.3576 537.218 53.3576 537.301 53.4096 537.363C54.3464 538.3 55.8765 538.3 56.8237 537.363L61.0183 533.169C61.5075 532.679 62.2986 532.679 62.7878 533.169L63.506 533.887C63.787 534.168 63.787 534.636 63.506 534.917L63.3915 535.032C63.1105 535.313 62.6421 535.313 62.3611 535.032L61.4347 534.105C61.3826 534.053 61.2994 534.053 61.2369 534.105L59.634 535.708C59.582 535.76 59.582 535.844 59.634 535.906L61.0808 537.353C62.08 538.352 63.6934 538.352 64.6822 537.353L65.8272 536.208L65.8167 536.177Z" fill="#7DDACF"/>
<path d="M53.7337 496.853C32.7499 496.853 15.7422 513.861 15.7422 534.845C15.7422 555.828 32.7499 572.836 53.7337 572.836C74.7175 572.836 91.7252 555.828 91.7252 534.845C91.7252 513.861 74.7175 496.853 53.7337 496.853ZM55.2846 508.584C61.3841 508.937 66.9215 511.373 71.2098 515.183L65.7245 520.668C62.8621 518.243 59.2503 516.671 55.2846 516.338V508.584ZM52.1932 508.584V516.338C48.2276 516.661 44.6158 518.243 41.7534 520.668L36.268 515.183C40.5564 511.373 46.0938 508.937 52.1932 508.584ZM34.0823 517.368L39.5676 522.854C37.1424 525.716 35.5707 529.328 35.2376 533.294H27.4832C27.8371 527.194 30.2727 521.657 34.0823 517.368ZM27.4832 536.385H35.2376C35.5603 540.351 37.1424 543.963 39.5676 546.825L34.0823 552.31C30.2727 548.022 27.8371 542.485 27.4832 536.385ZM52.1932 561.095C46.0938 560.741 40.5564 558.306 36.268 554.496L41.7534 549.011C44.6158 551.436 48.2276 553.008 52.1932 553.341V561.095ZM37.7669 534.834C37.7669 526.018 44.9176 518.867 53.7337 518.867C62.5498 518.867 69.7006 526.018 69.7006 534.834C69.7006 543.65 62.5498 550.801 53.7337 550.801C44.9176 550.801 37.7669 543.65 37.7669 534.834ZM55.2846 561.095V553.341C59.2503 553.018 62.8621 551.436 65.7245 549.011L71.2098 554.496C66.9215 558.306 61.3841 560.741 55.2846 561.095ZM73.3956 552.31L67.9103 546.825C70.3355 543.963 71.9072 540.351 72.2403 536.385H79.9947C79.6408 542.485 77.2052 548.022 73.3956 552.31ZM72.2403 533.294C71.9176 529.328 70.3355 525.716 67.9103 522.854L73.3956 517.368C77.2052 521.657 79.6408 527.194 79.9947 533.294H72.2403Z" fill="#7DDACF"/>
<path d="M53.877 460.932C26.5543 460.932 4.33191 438.7 4.33191 411.387C4.33191 384.075 26.5647 361.842 53.877 361.842C81.1893 361.842 103.422 384.075 103.422 411.387C103.422 438.7 81.1893 460.932 53.877 460.932ZM53.877 365.142C28.3758 365.142 7.63143 385.886 7.63143 411.387C7.63143 436.889 28.3758 457.633 53.877 457.633C79.3782 457.633 100.123 436.889 100.123 411.387C100.123 385.886 79.3782 365.142 53.877 365.142Z" fill="#9DADF2"/>
<path d="M69.9514 380.453C69.7016 380.453 69.4517 380.401 69.2227 380.286C64.4244 377.913 59.2617 376.706 53.8804 376.706C48.4992 376.706 43.3365 377.913 38.5381 380.286C37.9032 380.599 37.1433 380.474 36.6437 379.974L28.1295 371.46C27.7652 371.096 27.5986 370.596 27.6611 370.086C27.7235 369.576 28.015 369.128 28.4521 368.868C36.1233 364.267 44.9186 361.842 53.8908 361.842C62.8631 361.842 71.6584 364.278 79.3295 368.868C79.7667 369.128 80.0582 369.576 80.1206 370.086C80.1831 370.596 80.0061 371.096 79.6522 371.46L71.138 379.974C70.8153 380.286 70.3989 380.453 69.9618 380.453H69.9514ZM53.8804 373.406C59.3658 373.406 64.6533 374.551 69.6079 376.81L75.7698 370.648C69.0667 367.036 61.5412 365.142 53.8804 365.142C46.2197 365.142 38.6943 367.036 31.9911 370.648L38.153 376.81C43.1075 374.551 48.3951 373.406 53.8804 373.406Z" fill="#9DADF2"/>
<path d="M53.8786 460.932C44.9064 460.932 36.1111 458.497 28.4399 453.907C28.0028 453.646 27.7113 453.199 27.6489 452.689C27.5864 452.179 27.7634 451.679 28.1173 451.315L36.6315 442.801C37.1311 442.301 37.9014 442.176 38.5259 442.488C43.3243 444.862 48.487 446.069 53.8682 446.069C59.2495 446.069 64.4122 444.862 69.2106 442.488C69.8455 442.176 70.6053 442.301 71.1049 442.801L79.6192 451.315C79.9835 451.679 80.15 452.179 80.0876 452.689C80.0251 453.199 79.7337 453.646 79.2965 453.907C71.6253 458.507 62.8301 460.932 53.8579 460.932H53.8786ZM31.9893 452.127C38.6925 455.739 46.2179 457.633 53.8786 457.633C61.5394 457.633 69.0649 455.739 75.768 452.127L69.6061 445.965C64.6516 448.224 59.364 449.368 53.8786 449.368C48.3933 449.368 43.1057 448.224 38.1512 445.965L31.9893 452.127Z" fill="#9DADF2"/>
<path d="M94.9826 437.628C94.5454 437.628 94.1291 437.461 93.8168 437.149L85.3026 428.634C84.803 428.135 84.6781 427.365 84.9903 426.74C87.3635 421.942 88.5709 416.779 88.5709 411.398C88.5709 406.016 87.3635 400.854 84.9903 396.055C84.6781 395.42 84.803 394.65 85.3026 394.161L93.8168 385.647C94.1811 385.282 94.6808 385.116 95.1908 385.178C95.7008 385.241 96.1484 385.532 96.4086 385.969C101.009 393.641 103.434 402.436 103.434 411.408C103.434 420.38 101.009 429.176 96.4086 436.847C96.1484 437.284 95.7008 437.575 95.1908 437.638C95.1179 437.638 95.0555 437.638 94.9826 437.638V437.628ZM88.4564 427.115L94.6183 433.277C98.2301 426.574 100.124 419.048 100.124 411.387C100.124 403.727 98.2301 396.201 94.6183 389.498L88.4564 395.66C90.7151 400.614 91.86 405.902 91.86 411.387C91.86 416.873 90.7151 422.16 88.4564 427.115Z" fill="#9DADF2"/>
<path d="M12.7731 437.628C12.7002 437.628 12.6378 437.628 12.5753 437.617C12.0653 437.555 11.6178 437.263 11.3575 436.826C6.75693 429.155 4.33171 420.36 4.33171 411.387C4.33171 402.415 6.75693 393.62 11.3575 385.949C11.6178 385.512 12.0653 385.22 12.5753 385.158C13.0854 385.095 13.585 385.272 13.9493 385.626L22.4635 394.14C22.9632 394.64 23.088 395.41 22.7758 396.035C20.4026 400.833 19.1952 405.996 19.1952 411.377C19.1952 416.758 20.4026 421.921 22.7758 426.719C23.088 427.354 22.9632 428.124 22.4635 428.614L13.9493 437.128C13.637 437.44 13.2207 437.617 12.7835 437.617L12.7731 437.628ZM13.1374 389.498C9.52558 396.201 7.63123 403.727 7.63123 411.387C7.63123 419.048 9.52558 426.574 13.1374 433.277L19.2993 427.115C17.0407 422.16 15.8957 416.873 15.8957 411.387C15.8957 405.902 17.0407 400.614 19.2993 395.66L13.1374 389.498Z" fill="#9DADF2"/>
<path d="M53.8781 373.396C32.9359 373.396 15.8866 390.435 15.8866 411.387C15.8866 432.34 32.9255 449.379 53.8781 449.379C74.8307 449.379 91.8696 432.34 91.8696 411.387C91.8696 390.435 74.8307 373.396 53.8781 373.396ZM75.2575 398.907C77.0582 401.988 78.1511 405.35 78.505 408.92C78.5154 409.066 78.4529 409.201 78.328 409.274C75.6113 410.94 73.1757 412.98 71.0732 415.363C70.9795 415.478 70.8234 415.519 70.6881 415.467L65.9938 413.937C65.8585 413.896 65.7648 413.781 65.744 413.636C65.2131 409.753 64.0057 406.037 62.153 402.582C62.0905 402.457 62.101 402.311 62.1842 402.196L65.0882 398.2C65.1611 398.106 65.2756 398.043 65.3901 398.043C65.4213 398.043 65.4421 398.043 65.4733 398.043C68.5751 398.73 71.7602 398.959 74.9244 398.699C75.0701 398.689 75.2054 398.762 75.2783 398.886L75.2575 398.907ZM63.1834 414.291C63.1938 414.395 63.1626 414.499 63.1002 414.572C60.6333 417.414 57.4899 419.693 54.0239 421.151C53.9302 421.192 53.8365 421.192 53.7428 421.151C50.2767 419.683 47.1333 417.403 44.6665 414.572C44.604 414.499 44.5728 414.395 44.5832 414.291C45.062 410.523 46.2382 406.922 48.0597 403.591C48.1118 403.498 48.195 403.435 48.2991 403.414C50.131 403.029 52.0046 402.831 53.8885 402.831C55.7725 402.831 57.646 403.029 59.478 403.414C59.5821 403.435 59.6653 403.498 59.7173 403.591C61.5389 406.922 62.7047 410.523 63.1939 414.291H63.1834ZM62.6214 388.457C62.6214 388.457 62.7463 388.353 62.8712 388.353C62.9128 388.353 62.9649 388.353 63.0169 388.384C66.8473 389.904 70.2717 392.402 72.9363 395.597C73.0716 395.754 73.0196 395.92 72.9884 395.983C72.9675 396.035 72.8739 396.201 72.6553 396.201C70.2926 396.232 67.9402 395.962 65.6607 395.42C65.567 395.4 65.4838 395.337 65.4317 395.254C64.2139 393.245 63.2355 391.08 62.5277 388.832C62.4652 388.634 62.5798 388.499 62.6318 388.457H62.6214ZM48.6218 387.208C52.067 386.469 55.6996 386.469 59.1449 387.208C59.2802 387.239 59.3947 387.343 59.4259 387.479C60.1649 390.57 61.3619 393.526 62.9753 396.264C63.0481 396.388 63.0377 396.545 62.9545 396.669L60.0713 400.646C59.988 400.76 59.8423 400.823 59.707 400.791C55.8974 400.021 51.8693 400.021 48.0597 400.791C47.9244 400.823 47.7787 400.76 47.6954 400.646L44.8122 396.669C44.729 396.555 44.7185 396.388 44.7914 396.264C46.4047 393.526 47.6017 390.57 48.3407 387.479C48.3719 387.343 48.4865 387.239 48.6218 387.208ZM34.8303 395.597C37.4949 392.392 40.9194 389.893 44.7498 388.384C44.8018 388.363 44.8538 388.353 44.8955 388.353C45.0308 388.353 45.114 388.426 45.1453 388.457C45.1973 388.509 45.3118 388.634 45.2494 388.832C44.5416 391.09 43.5631 393.245 42.3453 395.254C42.2933 395.337 42.21 395.4 42.1164 395.42C39.8369 395.962 37.4846 396.232 35.1218 396.201C34.9032 396.201 34.8095 396.035 34.7887 395.983C34.7575 395.92 34.7054 395.754 34.8407 395.597H34.8303ZM32.5092 398.907C32.5717 398.793 32.6966 398.72 32.8319 398.72C32.8319 398.72 32.8527 398.72 32.8631 398.72C36.0377 398.97 39.2228 398.751 42.3141 398.064C42.4599 398.033 42.6056 398.085 42.6888 398.21L45.5929 402.207C45.6762 402.321 45.6865 402.477 45.6241 402.592C43.7713 406.048 42.5639 409.764 42.0331 413.646C42.0123 413.781 41.9186 413.896 41.7833 413.948L37.089 415.478C36.9537 415.519 36.7975 415.478 36.7039 415.374C34.6013 412.99 32.1657 410.95 29.4491 409.285C29.3346 409.212 29.2617 409.077 29.2721 408.931C29.626 405.361 30.7189 401.988 32.5196 398.918L32.5092 398.907ZM33.6437 424.554C33.5813 424.752 33.4043 424.794 33.3315 424.804C33.2586 424.804 33.0921 424.804 32.9776 424.637C30.7605 421.151 29.4491 417.112 29.1889 412.969C29.1785 412.761 29.3138 412.657 29.3762 412.626C29.4387 412.595 29.6052 412.522 29.7717 412.647C31.6973 414.01 33.446 415.613 34.9761 417.393C35.0385 417.466 35.0697 417.56 35.0593 417.664C34.8719 420.006 34.3931 422.327 33.6333 424.565L33.6437 424.554ZM43.9275 434.057C40.68 432.631 37.8176 430.539 35.4236 427.854C35.3299 427.75 35.2987 427.594 35.3508 427.469C36.5686 424.533 37.3388 421.442 37.6407 418.278C37.6511 418.132 37.7552 418.007 37.8905 417.966L42.5327 416.456C42.5327 416.456 42.6056 416.435 42.6472 416.435C42.7513 416.435 42.845 416.477 42.9179 416.56C45.52 419.475 48.7779 421.848 52.3481 423.42C52.4834 423.482 52.5666 423.607 52.5666 423.753V428.634C52.5666 428.78 52.4834 428.915 52.3481 428.967C49.4337 430.227 46.7274 431.924 44.3022 433.995C44.1981 434.089 44.0419 434.109 43.917 434.047L43.9275 434.057ZM60.3002 435.088C60.2898 435.161 60.2378 435.327 60.0297 435.379C56.0119 436.399 51.7651 436.399 47.7474 435.379C47.5496 435.327 47.4873 435.161 47.4768 435.088C47.4664 435.015 47.4456 434.848 47.6225 434.713C49.5169 433.308 51.5778 432.132 53.7532 431.226C53.8469 431.184 53.9406 431.184 54.0343 431.226C56.1993 432.132 58.2602 433.308 60.165 434.713C60.3315 434.838 60.3211 435.015 60.3106 435.088H60.3002ZM72.3639 427.864C69.9699 430.55 67.1075 432.631 63.86 434.057C63.7247 434.12 63.579 434.088 63.4749 434.005C61.0497 431.934 58.3538 430.237 55.429 428.978C55.2937 428.915 55.2105 428.791 55.2105 428.645V423.763C55.2105 423.617 55.2937 423.482 55.429 423.43C58.9992 421.858 62.2675 419.485 64.8592 416.571C64.9321 416.487 65.0258 416.446 65.1298 416.446C65.1715 416.446 65.2027 416.446 65.2443 416.467L69.8866 417.976C70.0219 418.018 70.126 418.142 70.1364 418.288C70.4382 421.452 71.2085 424.533 72.4263 427.479C72.4784 427.604 72.4575 427.76 72.3534 427.864H72.3639ZM74.7995 424.648C74.685 424.825 74.508 424.825 74.4456 424.814C74.3727 424.814 74.2062 424.762 74.1333 424.565C73.3839 422.327 72.9051 420.006 72.7074 417.664C72.7074 417.57 72.7281 417.466 72.7906 417.393C74.3207 415.613 76.0693 414.021 77.9949 412.647C78.0678 412.595 78.1406 412.574 78.2031 412.574C78.2864 412.574 78.3488 412.605 78.3904 412.626C78.4529 412.657 78.5987 412.761 78.5778 412.969C78.3176 417.112 77.0061 421.151 74.7891 424.637L74.7995 424.648Z" fill="#9DADF2"/>
<path d="M103.111 289.065C103.111 316.388 80.8782 338.621 53.5555 338.621C26.2328 338.621 4 316.388 4 289.065C4 261.743 26.2328 239.51 53.5555 239.51C80.8782 239.51 103.111 261.743 103.111 289.065ZM7.57015 289.065C7.57015 314.421 28.2001 335.051 53.5555 335.051C78.9109 335.051 99.5408 314.421 99.5408 289.065C99.5408 263.71 78.9109 243.08 53.5555 243.08C28.2001 243.08 7.57015 263.71 7.57015 289.065Z" fill="#478BF9"/>
<path d="M103.114 167.93C103.114 168.918 102.312 169.709 101.334 169.709C100.355 169.709 99.5539 168.908 99.5539 167.93C99.5539 142.574 78.924 121.944 53.5685 121.944C28.2131 121.944 7.58317 142.574 7.58317 167.93C7.58317 168.918 6.78169 169.709 5.80327 169.709C4.82486 169.709 4.02344 168.908 4.02344 167.93C4.02344 140.607 26.2563 118.374 53.5789 118.374C80.9016 118.374 103.134 140.607 103.134 167.93H103.114Z" fill="#478BF9"/>
<path d="M44.0119 280.312C44.0119 282.133 45.2506 283.715 47.0201 284.152L50.382 284.996V276.346H47.9881C45.8022 276.346 44.0224 278.126 44.0224 280.312H44.0119Z" fill="#478BF9"/>
<path d="M56.7293 301.785H59.1234C61.3092 301.785 63.0891 300.005 63.0891 297.819C63.0891 295.997 61.8504 294.415 60.0809 293.978L56.719 293.135V301.785H56.7293Z" fill="#478BF9"/>
<path d="M53.5564 248.742C31.3235 248.742 13.2229 266.832 13.2229 289.076C13.2229 311.319 31.3131 329.409 53.5564 329.409C75.7996 329.409 93.8898 311.319 93.8898 289.076C93.8898 266.832 75.7996 248.742 53.5564 248.742ZM69.4608 282.706H63.1011V279.521C63.1011 277.772 61.6751 276.335 59.916 276.335H56.731V286.578L61.6335 287.806C66.2341 288.961 69.4504 293.073 69.4504 297.819C69.4504 303.512 64.8185 308.144 59.125 308.144H56.731V316.201H50.3713V308.144H47.1863C41.9195 308.144 37.6416 303.866 37.6416 298.6V295.415H44.0012V298.6C44.0012 300.348 45.4272 301.785 47.1863 301.785H50.3713V291.542L45.4688 290.314C40.8682 289.159 37.652 285.048 37.652 280.301C37.652 274.608 42.2838 269.976 47.9773 269.976H50.3713V261.92H56.731V269.976H59.916C65.1828 269.976 69.4608 274.254 69.4608 279.521V282.706Z" fill="#478BF9"/>
<path d="M103.173 167.17V286.765C103.173 287.754 102.372 288.545 101.393 288.545C100.415 288.545 99.6133 287.743 99.6133 286.765V167.17C99.6133 166.181 100.415 165.39 101.393 165.39C102.372 165.39 103.173 166.191 103.173 167.17Z" fill="#478BF9"/>
<path d="M7.63786 166.909V286.505C7.63786 287.494 6.83637 288.285 5.85796 288.285C4.87955 288.285 4.07812 287.483 4.07812 286.505V166.909C4.07812 165.921 4.87955 165.13 5.85796 165.13C6.83637 165.13 7.63786 165.931 7.63786 166.909Z" fill="#478BF9"/>
<path d="M53.7326 99.1214C41.0341 99.1214 28.3459 94.2919 18.6763 84.6223C-0.652521 65.2934 -0.652521 33.8489 18.6763 14.5201C28.0441 5.15229 40.4928 0 53.7326 0C66.9724 0 79.4212 5.15229 88.7889 14.5201C108.118 33.8489 108.118 65.2934 88.7889 84.6223C79.1297 94.2815 66.4311 99.1214 53.7326 99.1214ZM21.2785 82.0201C39.1709 99.9126 68.2839 99.9126 86.1763 82.0201C104.069 64.1277 104.069 35.0147 86.1763 17.1222C77.506 8.45183 65.9836 3.6847 53.7222 3.6847C41.4609 3.6847 29.9384 8.46223 21.2681 17.1222C3.37561 35.0147 3.37561 64.1277 21.2681 82.0201H21.2785Z" fill="#9DADF2"/>
<path d="M53.077 68.1142C53.2539 68.541 53.6703 68.7907 54.1074 68.7907C54.2532 68.7907 54.3989 68.7595 54.5446 68.7074C58.0419 67.2398 61.2269 64.9707 63.7458 62.1395C64.1518 61.6816 64.1101 60.9739 63.6521 60.5679C63.1942 60.162 62.4864 60.2036 62.0804 60.6616C59.7801 63.2533 56.8761 65.3247 53.6806 66.657C53.1186 66.8964 52.8479 67.5521 53.0873 68.1142H53.077Z" fill="#9DADF2"/>
<path d="M72.6226 32.4336L54.1369 25.0434C53.8663 24.9393 53.5748 24.9393 53.3042 25.0434L34.8185 32.4336C34.3917 32.6001 34.1211 33.006 34.1211 33.464V46.7038C34.1419 58.9235 41.8651 69.9671 53.3355 74.1722C53.4604 74.2138 53.5853 74.2347 53.7206 74.2347C53.8559 74.2347 53.9808 74.2138 54.1057 74.1722C65.576 69.9567 73.2992 58.9235 73.32 46.7038V33.464C73.32 33.006 73.0494 32.6001 72.6226 32.4336ZM71.0926 46.7038C71.0718 57.8202 64.0979 67.9478 53.7309 71.9343C43.3639 67.9478 36.3797 57.8202 36.3589 46.7038V34.2238L53.7309 27.2813L71.0926 34.2238V46.7038Z" fill="#9DADF2"/>
<path d="M46.0084 34.1716C45.7378 34.0571 45.4359 34.0571 45.1549 34.1716L40.752 35.9307C40.3253 36.0972 40.0547 36.5032 40.0547 36.9611V41.6554C40.0547 42.2695 40.5543 42.7691 41.1684 42.7691C41.7825 42.7691 42.2821 42.2695 42.2821 41.6554V37.7209L45.9772 36.243C46.2582 36.1285 46.4664 35.9203 46.5913 35.6392C46.7058 35.3686 46.7058 35.0668 46.5913 34.7858C46.4768 34.5047 46.2686 34.2965 45.998 34.1716H46.0084Z" fill="#9DADF2"/>
<path d="M81.8877 21.4211C74.3727 13.8957 64.3699 9.76343 53.7323 9.76343C43.0947 9.76343 33.1024 13.9061 25.577 21.4211C10.0577 36.9404 10.0577 62.2022 25.577 77.7319C33.3418 85.4967 43.5318 89.3686 53.7323 89.3686C63.9328 89.3686 74.1229 85.4863 81.8877 77.7319C97.407 62.2126 97.407 36.9508 81.8877 21.4211ZM76.3815 46.7037C76.4127 60.8282 67.3884 73.1833 53.9301 77.4612C53.8052 77.5029 53.6698 77.5029 53.5345 77.4612C40.0762 73.1833 31.0519 60.8282 31.0832 46.7037V31.0803C31.0832 30.8201 31.2392 30.5807 31.4891 30.4766L53.4929 21.6813C53.5658 21.6501 53.649 21.6397 53.7323 21.6397C53.8156 21.6397 53.8989 21.6501 53.9717 21.6813L75.9756 30.4871C76.2254 30.5807 76.3815 30.8201 76.3815 31.0907V46.7141V46.7037Z" fill="#9DADF2"/>
</g>
<defs>
<filter id="filter0_d_4180_1157" x="0" y="0" width="107.434" height="1342.22" filterUnits="userSpaceOnUse" color-interpolation-filters="sRGB">
<feFlood flood-opacity="0" result="BackgroundImageFix"/>
<feColorMatrix in="SourceAlpha" type="matrix" values="0 0 0 0 0 0 0 0 0 0 0 0 0 0 0 0 0 0 127 0" result="hardAlpha"/>
<feOffset dy="4"/>
<feGaussianBlur stdDeviation="2"/>
<feComposite in2="hardAlpha" operator="out"/>
<feColorMatrix type="matrix" values="0 0 0 0 0 0 0 0 0 0 0 0 0 0 0 0 0 0 0.25 0"/>
<feBlend mode="normal" in2="BackgroundImageFix" result="effect1_dropShadow_4180_1157"/>
<feBlend mode="normal" in="SourceGraphic" in2="effect1_dropShadow_4180_1157" result="shape"/>
</filter>
</defs>
</svg>
