<svg width="642" height="50" viewBox="0 0 642 50" fill="none" xmlns="http://www.w3.org/2000/svg">
<g opacity="0.4">
<path d="M617.226 49.6169C610.949 49.6169 604.677 47.2296 599.897 42.4498C590.343 32.8954 590.343 17.352 599.897 7.79754C604.528 3.16695 610.681 0.620117 617.226 0.620117C623.771 0.620117 629.924 3.16695 634.555 7.79754C644.109 17.352 644.109 32.8954 634.555 42.4498C629.78 47.2245 623.503 49.6169 617.226 49.6169ZM601.184 41.1636C610.028 50.008 624.419 50.008 633.263 41.1636C642.108 32.3191 642.108 17.9282 633.263 9.08382C628.977 4.79795 623.282 2.4415 617.221 2.4415C611.16 2.4415 605.464 4.80309 601.178 9.08382C592.334 17.9282 592.334 32.3191 601.178 41.1636H601.184Z" fill="#9DADF2"/>
<path d="M616.902 34.2896C616.99 34.5005 617.196 34.6239 617.412 34.6239C617.484 34.6239 617.556 34.6085 617.628 34.5828C619.357 33.8573 620.931 32.7357 622.176 31.3362C622.377 31.1098 622.356 30.76 622.13 30.5594C621.903 30.3587 621.553 30.3793 621.353 30.6057C620.216 31.8868 618.78 32.9107 617.201 33.5692C616.923 33.6876 616.789 34.0117 616.907 34.2896H616.902Z" fill="#9DADF2"/>
<path d="M626.564 16.6521L617.426 12.999C617.293 12.9476 617.148 12.9476 617.015 12.999L607.877 16.6521C607.666 16.7344 607.532 16.9351 607.532 17.1614V23.706C607.543 29.7463 611.36 35.2053 617.03 37.2839C617.092 37.3045 617.154 37.3148 617.22 37.3148C617.287 37.3148 617.349 37.3045 617.411 37.2839C623.081 35.2002 626.898 29.7463 626.909 23.706V17.1614C626.909 16.9351 626.775 16.7344 626.564 16.6521ZM625.808 23.706C625.797 29.201 622.35 34.2071 617.226 36.1777C612.101 34.2071 608.649 29.201 608.638 23.706V17.537L617.226 14.1052L625.808 17.537V23.706Z" fill="#9DADF2"/>
<path d="M613.408 17.5114C613.274 17.4548 613.125 17.4548 612.986 17.5114L610.81 18.381C610.599 18.4633 610.465 18.664 610.465 18.8904V21.2108C610.465 21.5144 610.712 21.7613 611.015 21.7613C611.319 21.7613 611.566 21.5144 611.566 21.2108V19.2659L613.392 18.5354C613.531 18.4788 613.634 18.3758 613.696 18.2369C613.753 18.1031 613.753 17.954 613.696 17.815C613.639 17.6761 613.536 17.5732 613.403 17.5114H613.408Z" fill="#9DADF2"/>
<path d="M631.138 11.2086C627.423 7.48866 622.479 5.44604 617.22 5.44604C611.962 5.44604 607.023 7.4938 603.303 11.2086C595.631 18.8799 595.631 31.3671 603.303 39.0436C607.141 42.8818 612.178 44.7958 617.22 44.7958C622.263 44.7958 627.3 42.8767 631.138 39.0436C638.809 31.3722 638.809 18.8851 631.138 11.2086ZM628.416 23.706C628.432 30.6879 623.971 36.7952 617.318 38.9098C617.256 38.9304 617.189 38.9304 617.123 38.9098C610.47 36.7952 606.009 30.6879 606.025 23.706V15.9832C606.025 15.8546 606.102 15.7363 606.225 15.6848L617.102 11.3372C617.138 11.3218 617.179 11.3166 617.22 11.3166C617.261 11.3166 617.303 11.3218 617.339 11.3372L628.215 15.69C628.339 15.7363 628.416 15.8546 628.416 15.9884V23.7112V23.706Z" fill="#9DADF2"/>
<path d="M554.643 49.5373C541.137 49.5373 530.152 38.5473 530.152 25.0466C530.152 11.5458 541.142 0.555908 554.643 0.555908C568.144 0.555908 579.134 11.5458 579.134 25.0466C579.134 38.5473 568.144 49.5373 554.643 49.5373ZM554.643 2.1869C542.038 2.1869 531.783 12.4411 531.783 25.0466C531.783 37.6521 542.038 47.9063 554.643 47.9063C567.249 47.9063 577.503 37.6521 577.503 25.0466C577.503 12.4411 567.249 2.1869 554.643 2.1869Z" fill="white"/>
<path d="M562.587 9.75023C562.463 9.75023 562.34 9.72451 562.227 9.66792C559.855 8.49483 557.303 7.898 554.643 7.898C551.983 7.898 549.431 8.49483 547.059 9.66792C546.745 9.82227 546.369 9.7605 546.122 9.51354L541.914 5.30485C541.734 5.12477 541.651 4.8778 541.682 4.62569C541.713 4.37358 541.857 4.15235 542.073 4.02372C545.865 1.74959 550.213 0.550781 554.648 0.550781C559.083 0.550781 563.43 1.75474 567.222 4.02372C567.439 4.15235 567.583 4.37358 567.613 4.62569C567.644 4.8778 567.557 5.12477 567.382 5.30485L563.173 9.51354C563.014 9.66789 562.808 9.75023 562.592 9.75023H562.587ZM554.643 6.26698C557.354 6.26698 559.968 6.83295 562.417 7.94944L565.463 4.90355C562.149 3.1182 558.429 2.18177 554.643 2.18177C550.856 2.18177 547.136 3.1182 543.822 4.90355L546.868 7.94944C549.317 6.83295 551.931 6.26698 554.643 6.26698Z" fill="white"/>
<path d="M554.642 49.5372C550.207 49.5372 545.859 48.3333 542.067 46.0643C541.851 45.9357 541.707 45.7144 541.676 45.4623C541.645 45.2102 541.733 44.9632 541.908 44.7832L546.116 40.5744C546.363 40.3275 546.744 40.2657 547.053 40.4201C549.425 41.5932 551.977 42.19 554.637 42.19C557.297 42.19 559.849 41.5932 562.22 40.4201C562.534 40.2657 562.91 40.3275 563.157 40.5744L567.366 44.7832C567.546 44.9632 567.628 45.2102 567.597 45.4623C567.566 45.7144 567.422 45.9357 567.206 46.0643C563.414 48.3384 559.066 49.5372 554.631 49.5372H554.642ZM543.822 45.1845C547.135 46.9698 550.855 47.9062 554.642 47.9062C558.428 47.9062 562.148 46.9698 565.462 45.1845L562.416 42.1386C559.967 43.2551 557.353 43.821 554.642 43.821C551.93 43.821 549.317 43.2551 546.867 42.1386L543.822 45.1845Z" fill="white"/>
<path d="M574.962 38.0124C574.746 38.0124 574.54 37.93 574.386 37.7757L570.177 33.567C569.93 33.32 569.868 32.9393 570.023 32.6306C571.196 30.2587 571.793 27.7067 571.793 25.0467C571.793 22.3867 571.196 19.8347 570.023 17.4628C569.868 17.149 569.93 16.7682 570.177 16.5264L574.386 12.3177C574.566 12.1376 574.813 12.0553 575.065 12.0862C575.317 12.1171 575.538 12.2611 575.667 12.4772C577.941 16.2692 579.14 20.6168 579.14 25.0519C579.14 29.4869 577.941 33.8345 575.667 37.6265C575.538 37.8426 575.317 37.9866 575.065 38.0175C575.029 38.0175 574.998 38.0175 574.962 38.0175V38.0124ZM571.736 32.8158L574.782 35.8617C576.567 32.5483 577.504 28.8283 577.504 25.0416C577.504 21.2548 576.567 17.5349 574.782 14.2214L571.736 17.2673C572.852 19.7164 573.418 22.3301 573.418 25.0416C573.418 27.753 572.852 30.3668 571.736 32.8158Z" fill="white"/>
<path d="M534.325 38.0121C534.289 38.0121 534.258 38.0121 534.227 38.007C533.975 37.9761 533.754 37.832 533.625 37.616C531.351 33.824 530.152 29.4764 530.152 25.0413C530.152 20.6062 531.351 16.2587 533.625 12.4667C533.754 12.2506 533.975 12.1066 534.227 12.0757C534.479 12.0448 534.726 12.1323 534.906 12.3072L539.115 16.5159C539.362 16.7629 539.424 17.1436 539.269 17.4523C538.096 19.8242 537.5 22.3762 537.5 25.0362C537.5 27.6962 538.096 30.2482 539.269 32.6201C539.424 32.9339 539.362 33.3147 539.115 33.5565L534.906 37.7652C534.752 37.9195 534.546 38.007 534.33 38.007L534.325 38.0121ZM534.505 14.2212C532.72 17.5346 531.783 21.2545 531.783 25.0413C531.783 28.8281 532.72 32.548 534.505 35.8615L537.551 32.8156C536.435 30.3665 535.869 27.7528 535.869 25.0413C535.869 22.3299 536.435 19.7161 537.551 17.2671L534.505 14.2212Z" fill="white"/>
<path d="M554.643 6.26709C544.291 6.26709 535.864 14.6896 535.864 25.0467C535.864 35.4038 544.286 43.8263 554.643 43.8263C565 43.8263 573.423 35.4038 573.423 25.0467C573.423 14.6896 565 6.26709 554.643 6.26709ZM565.211 18.8777C566.102 20.4007 566.642 22.0626 566.817 23.8273C566.822 23.8994 566.791 23.9663 566.729 24.0023C565.386 24.8255 564.182 25.8339 563.143 27.0121C563.097 27.0687 563.02 27.0893 562.953 27.0636L560.632 26.3073C560.565 26.2867 560.519 26.2301 560.509 26.1581C560.246 24.2389 559.65 22.4022 558.734 20.694C558.703 20.6322 558.708 20.5602 558.749 20.5036L560.185 18.5279C560.221 18.4816 560.277 18.4507 560.334 18.4507C560.349 18.4507 560.36 18.4507 560.375 18.4507C561.908 18.7903 563.483 18.9035 565.047 18.7748C565.119 18.7697 565.186 18.8057 565.222 18.8674L565.211 18.8777ZM559.243 26.4822C559.248 26.5337 559.233 26.5851 559.202 26.6211C557.983 28.0257 556.429 29.1525 554.715 29.8728C554.669 29.8934 554.623 29.8934 554.577 29.8728C552.863 29.1474 551.309 28.0206 550.09 26.6211C550.059 26.5851 550.044 26.5337 550.049 26.4822C550.285 24.6197 550.867 22.8395 551.767 21.193C551.793 21.1467 551.834 21.1159 551.886 21.1056C552.791 20.9152 553.717 20.8175 554.649 20.8175C555.58 20.8175 556.506 20.9152 557.411 21.1056C557.463 21.1159 557.504 21.1467 557.53 21.193C558.43 22.8395 559.006 24.6197 559.248 26.4822H559.243ZM558.965 13.7121C558.965 13.7121 559.027 13.6606 559.089 13.6606C559.109 13.6606 559.135 13.6606 559.161 13.676C561.054 14.4272 562.747 15.6621 564.064 17.2416C564.131 17.3188 564.105 17.4011 564.09 17.432C564.08 17.4577 564.033 17.54 563.925 17.54C562.757 17.5555 561.594 17.4217 560.468 17.1541C560.421 17.1439 560.38 17.113 560.354 17.0718C559.752 16.0788 559.269 15.0086 558.919 13.8973C558.888 13.7995 558.945 13.7326 558.97 13.7121H558.965ZM552.045 13.0947C553.748 12.7293 555.544 12.7293 557.247 13.0947C557.314 13.1101 557.37 13.1615 557.386 13.2284C557.751 14.7565 558.343 16.2177 559.14 17.5709C559.176 17.6326 559.171 17.7098 559.13 17.7716L557.705 19.737C557.664 19.7936 557.592 19.8244 557.525 19.809C555.642 19.4283 553.65 19.4283 551.767 19.809C551.7 19.8244 551.628 19.7936 551.587 19.737L550.162 17.7716C550.121 17.715 550.116 17.6326 550.152 17.5709C550.949 16.2177 551.541 14.7565 551.906 13.2284C551.922 13.1615 551.978 13.1101 552.045 13.0947ZM545.228 17.2416C546.545 15.6569 548.238 14.4221 550.131 13.676C550.157 13.6658 550.183 13.6606 550.203 13.6606C550.27 13.6606 550.311 13.6966 550.327 13.7121C550.352 13.7378 550.409 13.7995 550.378 13.8973C550.028 15.0138 549.545 16.0788 548.943 17.0718C548.917 17.113 548.876 17.1439 548.829 17.1541C547.703 17.4217 546.54 17.5555 545.372 17.54C545.264 17.54 545.218 17.4577 545.207 17.432C545.192 17.4011 545.166 17.3188 545.233 17.2416H545.228ZM544.08 18.8777C544.111 18.8211 544.173 18.7851 544.24 18.7851C544.24 18.7851 544.25 18.7851 544.255 18.7851C545.825 18.9086 547.399 18.8006 548.927 18.461C548.999 18.4456 549.071 18.4713 549.112 18.533L550.548 20.5087C550.589 20.5653 550.594 20.6425 550.563 20.6991C549.648 22.4073 549.051 24.2441 548.788 26.1632C548.778 26.2301 548.732 26.2867 548.665 26.3124L546.344 27.0687C546.277 27.0893 546.2 27.0687 546.154 27.0173C545.115 25.8391 543.911 24.8306 542.568 24.0074C542.511 23.9714 542.475 23.9045 542.48 23.8325C542.655 22.0677 543.196 20.4007 544.086 18.8829L544.08 18.8777ZM544.641 31.5553C544.61 31.653 544.523 31.6736 544.487 31.6788C544.451 31.6788 544.369 31.6788 544.312 31.5964C543.216 29.8728 542.568 27.8765 542.439 25.8288C542.434 25.7259 542.501 25.6744 542.532 25.659C542.563 25.6435 542.645 25.6075 542.727 25.6693C543.679 26.3433 544.544 27.1356 545.3 28.0154C545.331 28.0515 545.346 28.0978 545.341 28.1492C545.248 29.3069 545.012 30.4542 544.636 31.5604L544.641 31.5553ZM549.725 36.2528C548.119 35.5479 546.704 34.5137 545.521 33.1863C545.475 33.1348 545.459 33.0576 545.485 32.9959C546.087 31.545 546.468 30.0169 546.617 28.4528C546.622 28.3807 546.674 28.319 546.741 28.2984L549.035 27.5524C549.035 27.5524 549.071 27.5421 549.092 27.5421C549.143 27.5421 549.19 27.5627 549.226 27.6038C550.512 29.0445 552.122 30.2175 553.887 30.9944C553.954 31.0253 553.995 31.0871 553.995 31.1591V33.5722C553.995 33.6442 553.954 33.7111 553.887 33.7368C552.446 34.3594 551.109 35.198 549.91 36.2219C549.858 36.2682 549.781 36.2785 549.72 36.2476L549.725 36.2528ZM557.818 36.7621C557.813 36.7981 557.787 36.8805 557.684 36.9062C555.698 37.4104 553.599 37.4104 551.613 36.9062C551.515 36.8805 551.484 36.7981 551.479 36.7621C551.474 36.7261 551.464 36.6438 551.551 36.5769C552.488 35.8823 553.506 35.3009 554.582 34.8533C554.628 34.8327 554.674 34.8327 554.721 34.8533C555.791 35.3009 556.809 35.8823 557.751 36.5769C557.833 36.6386 557.828 36.7261 557.823 36.7621H557.818ZM563.781 33.1914C562.598 34.5189 561.183 35.5479 559.578 36.2528C559.511 36.2836 559.439 36.2682 559.387 36.227C558.188 35.2032 556.856 34.3645 555.41 33.7419C555.343 33.7111 555.302 33.6493 555.302 33.5773V31.1642C555.302 31.0922 555.343 31.0253 555.41 30.9996C557.175 30.2227 558.79 29.0496 560.071 27.609C560.107 27.5678 560.154 27.5473 560.205 27.5473C560.226 27.5473 560.241 27.5472 560.262 27.5575L562.557 28.3036C562.623 28.3242 562.675 28.3859 562.68 28.4579C562.829 30.022 563.21 31.545 563.812 33.0011C563.838 33.0628 563.827 33.14 563.776 33.1914H563.781ZM564.985 31.6016C564.928 31.689 564.841 31.6891 564.81 31.6839C564.774 31.6839 564.692 31.6582 564.656 31.5604C564.285 30.4542 564.049 29.3069 563.951 28.1492C563.951 28.1029 563.961 28.0515 563.992 28.0154C564.748 27.1356 565.613 26.3484 566.565 25.6693C566.601 25.6436 566.637 25.6333 566.667 25.6333C566.709 25.6333 566.74 25.6487 566.76 25.659C566.791 25.6744 566.863 25.7259 566.853 25.8288C566.724 27.8765 566.076 29.8728 564.98 31.5964L564.985 31.6016Z" fill="white"/>
<path d="M493.615 49.6169C487.338 49.6169 481.066 47.2296 476.286 42.4498C466.732 32.8953 466.732 17.352 476.286 7.79754C480.917 3.16695 487.07 0.620117 493.615 0.620117C500.159 0.620117 506.313 3.16695 510.943 7.79754C520.498 17.352 520.498 32.8953 510.943 42.4498C506.169 47.2245 499.892 49.6169 493.615 49.6169ZM477.572 41.1635C486.417 50.008 500.808 50.008 509.652 41.1635C518.496 32.3191 518.496 17.9282 509.652 9.08382C505.366 4.79795 499.67 2.4415 493.61 2.4415C487.549 2.4415 481.853 4.80309 477.567 9.08382C468.723 17.9282 468.723 32.3191 477.567 41.1635H477.572Z" fill="#9DADF2"/>
<path d="M493.29 34.2949C493.378 34.5059 493.584 34.6294 493.8 34.6294C493.872 34.6294 493.944 34.6139 494.016 34.5882C495.745 33.8627 497.319 32.7411 498.564 31.3416C498.765 31.1153 498.744 30.7654 498.518 30.5647C498.292 30.3641 497.942 30.3847 497.741 30.611C496.604 31.8922 495.168 32.916 493.589 33.5746C493.311 33.6929 493.177 34.0171 493.296 34.2949H493.29Z" fill="#9DADF2"/>
<path d="M502.952 16.6521L493.814 12.999C493.681 12.9476 493.537 12.9476 493.403 12.999L484.265 16.6521C484.054 16.7344 483.92 16.9351 483.92 17.1614V23.706C483.931 29.7463 487.748 35.2053 493.418 37.2839C493.48 37.3045 493.542 37.3148 493.609 37.3148C493.676 37.3148 493.737 37.3045 493.799 37.2839C499.469 35.2002 503.287 29.7463 503.297 23.706V17.1614C503.297 16.9351 503.163 16.7344 502.952 16.6521ZM502.196 23.706C502.186 29.201 498.738 34.2071 493.614 36.1777C488.489 34.2071 485.037 29.201 485.027 23.706V17.537L493.614 14.1052L502.196 17.537V23.706Z" fill="#9DADF2"/>
<path d="M489.797 17.5114C489.663 17.4548 489.514 17.4548 489.375 17.5114L487.198 18.381C486.987 18.4633 486.854 18.6639 486.854 18.8903V21.2108C486.854 21.5143 487.1 21.7613 487.404 21.7613C487.708 21.7613 487.955 21.5143 487.955 21.2108V19.2659L489.781 18.5353C489.92 18.4787 490.023 18.3758 490.085 18.2369C490.141 18.1031 490.141 17.9539 490.085 17.815C490.028 17.6761 489.925 17.5732 489.791 17.5114H489.797Z" fill="#9DADF2"/>
<path d="M507.526 11.2086C503.811 7.48866 498.867 5.44604 493.609 5.44604C488.35 5.44604 483.411 7.4938 479.691 11.2086C472.02 18.8799 472.02 31.3671 479.691 39.0436C483.529 42.8818 488.566 44.7958 493.609 44.7958C498.651 44.7958 503.688 42.8767 507.526 39.0436C515.197 31.3722 515.197 18.8851 507.526 11.2086ZM504.804 23.706C504.82 30.6879 500.359 36.7951 493.706 38.9098C493.645 38.9304 493.578 38.9304 493.511 38.9098C486.858 36.7951 482.397 30.6879 482.413 23.706V15.9832C482.413 15.8546 482.49 15.7363 482.613 15.6848L493.49 11.3372C493.526 11.3218 493.567 11.3166 493.609 11.3166C493.65 11.3166 493.691 11.3218 493.727 11.3372L504.604 15.69C504.727 15.7363 504.804 15.8546 504.804 15.9884V23.7112V23.706Z" fill="#9DADF2"/>
<path d="M433.163 49.4045C419.657 49.4045 408.672 38.4145 408.672 24.9138C408.672 11.413 419.662 0.423096 433.163 0.423096C446.663 0.423096 457.653 11.413 457.653 24.9138C457.653 38.4145 446.663 49.4045 433.163 49.4045ZM433.163 2.05408C420.557 2.05408 410.303 12.3083 410.303 24.9138C410.303 37.5193 420.557 47.7735 433.163 47.7735C445.768 47.7735 456.022 37.5193 456.022 24.9138C456.022 12.3083 445.768 2.05408 433.163 2.05408Z" fill="#478BF9"/>
<path d="M449.139 7.44155L441.557 15.0234L443.049 16.5151L450.631 8.9332L449.139 7.44155Z" fill="#478BF9"/>
<path d="M423.043 33.537L415.461 41.1189L416.953 42.6105L424.535 35.0287L423.043 33.537Z" fill="#478BF9"/>
<path d="M443.279 33.5442L441.787 35.0359L449.369 42.6178L450.861 41.1261L443.279 33.5442Z" fill="#478BF9"/>
<path d="M416.951 7.21321L415.459 8.70483L423.037 16.2831L424.529 14.7915L416.951 7.21321Z" fill="#478BF9"/>
<path d="M439.136 25.5724C439.63 25.0785 439.63 24.281 439.136 23.7922L438.086 22.7478C437.592 22.2539 436.795 22.2539 436.306 22.7478L435.74 23.3137L435.087 22.6603C434.593 22.1664 433.795 22.1664 433.306 22.6603L432.74 23.2314L432.087 22.5728C431.593 22.0789 430.795 22.0789 430.307 22.5728L426.834 26.0458C426.808 26.0715 426.808 26.1127 426.834 26.1435C427.297 26.6066 428.053 26.6066 428.521 26.1435L430.759 23.9054C431.001 23.6636 431.392 23.6636 431.634 23.9054L431.799 24.0701C431.83 24.1009 431.83 24.1472 431.799 24.1781L429.931 26.0458C429.905 26.0715 429.905 26.1127 429.931 26.1435C430.394 26.6066 431.151 26.6066 431.619 26.1435L433.764 23.998C434.006 23.7562 434.397 23.7562 434.639 23.998L434.804 24.1627C434.829 24.1884 434.829 24.2296 434.804 24.2604L433.003 26.0612C432.977 26.087 432.977 26.1281 433.003 26.159C433.466 26.6221 434.222 26.6221 434.69 26.159L436.764 24.0855C437.006 23.8437 437.397 23.8437 437.638 24.0855L437.993 24.4405C438.132 24.5794 438.132 24.811 437.993 24.9499L437.937 25.0065C437.798 25.1454 437.566 25.1454 437.428 25.0065L436.97 24.5486C436.944 24.5228 436.903 24.5228 436.872 24.5486L436.08 25.3409C436.054 25.3666 436.054 25.4078 436.08 25.4387L436.795 26.1538C437.289 26.6478 438.086 26.6478 438.575 26.1538L439.141 25.5879L439.136 25.5724Z" fill="#478BF9"/>
<path d="M433.163 6.13403C422.791 6.13403 414.384 14.5411 414.384 24.9137C414.384 35.2862 422.791 43.6933 433.163 43.6933C443.536 43.6933 451.943 35.2862 451.943 24.9137C451.943 14.5411 443.536 6.13403 433.163 6.13403ZM433.93 11.9326C436.945 12.1075 439.682 13.3114 441.802 15.1946L439.09 17.906C437.675 16.7072 435.89 15.9303 433.93 15.7657V11.9326ZM432.402 11.9326V15.7657C430.441 15.9252 428.656 16.7072 427.241 17.906L424.53 15.1946C426.649 13.3114 429.387 12.1075 432.402 11.9326ZM423.449 16.275L426.161 18.9865C424.962 20.4014 424.185 22.1868 424.02 24.147H420.187C420.362 21.132 421.566 18.3948 423.449 16.275ZM420.187 25.6752H424.02C424.18 27.6354 424.962 29.4208 426.161 30.8357L423.449 33.5472C421.566 31.4274 420.362 28.6902 420.187 25.6752ZM432.402 37.8896C429.387 37.7147 426.649 36.5107 424.53 34.6276L427.241 31.9161C428.656 33.1149 430.441 33.8919 432.402 34.0565V37.8896ZM425.271 24.9085C425.271 20.5506 428.805 17.0159 433.163 17.0159C437.521 17.0159 441.056 20.5506 441.056 24.9085C441.056 29.2664 437.521 32.8011 433.163 32.8011C428.805 32.8011 425.271 29.2664 425.271 24.9085ZM433.93 37.8896V34.0565C435.89 33.897 437.675 33.1149 439.09 31.9161L441.802 34.6276C439.682 36.5107 436.945 37.7147 433.93 37.8896ZM442.882 33.5472L440.171 30.8357C441.37 29.4208 442.146 27.6354 442.311 25.6752H446.144C445.969 28.6902 444.765 31.4274 442.882 33.5472ZM442.311 24.147C442.152 22.1868 441.37 20.4014 440.171 18.9865L442.882 16.275C444.765 18.3948 445.969 21.132 446.144 24.147H442.311Z" fill="#478BF9"/>
<path d="M351.352 42.1674C341.718 32.5334 341.718 16.8595 351.352 7.22549C360.986 -2.4085 376.66 -2.4085 386.294 7.22549C395.928 16.8595 395.928 32.5334 386.294 42.1674C376.66 51.8014 360.986 51.8014 351.352 42.1674ZM385.129 8.38991C376.137 -0.602124 361.508 -0.602124 352.519 8.38991C343.527 17.3819 343.527 32.011 352.519 41.0007C361.511 49.9927 376.14 49.9927 385.129 41.0007C394.121 32.0086 394.121 17.3796 385.129 8.38991Z" fill="white"/>
<path d="M385.396 19.4553C385.309 19.3686 385.239 19.2585 385.199 19.1366C384.344 16.6063 382.948 14.3642 381.05 12.4664C379.155 10.571 376.91 9.17465 374.38 8.31715C374.045 8.20235 373.82 7.89075 373.82 7.53697V1.53213C373.82 1.2791 373.937 1.04012 374.136 0.883148C374.338 0.726174 374.598 0.672291 374.841 0.733206C379.166 1.81562 383.126 4.06011 386.289 7.22536C389.452 10.3906 391.696 14.3478 392.779 18.6728C392.839 18.9188 392.783 19.1788 392.629 19.3803C392.472 19.5818 392.233 19.6966 391.98 19.6966H385.975C385.75 19.6966 385.544 19.6052 385.391 19.4529L385.396 19.4553ZM382.214 11.302C384.15 13.2372 385.609 15.5052 386.56 18.0495H390.904C389.812 14.4134 387.828 11.0911 385.127 8.38978C382.425 5.68843 379.103 3.704 375.469 2.61455V6.95828C378.014 7.90715 380.282 9.36677 382.217 11.3043L382.214 11.302Z" fill="white"/>
<path d="M351.351 42.1671C348.188 39.0042 345.941 35.0447 344.859 30.7198C344.798 30.4738 344.854 30.2137 345.009 30.0145C345.166 29.8131 345.405 29.6982 345.658 29.6982H351.663C352.017 29.6982 352.331 29.9232 352.443 30.2582C353.298 32.7885 354.695 35.0307 356.592 36.9284C358.488 38.8238 360.732 40.2202 363.263 41.0777C363.598 41.1901 363.822 41.5041 363.822 41.8579V47.8627C363.822 48.1157 363.705 48.3547 363.506 48.5117C363.305 48.6687 363.045 48.7225 362.799 48.6616C358.474 47.5792 354.516 45.3347 351.351 42.1718V42.1671ZM346.738 31.343C347.83 34.9791 349.814 38.3014 352.516 41.0027C355.217 43.7041 358.539 45.6885 362.175 46.7803V42.4366C359.631 41.4877 357.363 40.0281 355.428 38.0928C353.493 36.1576 352.033 33.8897 351.082 31.3453H346.738V31.343Z" fill="white"/>
<path d="M374.065 48.4417C373.91 48.2871 373.823 48.0785 373.823 47.8583V41.8535C373.823 41.4997 374.048 41.1857 374.383 41.0733C376.914 40.2181 379.156 38.8218 381.054 36.924C382.951 35.0263 384.345 32.7841 385.203 30.2538C385.315 29.9188 385.629 29.6938 385.983 29.6938H391.988C392.241 29.6938 392.48 29.811 392.637 30.0101C392.794 30.2093 392.848 30.4717 392.787 30.7153C391.702 35.0403 389.458 38.9975 386.295 42.1627C383.132 45.328 379.172 47.5725 374.847 48.6549C374.601 48.7158 374.341 48.6596 374.142 48.5049C374.116 48.4815 374.091 48.4604 374.067 48.437L374.065 48.4417ZM375.471 42.4345V46.7782C379.107 45.6864 382.429 43.702 385.13 41.0007C387.832 38.2993 389.814 34.9771 390.908 31.3409H386.564C385.615 33.8853 384.156 36.1509 382.218 38.0884C380.283 40.0237 378.015 41.4856 375.471 42.4345Z" fill="white"/>
<path d="M345.075 19.4554C345.052 19.432 345.028 19.4062 345.009 19.3804C344.852 19.1813 344.799 18.9189 344.859 18.6729C345.942 14.3479 348.186 10.3884 351.352 7.22549C354.517 4.06258 358.474 1.81574 362.799 0.733326C363.045 0.672411 363.305 0.728637 363.504 0.883268C363.703 1.04024 363.82 1.27922 363.82 1.53225V7.53709C363.82 7.89087 363.596 8.20482 363.261 8.31728C360.73 9.17243 358.488 10.5688 356.59 12.4665C354.695 14.3619 353.299 16.6064 352.441 19.1368C352.329 19.4718 352.015 19.6967 351.661 19.6967H345.656C345.436 19.6967 345.225 19.61 345.073 19.4577L345.075 19.4554ZM362.173 2.61467C358.537 3.70646 355.215 5.69089 352.514 8.39225C349.812 11.0936 347.83 14.4158 346.736 18.052H351.08C352.029 15.5076 353.488 13.242 355.426 11.3045C357.361 9.36924 359.629 7.90961 362.173 6.9584V2.61467Z" fill="white"/>
<path d="M382.216 11.3022C374.832 3.91737 362.812 3.91503 355.428 11.3022C348.041 18.6893 348.043 30.706 355.428 38.0908C362.812 45.4756 374.829 45.478 382.216 38.0908C389.603 30.7037 389.601 18.687 382.216 11.3022Z" fill="white"/>
<path d="M375.654 31.4576L362.046 31.5478C361.473 31.5516 361.012 32.0194 361.015 32.5926L361.019 33.0775C361.022 33.6507 361.49 34.1123 362.063 34.1085L375.671 34.0183C376.244 34.0145 376.705 33.5467 376.702 32.9735L376.698 32.4886C376.695 31.9153 376.227 31.4538 375.654 31.4576Z" fill="#110A1D"/>
<path d="M363.9 23.244C363.753 23.244 363.603 23.2112 363.467 23.1456L362.405 22.6325C361.944 22.4076 361.733 21.8617 361.925 21.386L362.412 20.1724C362.562 19.8023 362.916 19.5609 363.315 19.5586C363.486 19.5586 363.654 19.6008 363.804 19.6875L365.069 20.4091C365.306 20.5426 365.477 20.7746 365.538 21.0416C365.599 21.3087 365.545 21.5899 365.39 21.8148L364.697 22.8199C364.516 23.0823 364.217 23.2416 363.898 23.2416L363.9 23.244Z" fill="#110A1D"/>
<path d="M373.695 23.1783C373.376 23.1783 373.074 23.026 372.891 22.7659L372.205 21.7983C372.045 21.5757 371.989 21.2946 372.045 21.0275C372.102 20.7604 372.27 20.5261 372.507 20.3879L373.812 19.6217C373.96 19.5351 374.128 19.4882 374.299 19.4859C374.698 19.4835 375.056 19.7201 375.211 20.088L375.703 21.2665C375.899 21.7397 375.696 22.2903 375.239 22.5199L374.128 23.0752C373.995 23.1408 373.845 23.1783 373.697 23.1783H373.695Z" fill="#110A1D"/>
<path d="M362.831 30.638C362.234 30.6427 361.697 30.2679 361.493 29.7056L359.223 23.4571C359.078 23.5274 358.923 23.5812 358.766 23.6211C358.581 23.6679 358.394 23.6914 358.204 23.6914C358.094 23.6914 357.986 23.6867 357.881 23.6726C356.697 23.5227 355.8 22.5082 355.793 21.3133C355.784 19.9919 356.852 18.9095 358.173 18.9001C359.495 18.8908 360.577 19.9591 360.584 21.2805C360.584 21.5851 360.533 21.878 360.425 22.1521C360.366 22.302 360.294 22.4449 360.209 22.5808L364.527 24.6707L367.831 19.8842C367.693 19.8256 367.559 19.753 367.433 19.6663C367.194 19.5046 366.985 19.3031 366.816 19.0665C366.53 18.6635 366.376 18.1879 366.374 17.6959C366.364 16.3745 367.433 15.2921 368.754 15.2827C368.812 15.2827 368.873 15.2827 368.932 15.2874C370.115 15.3671 371.071 16.3159 371.158 17.4991C371.198 18.059 371.05 18.5956 370.731 19.0524C370.563 19.2914 370.356 19.4952 370.12 19.6569C369.996 19.7436 369.862 19.8162 369.724 19.8748L373.086 24.6121L377.334 22.4871C377.254 22.3348 377.191 22.1755 377.144 22.0092C377.088 21.8077 377.057 21.5968 377.057 21.3836C377.057 21.2875 377.062 21.1915 377.071 21.0978C377.207 19.8935 378.224 18.9798 379.435 18.9728C380.757 18.9634 381.839 20.0318 381.846 21.3532C381.855 22.6136 380.876 23.6726 379.618 23.7593L379.468 23.764C379.224 23.764 378.985 23.7312 378.753 23.6609C378.603 23.614 378.458 23.5555 378.322 23.4805L376.19 29.6072C375.996 30.1718 375.462 30.5514 374.864 30.556L362.831 30.6357V30.638Z" fill="#110A1D"/>
<path d="M309.162 49.6169C302.885 49.6169 296.613 47.2296 291.833 42.4498C282.278 32.8954 282.278 17.352 291.833 7.79754C296.463 3.16695 302.617 0.620117 309.162 0.620117C315.706 0.620117 321.86 3.16695 326.49 7.79754C336.045 17.352 336.045 32.8954 326.49 42.4498C321.716 47.2245 315.439 49.6169 309.162 49.6169ZM293.119 41.1636C301.964 50.008 316.354 50.008 325.199 41.1636C334.043 32.3191 334.043 17.9282 325.199 9.08382C320.913 4.79795 315.217 2.4415 309.156 2.4415C303.095 2.4415 297.4 4.80309 293.114 9.08382C284.27 17.9282 284.27 32.3191 293.114 41.1636H293.119Z" fill="#9DADF2"/>
<path d="M308.837 34.2896C308.925 34.5005 309.131 34.6239 309.347 34.6239C309.419 34.6239 309.491 34.6085 309.563 34.5828C311.292 33.8573 312.866 32.7357 314.111 31.3362C314.312 31.1098 314.291 30.76 314.065 30.5594C313.838 30.3587 313.489 30.3793 313.288 30.6057C312.151 31.8868 310.715 32.9107 309.136 33.5692C308.858 33.6876 308.724 34.0117 308.842 34.2896H308.837Z" fill="#9DADF2"/>
<path d="M318.499 16.6521L309.362 12.999C309.228 12.9476 309.084 12.9476 308.95 12.999L299.812 16.6521C299.601 16.7344 299.468 16.9351 299.468 17.1614V23.706C299.478 29.7463 303.295 35.2053 308.965 37.2839C309.027 37.3045 309.089 37.3148 309.156 37.3148C309.223 37.3148 309.284 37.3045 309.346 37.2839C315.016 35.2002 318.834 29.7463 318.844 23.706V17.1614C318.844 16.9351 318.71 16.7344 318.499 16.6521ZM317.743 23.706C317.733 29.201 314.285 34.2071 309.161 36.1777C304.036 34.2071 300.584 29.201 300.574 23.706V17.537L309.161 14.1052L317.743 17.537V23.706Z" fill="#9DADF2"/>
<path d="M305.343 17.5114C305.21 17.4548 305.06 17.4548 304.922 17.5114L302.745 18.381C302.534 18.4633 302.4 18.664 302.4 18.8904V21.2108C302.4 21.5144 302.647 21.7613 302.951 21.7613C303.254 21.7613 303.501 21.5144 303.501 21.2108V19.2659L305.328 18.5354C305.467 18.4788 305.57 18.3758 305.632 18.2369C305.688 18.1031 305.688 17.954 305.632 17.815C305.575 17.6761 305.472 17.5732 305.338 17.5114H305.343Z" fill="#9DADF2"/>
<path d="M323.073 11.2086C319.358 7.48866 314.414 5.44604 309.156 5.44604C303.897 5.44604 298.958 7.4938 295.238 11.2086C287.567 18.8799 287.567 31.3671 295.238 39.0436C299.076 42.8818 304.113 44.7958 309.156 44.7958C314.198 44.7958 319.235 42.8767 323.073 39.0436C330.744 31.3722 330.744 18.8851 323.073 11.2086ZM320.351 23.706C320.367 30.6879 315.906 36.7952 309.253 38.9098C309.192 38.9304 309.125 38.9304 309.058 38.9098C302.405 36.7952 297.944 30.6879 297.96 23.706V15.9832C297.96 15.8546 298.037 15.7363 298.161 15.6848L309.037 11.3372C309.073 11.3218 309.114 11.3166 309.156 11.3166C309.197 11.3166 309.238 11.3218 309.274 11.3372L320.151 15.69C320.274 15.7363 320.351 15.8546 320.351 15.9884V23.7112V23.706Z" fill="#9DADF2"/>
<path d="M246.579 49.5373C233.073 49.5373 222.088 38.5473 222.088 25.0466C222.088 11.5458 233.078 0.555908 246.579 0.555908C260.08 0.555908 271.07 11.5458 271.07 25.0466C271.07 38.5473 260.08 49.5373 246.579 49.5373ZM246.579 2.1869C233.973 2.1869 223.719 12.4411 223.719 25.0466C223.719 37.6521 233.973 47.9063 246.579 47.9063C259.184 47.9063 269.439 37.6521 269.439 25.0466C269.439 12.4411 259.184 2.1869 246.579 2.1869Z" fill="white"/>
<path d="M254.522 9.74998C254.399 9.74998 254.275 9.72427 254.162 9.66767C251.79 8.49459 249.238 7.89776 246.578 7.89776C243.918 7.89776 241.366 8.49459 238.994 9.66767C238.68 9.82203 238.305 9.76026 238.058 9.5133L233.849 5.30461C233.669 5.12453 233.587 4.87756 233.618 4.62545C233.649 4.37334 233.793 4.15211 234.009 4.02348C237.801 1.74935 242.148 0.550537 246.583 0.550537C251.018 0.550537 255.366 1.75449 259.158 4.02348C259.374 4.15211 259.518 4.37334 259.549 4.62545C259.58 4.87756 259.492 5.12453 259.317 5.30461L255.109 9.5133C254.949 9.66765 254.743 9.74998 254.527 9.74998H254.522ZM246.578 6.26674C249.29 6.26674 251.903 6.83271 254.352 7.9492L257.398 4.9033C254.085 3.11795 250.365 2.18153 246.578 2.18153C242.791 2.18153 239.071 3.11795 235.758 4.9033L238.804 7.9492C241.253 6.83271 243.867 6.26674 246.578 6.26674Z" fill="white"/>
<path d="M246.577 49.5372C242.142 49.5372 237.795 48.3333 234.003 46.0643C233.787 45.9357 233.643 45.7144 233.612 45.4623C233.581 45.2102 233.668 44.9632 233.843 44.7832L238.052 40.5744C238.299 40.3275 238.68 40.2657 238.988 40.4201C241.36 41.5932 243.912 42.19 246.572 42.19C249.232 42.19 251.784 41.5932 254.156 40.4201C254.47 40.2657 254.846 40.3275 255.093 40.5744L259.301 44.7832C259.481 44.9632 259.564 45.2102 259.533 45.4623C259.502 45.7144 259.358 45.9357 259.142 46.0643C255.35 48.3384 251.002 49.5372 246.567 49.5372H246.577ZM235.757 45.1845C239.071 46.9698 242.791 47.9062 246.577 47.9062C250.364 47.9062 254.084 46.9698 257.398 45.1845L254.352 42.1386C251.903 43.2551 249.289 43.821 246.577 43.821C243.866 43.821 241.252 43.2551 238.803 42.1386L235.757 45.1845Z" fill="white"/>
<path d="M266.897 38.0121C266.681 38.0121 266.476 37.9298 266.321 37.7754L262.113 33.5667C261.866 33.3198 261.804 32.939 261.958 32.6303C263.131 30.2584 263.728 27.7065 263.728 25.0465C263.728 22.3864 263.131 19.8345 261.958 17.4626C261.804 17.1487 261.866 16.768 262.113 16.5262L266.321 12.3175C266.501 12.1374 266.748 12.0551 267 12.0859C267.252 12.1168 267.474 12.2609 267.602 12.477C269.876 16.2689 271.075 20.6165 271.075 25.0516C271.075 29.4867 269.876 33.8343 267.602 37.6262C267.474 37.8423 267.252 37.9864 267 38.0173C266.964 38.0173 266.933 38.0173 266.897 38.0173V38.0121ZM263.671 32.8156L266.717 35.8615C268.503 32.548 269.439 28.8281 269.439 25.0413C269.439 21.2545 268.503 17.5346 266.717 14.2212L263.671 17.2671C264.788 19.7161 265.354 22.3298 265.354 25.0413C265.354 27.7528 264.788 30.3665 263.671 32.8156Z" fill="white"/>
<path d="M226.261 38.0121C226.225 38.0121 226.194 38.0121 226.163 38.007C225.911 37.9761 225.689 37.832 225.561 37.616C223.287 33.824 222.088 29.4764 222.088 25.0413C222.088 20.6062 223.287 16.2587 225.561 12.4667C225.689 12.2506 225.911 12.1066 226.163 12.0757C226.415 12.0448 226.662 12.1323 226.842 12.3072L231.051 16.5159C231.298 16.7629 231.359 17.1436 231.205 17.4523C230.032 19.8242 229.435 22.3762 229.435 25.0362C229.435 27.6962 230.032 30.2482 231.205 32.6201C231.359 32.9339 231.298 33.3147 231.051 33.5565L226.842 37.7652C226.688 37.9195 226.482 38.007 226.266 38.007L226.261 38.0121ZM226.441 14.2212C224.655 17.5346 223.719 21.2545 223.719 25.0413C223.719 28.8281 224.655 32.548 226.441 35.8615L229.487 32.8156C228.37 30.3665 227.804 27.7528 227.804 25.0413C227.804 22.3299 228.37 19.7161 229.487 17.2671L226.441 14.2212Z" fill="white"/>
<path d="M246.579 6.26685C236.227 6.26685 227.8 14.6894 227.8 25.0465C227.8 35.4036 236.222 43.8261 246.579 43.8261C256.936 43.8261 265.359 35.4036 265.359 25.0465C265.359 14.6894 256.936 6.26685 246.579 6.26685ZM257.147 18.8775C258.037 20.4004 258.578 22.0623 258.752 23.8271C258.758 23.8991 258.727 23.966 258.665 24.002C257.322 24.8252 256.118 25.8337 255.079 27.0119C255.033 27.0685 254.955 27.0891 254.889 27.0634L252.568 26.307C252.501 26.2864 252.455 26.2299 252.445 26.1578C252.182 24.2387 251.585 22.4019 250.67 20.6937C250.639 20.632 250.644 20.56 250.685 20.5034L252.12 18.5276C252.156 18.4813 252.213 18.4504 252.27 18.4504C252.285 18.4504 252.295 18.4504 252.311 18.4504C253.844 18.79 255.418 18.9032 256.983 18.7746C257.055 18.7694 257.121 18.8055 257.158 18.8672L257.147 18.8775ZM251.179 26.482C251.184 26.5334 251.169 26.5849 251.138 26.6209C249.918 28.0255 248.365 29.1523 246.651 29.8726C246.605 29.8932 246.559 29.8932 246.512 29.8726C244.799 29.1471 243.245 28.0203 242.026 26.6209C241.995 26.5849 241.979 26.5334 241.985 26.482C242.221 24.6194 242.803 22.8392 243.703 21.1928C243.729 21.1465 243.77 21.1156 243.821 21.1053C244.727 20.915 245.653 20.8172 246.584 20.8172C247.516 20.8172 248.442 20.915 249.347 21.1053C249.399 21.1156 249.44 21.1465 249.466 21.1928C250.366 22.8392 250.942 24.6194 251.184 26.482H251.179ZM250.901 13.7118C250.901 13.7118 250.963 13.6604 251.025 13.6604C251.045 13.6604 251.071 13.6604 251.097 13.6758C252.99 14.427 254.683 15.6618 256 17.2414C256.067 17.3185 256.041 17.4009 256.026 17.4317C256.015 17.4574 255.969 17.5398 255.861 17.5398C254.693 17.5552 253.53 17.4214 252.403 17.1539C252.357 17.1436 252.316 17.1127 252.29 17.0716C251.688 16.0786 251.205 15.0084 250.855 13.897C250.824 13.7993 250.88 13.7324 250.906 13.7118H250.901ZM243.981 13.0944C245.684 12.7291 247.48 12.7291 249.183 13.0944C249.249 13.1098 249.306 13.1613 249.322 13.2282C249.687 14.7563 250.279 16.2175 251.076 17.5707C251.112 17.6324 251.107 17.7096 251.066 17.7713L249.641 19.7367C249.599 19.7933 249.527 19.8242 249.46 19.8088C247.577 19.428 245.586 19.428 243.703 19.8088C243.636 19.8242 243.564 19.7933 243.523 19.7367L242.098 17.7713C242.057 17.7147 242.051 17.6324 242.087 17.5707C242.885 16.2175 243.477 14.7563 243.842 13.2282C243.857 13.1613 243.914 13.1098 243.981 13.0944ZM237.164 17.2414C238.481 15.6567 240.174 14.4218 242.067 13.6758C242.093 13.6655 242.118 13.6604 242.139 13.6604C242.206 13.6604 242.247 13.6964 242.262 13.7118C242.288 13.7376 242.345 13.7993 242.314 13.897C241.964 15.0135 241.48 16.0786 240.878 17.0716C240.853 17.1127 240.812 17.1436 240.765 17.1539C239.638 17.4214 238.476 17.5552 237.308 17.5398C237.2 17.5398 237.153 17.4574 237.143 17.4317C237.128 17.4009 237.102 17.3185 237.169 17.2414H237.164ZM236.016 18.8775C236.047 18.8209 236.109 18.7849 236.176 18.7849C236.176 18.7849 236.186 18.7849 236.191 18.7849C237.76 18.9084 239.335 18.8003 240.863 18.4607C240.935 18.4453 241.007 18.471 241.048 18.5328L242.484 20.5085C242.525 20.5651 242.53 20.6423 242.499 20.6989C241.583 22.4071 240.986 24.2439 240.724 26.163C240.714 26.2299 240.667 26.2864 240.601 26.3122L238.28 27.0685C238.213 27.0891 238.136 27.0685 238.09 27.0171C237.05 25.8388 235.846 24.8304 234.504 24.0072C234.447 23.9712 234.411 23.9043 234.416 23.8322C234.591 22.0675 235.131 20.4005 236.021 18.8826L236.016 18.8775ZM236.577 31.555C236.546 31.6528 236.459 31.6734 236.423 31.6785C236.387 31.6785 236.304 31.6785 236.248 31.5962C235.152 29.8726 234.504 27.8763 234.375 25.8285C234.37 25.7256 234.437 25.6742 234.468 25.6587C234.498 25.6433 234.581 25.6073 234.663 25.669C235.615 26.343 236.479 27.1354 237.236 28.0152C237.267 28.0512 237.282 28.0975 237.277 28.149C237.184 29.3066 236.948 30.454 236.572 31.5602L236.577 31.555ZM241.66 36.2525C240.055 35.5476 238.64 34.5135 237.457 33.186C237.411 33.1346 237.395 33.0574 237.421 32.9957C238.023 31.5447 238.404 30.0166 238.553 28.4525C238.558 28.3805 238.609 28.3188 238.676 28.2982L240.971 27.5521C240.971 27.5521 241.007 27.5419 241.028 27.5419C241.079 27.5419 241.125 27.5624 241.161 27.6036C242.448 29.0442 244.058 30.2173 245.823 30.9942C245.89 31.0251 245.931 31.0868 245.931 31.1589V33.5719C245.931 33.6439 245.89 33.7108 245.823 33.7366C244.382 34.3591 243.044 35.1978 241.846 36.2216C241.794 36.268 241.717 36.2782 241.655 36.2474L241.66 36.2525ZM249.754 36.7619C249.749 36.7979 249.723 36.8802 249.62 36.906C247.634 37.4102 245.535 37.4102 243.549 36.906C243.451 36.8802 243.42 36.7979 243.415 36.7619C243.41 36.7259 243.4 36.6435 243.487 36.5767C244.423 35.8821 245.442 35.3007 246.517 34.853C246.564 34.8325 246.61 34.8325 246.656 34.853C247.727 35.3007 248.745 35.8821 249.687 36.5767C249.769 36.6384 249.764 36.7259 249.759 36.7619H249.754ZM255.717 33.1912C254.534 34.5186 253.119 35.5476 251.513 36.2525C251.446 36.2834 251.374 36.268 251.323 36.2268C250.124 35.2029 248.792 34.3643 247.346 33.7417C247.279 33.7108 247.238 33.6491 247.238 33.5771V31.164C247.238 31.092 247.279 31.0251 247.346 30.9994C249.111 30.2224 250.726 29.0494 252.007 27.6088C252.043 27.5676 252.09 27.547 252.141 27.547C252.162 27.547 252.177 27.547 252.198 27.5573L254.492 28.3033C254.559 28.3239 254.611 28.3856 254.616 28.4577C254.765 30.0218 255.146 31.5447 255.748 33.0008C255.773 33.0625 255.763 33.1397 255.712 33.1912H255.717ZM256.921 31.6013C256.864 31.6888 256.777 31.6888 256.746 31.6837C256.71 31.6837 256.628 31.6579 256.592 31.5602C256.221 30.454 255.984 29.3066 255.887 28.149C255.887 28.1027 255.897 28.0512 255.928 28.0152C256.684 27.1354 257.549 26.3482 258.5 25.669C258.536 25.6433 258.572 25.633 258.603 25.633C258.644 25.633 258.675 25.6484 258.696 25.6587C258.727 25.6742 258.799 25.7256 258.789 25.8285C258.66 27.8763 258.012 29.8726 256.916 31.5962L256.921 31.6013Z" fill="white"/>
<path d="M185.55 49.6169C179.273 49.6169 173.001 47.2296 168.222 42.4498C158.667 32.8953 158.667 17.352 168.222 7.79754C172.852 3.16695 179.006 0.620117 185.55 0.620117C192.095 0.620117 198.248 3.16695 202.879 7.79754C212.433 17.352 212.433 32.8953 202.879 42.4498C198.104 47.2245 191.827 49.6169 185.55 49.6169ZM169.508 41.1635C178.352 50.008 192.743 50.008 201.587 41.1635C210.432 32.3191 210.432 17.9282 201.587 9.08382C197.302 4.79795 191.606 2.4415 185.545 2.4415C179.484 2.4415 173.789 4.80309 169.503 9.08382C160.658 17.9282 160.658 32.3191 169.503 41.1635H169.508Z" fill="#9DADF2"/>
<path d="M185.226 34.2949C185.313 34.5059 185.519 34.6294 185.735 34.6294C185.807 34.6294 185.879 34.6139 185.951 34.5882C187.68 33.8627 189.255 32.7411 190.5 31.3416C190.7 31.1153 190.68 30.7654 190.453 30.5647C190.227 30.3641 189.877 30.3847 189.677 30.611C188.539 31.8922 187.104 32.916 185.524 33.5746C185.247 33.6929 185.113 34.0171 185.231 34.2949H185.226Z" fill="#9DADF2"/>
<path d="M194.888 16.6521L185.75 12.999C185.616 12.9476 185.472 12.9476 185.339 12.999L176.201 16.6521C175.99 16.7344 175.856 16.9351 175.856 17.1614V23.706C175.866 29.7463 179.684 35.2053 185.354 37.2839C185.416 37.3045 185.478 37.3148 185.544 37.3148C185.611 37.3148 185.673 37.3045 185.735 37.2839C191.405 35.2002 195.222 29.7463 195.233 23.706V17.1614C195.233 16.9351 195.099 16.7344 194.888 16.6521ZM194.132 23.706C194.121 29.201 190.674 34.2071 185.55 36.1777C180.425 34.2071 176.973 29.201 176.962 23.706V17.537L185.55 14.1052L194.132 17.537V23.706Z" fill="#9DADF2"/>
<path d="M181.732 17.5114C181.598 17.4548 181.449 17.4548 181.31 17.5114L179.134 18.381C178.923 18.4633 178.789 18.6639 178.789 18.8903V21.2108C178.789 21.5143 179.036 21.7613 179.34 21.7613C179.643 21.7613 179.89 21.5143 179.89 21.2108V19.2659L181.717 18.5353C181.856 18.4787 181.958 18.3758 182.02 18.2369C182.077 18.1031 182.077 17.9539 182.02 17.815C181.964 17.6761 181.861 17.5732 181.727 17.5114H181.732Z" fill="#9DADF2"/>
<path d="M199.462 11.2086C195.747 7.48866 190.803 5.44604 185.544 5.44604C180.286 5.44604 175.347 7.4938 171.627 11.2086C163.955 18.8799 163.955 31.3671 171.627 39.0436C175.465 42.8818 180.502 44.7958 185.544 44.7958C190.586 44.7958 195.624 42.8767 199.462 39.0436C207.133 31.3722 207.133 18.8851 199.462 11.2086ZM196.74 23.706C196.755 30.6879 192.295 36.7951 185.642 38.9098C185.58 38.9304 185.513 38.9304 185.447 38.9098C178.794 36.7951 174.333 30.6879 174.349 23.706V15.9832C174.349 15.8546 174.426 15.7363 174.549 15.6848L185.426 11.3372C185.462 11.3218 185.503 11.3166 185.544 11.3166C185.585 11.3166 185.627 11.3218 185.663 11.3372L196.539 15.69C196.663 15.7363 196.74 15.8546 196.74 15.9884V23.7112V23.706Z" fill="#9DADF2"/>
<path d="M125.098 49.4047C111.592 49.4047 100.607 38.4148 100.607 24.914C100.607 11.4133 111.597 0.42334 125.098 0.42334C138.599 0.42334 149.589 11.4133 149.589 24.914C149.589 38.4148 138.599 49.4047 125.098 49.4047ZM125.098 2.05433C112.492 2.05433 102.238 12.3085 102.238 24.914C102.238 37.5195 112.492 47.7737 125.098 47.7737C137.703 47.7737 147.958 37.5195 147.958 24.914C147.958 12.3085 137.703 2.05433 125.098 2.05433Z" fill="#478BF9"/>
<path d="M141.075 7.44155L133.493 15.0234L134.984 16.5151L142.566 8.9332L141.075 7.44155Z" fill="#478BF9"/>
<path d="M114.978 33.537L107.396 41.1189L108.888 42.6105L116.47 35.0287L114.978 33.537Z" fill="#478BF9"/>
<path d="M135.214 33.5445L133.722 35.0361L141.304 42.618L142.796 41.1263L135.214 33.5445Z" fill="#478BF9"/>
<path d="M108.886 7.21345L107.395 8.70508L114.973 16.2833L116.464 14.7917L108.886 7.21345Z" fill="#478BF9"/>
<path d="M131.071 25.5724C131.565 25.0785 131.565 24.281 131.071 23.7922L130.022 22.7478C129.528 22.2539 128.73 22.2539 128.241 22.7478L127.675 23.3137L127.022 22.6603C126.528 22.1664 125.731 22.1664 125.242 22.6603L124.676 23.2314L124.022 22.5728C123.529 22.0789 122.731 22.0789 122.242 22.5728L118.769 26.0458C118.744 26.0715 118.744 26.1127 118.769 26.1435C119.232 26.6066 119.989 26.6066 120.457 26.1435L122.695 23.9054C122.937 23.6636 123.328 23.6636 123.57 23.9054L123.734 24.0701C123.765 24.1009 123.765 24.1472 123.734 24.1781L121.867 26.0458C121.841 26.0715 121.841 26.1127 121.867 26.1435C122.33 26.6066 123.086 26.6066 123.554 26.1435L125.7 23.998C125.942 23.7562 126.333 23.7562 126.574 23.998L126.739 24.1627C126.765 24.1884 126.765 24.2296 126.739 24.2604L124.938 26.0612C124.913 26.087 124.913 26.1281 124.938 26.159C125.401 26.6221 126.158 26.6221 126.626 26.159L128.699 24.0855C128.941 23.8437 129.332 23.8437 129.574 24.0855L129.929 24.4405C130.068 24.5794 130.068 24.811 129.929 24.9499L129.872 25.0065C129.734 25.1454 129.502 25.1454 129.363 25.0065L128.905 24.5486C128.879 24.5228 128.838 24.5228 128.807 24.5486L128.015 25.3409C127.989 25.3666 127.989 25.4078 128.015 25.4387L128.73 26.1538C129.224 26.6478 130.022 26.6478 130.51 26.1538L131.076 25.5879L131.071 25.5724Z" fill="#478BF9"/>
<path d="M125.098 6.13428C114.726 6.13428 106.319 14.5414 106.319 24.9139C106.319 35.2864 114.726 43.6935 125.098 43.6935C135.471 43.6935 143.878 35.2864 143.878 24.9139C143.878 14.5414 135.471 6.13428 125.098 6.13428ZM125.865 11.9328C128.88 12.1078 131.617 13.3117 133.737 15.1948L131.026 17.9063C129.611 16.7075 127.825 15.9306 125.865 15.7659V11.9328ZM124.337 11.9328V15.7659C122.377 15.9254 120.591 16.7075 119.176 17.9063L116.465 15.1948C118.585 13.3117 121.322 12.1078 124.337 11.9328ZM115.385 16.2753L118.096 18.9868C116.897 20.4017 116.12 22.187 115.956 24.1473H112.123C112.297 21.1323 113.501 18.3951 115.385 16.2753ZM112.123 25.6754H115.956C116.115 27.6357 116.897 29.421 118.096 30.8359L115.385 33.5474C113.501 31.4276 112.297 28.6904 112.123 25.6754ZM124.337 37.8899C121.322 37.7149 118.585 36.511 116.465 34.6279L119.176 31.9164C120.591 33.1152 122.377 33.8921 124.337 34.0568V37.8899ZM117.206 24.9088C117.206 20.5508 120.741 17.0162 125.098 17.0162C129.456 17.0162 132.991 20.5508 132.991 24.9088C132.991 29.2667 129.456 32.8014 125.098 32.8014C120.741 32.8014 117.206 29.2667 117.206 24.9088ZM125.865 37.8899V34.0568C127.825 33.8973 129.611 33.1152 131.026 31.9164L133.737 34.6279C131.617 36.511 128.88 37.7149 125.865 37.8899ZM134.818 33.5474L132.106 30.8359C133.305 29.421 134.082 27.6357 134.246 25.6754H138.08C137.905 28.6904 136.701 31.4276 134.818 33.5474ZM134.246 24.1473C134.087 22.187 133.305 20.4017 132.106 18.9868L134.818 16.2753C136.701 18.3951 137.905 21.1323 138.08 24.1473H134.246Z" fill="#478BF9"/>
<path d="M43.2875 42.1694C33.6535 32.5354 33.6535 16.8614 43.2875 7.22744C52.9215 -2.40654 68.5954 -2.40654 78.2294 7.22744C87.8634 16.8614 87.8634 32.5354 78.2294 42.1694C68.5954 51.8034 52.9215 51.8034 43.2875 42.1694ZM77.065 8.39186C68.073 -0.600171 53.4439 -0.600171 44.4543 8.39186C35.4622 17.3839 35.4622 32.0129 44.4543 41.0026C53.4463 49.9947 68.0753 49.9947 77.065 41.0026C86.057 32.0106 86.057 17.3815 77.065 8.39186Z" fill="white"/>
<path d="M77.3338 19.4575C77.2471 19.3708 77.1769 19.2607 77.137 19.1388C76.2819 16.6085 74.8855 14.3664 72.9877 12.4686C71.0923 10.5732 68.8479 9.17685 66.3175 8.31935C65.9825 8.20455 65.7576 7.89295 65.7576 7.53917V1.53433C65.7576 1.2813 65.8747 1.04232 66.0739 0.885345C66.2753 0.728371 66.5354 0.674488 66.7791 0.735403C71.1041 1.81782 75.0635 4.06231 78.2264 7.22756C81.3894 10.3928 83.6339 14.35 84.7163 18.6749C84.7772 18.921 84.721 19.181 84.5663 19.3825C84.4094 19.584 84.1704 19.6988 83.9173 19.6988H77.9125C77.6876 19.6988 77.4814 19.6074 77.3291 19.4551L77.3338 19.4575ZM74.1522 11.3042C76.0874 13.2394 77.547 15.5074 78.4982 18.0517H82.842C81.7502 14.4156 79.7657 11.0933 77.0644 8.39198C74.363 5.69062 71.0408 3.70619 67.407 2.61675V6.96048C69.9514 7.90935 72.2193 9.36897 74.1545 11.3065L74.1522 11.3042Z" fill="white"/>
<path d="M43.287 42.1696C40.1241 39.0067 37.8773 35.0472 36.7948 30.7222C36.7339 30.4762 36.7902 30.2161 36.9448 30.017C37.1018 29.8155 37.3407 29.7007 37.5938 29.7007H43.5986C43.9524 29.7007 44.2663 29.9256 44.3788 30.2606C45.234 32.791 46.6303 35.0331 48.5281 36.9309C50.4235 38.8263 52.668 40.2226 55.1983 41.0801C55.5333 41.1926 55.7582 41.5065 55.7582 41.8603V47.8652C55.7582 48.1182 55.6411 48.3572 55.4419 48.5141C55.2405 48.6711 54.9804 48.725 54.7344 48.6641C50.4094 47.5817 46.4523 45.3372 43.287 42.1743V42.1696ZM38.6739 31.3454C39.7656 34.9816 41.7501 38.3038 44.4514 41.0052C47.1528 43.7065 50.475 45.6909 54.1112 46.7827V42.439C51.5668 41.4901 49.2989 40.0305 47.3636 38.0953C45.4284 36.16 43.9688 33.8921 43.0176 31.3477H38.6739V31.3454Z" fill="white"/>
<path d="M65.9989 48.4436C65.8443 48.289 65.7576 48.0805 65.7576 47.8603V41.8554C65.7576 41.5016 65.9825 41.1877 66.3175 41.0752C68.8478 40.2201 71.09 38.8237 72.9877 36.926C74.8855 35.0282 76.2795 32.7861 77.137 30.2557C77.2495 29.9207 77.5634 29.6958 77.9172 29.6958H83.922C84.1751 29.6958 84.4141 29.8129 84.571 30.0121C84.728 30.2112 84.7819 30.4736 84.721 30.7173C83.6362 35.0423 81.3917 38.9994 78.2288 42.1647C75.0659 45.3299 71.1064 47.5744 66.7814 48.6568C66.5354 48.7178 66.2753 48.6615 66.0762 48.5069C66.0504 48.4835 66.0247 48.4624 66.0012 48.439L65.9989 48.4436ZM67.4046 42.4365V46.7802C71.0408 45.6884 74.363 43.704 77.0644 41.0026C79.7657 38.3013 81.7478 34.979 82.842 31.3428H78.4982C77.5494 33.8872 76.0897 36.1528 74.1521 38.0904C72.2169 40.0256 69.949 41.4876 67.4046 42.4365Z" fill="white"/>
<path d="M37.0108 19.4574C36.9873 19.4339 36.9639 19.4081 36.9452 19.3824C36.7882 19.1832 36.7343 18.9208 36.7952 18.6748C37.8776 14.3498 40.1221 10.3903 43.2874 7.22744C46.4526 4.06453 50.4098 1.8177 54.7348 0.735279C54.9808 0.674364 55.2408 0.73059 55.44 0.885221C55.6391 1.04219 55.7563 1.28117 55.7563 1.53421V7.53905C55.7563 7.89282 55.5314 8.20677 55.1963 8.31923C52.666 9.17439 50.4238 10.5707 48.5261 12.4685C46.6307 14.3639 45.2343 16.6084 44.3768 19.1387C44.2644 19.4737 43.9504 19.6987 43.5966 19.6987H37.5918C37.3716 19.6987 37.1607 19.612 37.0084 19.4597L37.0108 19.4574ZM54.1092 2.61662C50.473 3.70841 47.1508 5.69285 44.4494 8.3942C41.7481 11.0956 39.766 14.4178 38.6719 18.054H43.0156C43.9645 15.5096 45.4241 13.244 47.3617 11.3064C49.2969 9.37119 51.5648 7.91157 54.1092 6.96035V2.61662Z" fill="white"/>
<path d="M74.1541 11.3041C66.7693 3.91933 54.7502 3.91698 47.3654 11.3041C39.9783 18.6913 39.9806 30.708 47.3654 38.0928C54.7502 45.4776 66.7669 45.4799 74.1541 38.0928C81.5412 30.7056 81.5389 18.6889 74.1541 11.3041Z" fill="white"/>
<path d="M67.589 31.4595L53.9817 31.5498C53.4085 31.5536 52.9469 32.0213 52.9507 32.5945L52.9539 33.0795C52.9577 33.6527 53.4255 34.1143 53.9987 34.1105L67.6059 34.0202C68.1792 34.0164 68.6408 33.5487 68.637 32.9755L68.6337 32.4905C68.6299 31.9173 68.1622 31.4557 67.589 31.4595Z" fill="#110A1D"/>
<path d="M55.8355 23.2459C55.6879 23.2459 55.538 23.2131 55.4021 23.1475L54.3408 22.6344C53.8792 22.4095 53.6683 21.8636 53.8605 21.388L54.3478 20.1744C54.4977 19.8042 54.8515 19.5629 55.2498 19.5605C55.4208 19.5605 55.5895 19.6027 55.7395 19.6894L57.0046 20.411C57.2413 20.5446 57.4123 20.7765 57.4732 21.0436C57.5341 21.3107 57.4802 21.5918 57.3256 21.8168L56.6321 22.8219C56.4517 23.0843 56.1518 23.2436 55.8332 23.2436L55.8355 23.2459Z" fill="#110A1D"/>
<path d="M65.6323 23.1805C65.3137 23.1805 65.0114 23.0282 64.8287 22.7681L64.1422 21.8005C63.9829 21.5779 63.9267 21.2968 63.9829 21.0297C64.0391 20.7626 64.2078 20.5283 64.4445 20.3901L65.7494 19.6239C65.897 19.5373 66.0657 19.4904 66.2368 19.4881C66.6351 19.4857 66.9935 19.7223 67.1482 20.0902L67.6402 21.2686C67.837 21.7419 67.6331 22.2925 67.1763 22.5221L66.0657 23.0774C65.9322 23.143 65.7822 23.1805 65.6346 23.1805H65.6323Z" fill="#110A1D"/>
<path d="M54.7666 30.64C54.1692 30.6447 53.6327 30.2698 53.4288 29.7075L51.1586 23.459C51.0133 23.5293 50.8587 23.5832 50.7017 23.623C50.5166 23.6699 50.3292 23.6933 50.1394 23.6933C50.0293 23.6933 49.9215 23.6886 49.8161 23.6746C48.6329 23.5246 47.7356 22.5102 47.7286 21.3153C47.7192 19.9939 48.7875 18.9115 50.1089 18.9021C51.4303 18.8927 52.5128 19.9611 52.5198 21.2825C52.5198 21.5871 52.4682 21.8799 52.3605 22.154C52.3019 22.304 52.2293 22.4469 52.1449 22.5828L56.4629 24.6726L59.7664 19.8861C59.6281 19.8275 59.4946 19.7549 59.3681 19.6682C59.1291 19.5066 58.9206 19.3051 58.7519 19.0684C58.466 18.6655 58.3114 18.1899 58.3091 17.6978C58.2997 16.3765 59.3681 15.294 60.6895 15.2847C60.748 15.2847 60.8089 15.2847 60.8675 15.2894C62.0507 15.369 63.0066 16.3179 63.0933 17.501C63.1331 18.061 62.9855 18.5975 62.6669 19.0544C62.4982 19.2934 62.292 19.4972 62.0554 19.6588C61.9312 19.7455 61.7976 19.8182 61.6594 19.8767L65.0215 24.6141L69.2691 22.4891C69.1895 22.3368 69.1262 22.1775 69.0794 22.0111C69.0231 21.8096 68.9927 21.5988 68.9927 21.3856C68.9927 21.2895 68.9974 21.1934 69.0067 21.0997C69.1426 19.8955 70.1594 18.9818 71.3707 18.9747C72.6921 18.9654 73.7745 20.0337 73.7816 21.3551C73.7909 22.6156 72.8116 23.6746 71.5535 23.7613L71.4035 23.7659C71.1598 23.7659 70.9209 23.7331 70.6889 23.6629C70.539 23.616 70.3937 23.5574 70.2578 23.4825L68.1258 29.6091C67.9313 30.1738 67.3972 30.5533 66.7997 30.558L54.7666 30.6376V30.64Z" fill="#110A1D"/>
<path d="M1.00847 0.191067L60.1257 0.191067C60.6145 0.191067 61.0055 0.587251 61.0055 1.07089C61.0055 1.55453 60.6093 1.95068 60.1257 1.95068L1.00847 1.95068C0.519685 1.95068 0.128662 1.55453 0.128662 1.07089C0.128662 0.587251 0.524831 0.191067 1.00847 0.191067Z" fill="white"/>
<path d="M0.879808 47.4191L59.997 47.4191C60.4858 47.4191 60.8768 47.8152 60.8768 48.2989C60.8768 48.7825 60.4807 49.1787 59.997 49.1787L0.879808 49.1787C0.391023 49.1787 0 48.7825 0 48.2989C0 47.8152 0.396168 47.4191 0.879808 47.4191Z" fill="white"/>
</g>
</svg>
