<svg width="101" height="1096" viewBox="0 0 101 1096" fill="none" xmlns="http://www.w3.org/2000/svg">
<g opacity="0.4">
<path d="M49.5529 1095.22C36.8544 1095.22 24.1663 1090.39 14.4966 1080.72C-4.83221 1061.39 -4.83221 1029.95 14.4966 1010.62C23.8644 1001.25 36.3131 996.099 49.5529 996.099C62.7927 996.099 75.2414 1001.25 84.6092 1010.62C103.938 1029.95 103.938 1061.39 84.6092 1080.72C74.95 1090.38 62.2514 1095.22 49.5529 1095.22ZM17.0988 1078.12C34.9912 1096.01 64.1042 1096.01 81.9966 1078.12C99.8891 1060.23 99.8891 1031.11 81.9966 1013.22C73.3262 1004.55 61.8039 999.783 49.5425 999.783C37.2811 999.783 25.7588 1004.56 17.0884 1013.22C-0.804078 1031.11 -0.804078 1060.23 17.0884 1078.12H17.0988Z" fill="#9DADF2"/>
<path d="M48.8972 1064.21C49.0742 1064.64 49.4905 1064.89 49.9277 1064.89C50.0734 1064.89 50.2192 1064.86 50.3649 1064.81C53.8622 1063.34 57.0472 1061.07 59.5661 1058.24C59.972 1057.78 59.9304 1057.07 59.4724 1056.67C59.0145 1056.26 58.3067 1056.3 57.9007 1056.76C55.6004 1059.35 52.6964 1061.42 49.501 1062.76C48.9389 1062.99 48.6683 1063.65 48.9077 1064.21H48.8972Z" fill="#9DADF2"/>
<path d="M68.4432 1028.53L49.9574 1021.14C49.6868 1021.04 49.3954 1021.04 49.1247 1021.14L30.639 1028.53C30.2122 1028.7 29.9416 1029.1 29.9416 1029.56V1042.8C29.9624 1055.02 37.6856 1066.07 49.1559 1070.27C49.2808 1070.31 49.4057 1070.33 49.541 1070.33C49.6764 1070.33 49.8012 1070.31 49.9262 1070.27C61.3965 1066.06 69.1197 1055.02 69.1405 1042.8V1029.56C69.1405 1029.1 68.8699 1028.7 68.4432 1028.53ZM66.9131 1042.8C66.8922 1053.92 59.9185 1064.05 49.5515 1068.03C39.1845 1064.05 32.2003 1053.92 32.1794 1042.8V1030.32L49.5515 1023.38L66.9131 1030.32V1042.8Z" fill="#9DADF2"/>
<path d="M41.8288 1030.27C41.5581 1030.16 41.2563 1030.16 40.9753 1030.27L36.5724 1032.03C36.1457 1032.2 35.875 1032.6 35.875 1033.06V1037.75C35.875 1038.37 36.3746 1038.87 36.9887 1038.87C37.6028 1038.87 38.1025 1038.37 38.1025 1037.75V1033.82L41.7975 1032.34C42.0785 1032.23 42.2867 1032.02 42.4117 1031.74C42.5261 1031.47 42.5261 1031.17 42.4117 1030.88C42.2972 1030.6 42.089 1030.39 41.8184 1030.27H41.8288Z" fill="#9DADF2"/>
<path d="M77.6962 1017.52C70.1812 1009.99 60.1785 1005.86 49.5409 1005.86C38.9033 1005.86 28.911 1010 21.3855 1017.52C5.86628 1033.04 5.86628 1058.3 21.3855 1073.83C29.1504 1081.6 39.3404 1085.47 49.5409 1085.47C59.7414 1085.47 69.9314 1081.58 77.6962 1073.83C93.2155 1058.31 93.2155 1033.05 77.6962 1017.52ZM72.1901 1042.8C72.2213 1056.93 63.197 1069.28 49.7387 1073.56C49.6138 1073.6 49.4784 1073.6 49.3431 1073.56C35.8848 1069.28 26.8605 1056.93 26.8917 1042.8V1027.18C26.8917 1026.92 27.0478 1026.68 27.2976 1026.58L49.3015 1017.78C49.3744 1017.75 49.4576 1017.74 49.5409 1017.74C49.6242 1017.74 49.7074 1017.75 49.7803 1017.78L71.7841 1026.59C72.0339 1026.68 72.1901 1026.92 72.1901 1027.19V1042.81V1042.8Z" fill="#9DADF2"/>
<path d="M49.6976 968.609C22.3749 968.609 0.152466 946.376 0.152466 919.064C0.152466 891.752 22.3854 869.519 49.6976 869.519C77.0099 869.519 99.2427 891.752 99.2427 919.064C99.2427 946.376 77.0099 968.609 49.6976 968.609ZM49.6976 872.819C24.1965 872.819 3.45205 893.563 3.45205 919.064C3.45205 944.565 24.1965 965.31 49.6976 965.31C75.1988 965.31 95.9432 944.565 95.9432 919.064C95.9432 893.563 75.1988 872.819 49.6976 872.819Z" fill="white"/>
<path d="M65.7682 888.119C65.5184 888.119 65.2686 888.067 65.0396 887.953C60.2412 885.58 55.0786 884.372 49.6973 884.372C44.316 884.372 39.1534 885.58 34.355 887.953C33.7201 888.265 32.9602 888.14 32.4606 887.641L23.9463 879.126C23.582 878.762 23.4155 878.262 23.4779 877.752C23.5404 877.242 23.8318 876.795 24.269 876.535C31.9402 871.934 40.7355 869.509 49.7077 869.509C58.68 869.509 67.4753 871.944 75.1464 876.535C75.5836 876.795 75.875 877.242 75.9374 877.752C75.9999 878.262 75.823 878.762 75.4691 879.126L66.9548 887.641C66.6321 887.953 66.2158 888.119 65.7786 888.119H65.7682ZM49.6973 881.073C55.1826 881.073 60.4702 882.218 65.4247 884.476L71.5866 878.315C64.8835 874.703 57.3581 872.808 49.6973 872.808C42.0365 872.808 34.5111 874.703 27.8079 878.315L33.9699 884.476C38.9244 882.218 44.2119 881.073 49.6973 881.073Z" fill="white"/>
<path d="M49.6955 968.609C40.7233 968.609 31.928 966.174 24.2568 961.584C23.8196 961.323 23.5282 960.876 23.4657 960.366C23.4033 959.856 23.5802 959.356 23.9341 958.992L32.4484 950.478C32.948 949.978 33.7182 949.853 34.3428 950.165C39.1411 952.539 44.3038 953.746 49.6851 953.746C55.0664 953.746 60.229 952.539 65.0274 950.165C65.6623 949.853 66.4222 949.978 66.9218 950.478L75.436 958.992C75.8003 959.356 75.9669 959.856 75.9044 960.366C75.842 960.876 75.5505 961.323 75.1134 961.584C67.4422 966.184 58.6469 968.609 49.6747 968.609H49.6955ZM27.8061 959.804C34.5093 963.416 42.0347 965.31 49.6955 965.31C57.3563 965.31 64.8817 963.416 71.5848 959.804L65.4229 953.642C60.4684 955.901 55.1809 957.045 49.6955 957.045C44.2102 957.045 38.9226 955.901 33.9681 953.642L27.8061 959.804Z" fill="white"/>
<path d="M90.8034 945.294C90.3662 945.294 89.9499 945.127 89.6376 944.815L81.1234 936.301C80.6237 935.801 80.4989 935.031 80.8111 934.407C83.1843 929.608 84.3916 924.446 84.3916 919.064C84.3916 913.683 83.1843 908.52 80.8111 903.722C80.4989 903.087 80.6237 902.317 81.1234 901.828L89.6376 893.313C90.0019 892.949 90.5015 892.782 91.0116 892.845C91.5216 892.907 91.9691 893.199 92.2294 893.636C96.83 901.307 99.2552 910.102 99.2552 919.075C99.2552 928.047 96.83 936.842 92.2294 944.513C91.9691 944.951 91.5216 945.242 91.0116 945.304C90.9387 945.304 90.8762 945.304 90.8034 945.304V945.294ZM84.2771 934.781L90.4391 940.943C94.0509 934.24 95.9452 926.715 95.9452 919.054C95.9452 911.393 94.0509 903.868 90.4391 897.164L84.2771 903.326C86.5358 908.281 87.6808 913.568 87.6808 919.054C87.6808 924.539 86.5358 929.827 84.2771 934.781Z" fill="white"/>
<path d="M8.59416 945.294C8.5213 945.294 8.45885 945.294 8.3964 945.284C7.88637 945.221 7.43876 944.93 7.17854 944.493C2.57792 936.821 0.15271 928.026 0.15271 919.054C0.15271 910.082 2.57792 901.286 7.17854 893.615C7.43876 893.178 7.88637 892.887 8.3964 892.824C8.90642 892.762 9.40604 892.939 9.77034 893.292L18.2846 901.807C18.7842 902.306 18.9091 903.077 18.5968 903.701C16.2237 908.499 15.0163 913.662 15.0163 919.043C15.0163 924.425 16.2237 929.587 18.5968 934.386C18.9091 935.021 18.7842 935.791 18.2846 936.28L9.77034 944.794C9.45808 945.107 9.04168 945.284 8.60452 945.284L8.59416 945.294ZM8.95844 897.165C5.34664 903.868 3.45229 911.393 3.45229 919.054C3.45229 926.715 5.34664 934.24 8.95844 940.943L15.1203 934.781C12.8617 929.827 11.7168 924.539 11.7168 919.054C11.7168 913.568 12.8617 908.281 15.1203 903.326L8.95844 897.165Z" fill="white"/>
<path d="M49.6987 881.073C28.7565 881.073 11.7072 898.112 11.7072 919.064C11.7072 940.017 28.7461 957.056 49.6987 957.056C70.6513 957.056 87.6902 940.017 87.6902 919.064C87.6902 898.112 70.6513 881.073 49.6987 881.073ZM71.078 906.584C72.8787 909.665 73.9716 913.027 74.3255 916.597C74.3359 916.743 74.2734 916.878 74.1485 916.951C71.4319 918.617 68.9962 920.657 66.8937 923.04C66.8 923.155 66.6439 923.197 66.5086 923.145L61.8143 921.614C61.679 921.573 61.5853 921.458 61.5645 921.313C61.0336 917.43 59.8263 913.714 57.9735 910.259C57.9111 910.134 57.9215 909.988 58.0047 909.873L60.9087 905.877C60.9816 905.783 61.0961 905.72 61.2106 905.72C61.2418 905.72 61.2627 905.72 61.2939 905.72C64.3957 906.407 67.5807 906.636 70.7449 906.376C70.8906 906.366 71.026 906.439 71.0988 906.563L71.078 906.584ZM59.004 921.968C59.0144 922.072 58.9832 922.176 58.9207 922.249C56.4539 925.091 53.3105 927.37 49.8444 928.828C49.7507 928.869 49.657 928.869 49.5634 928.828C46.0973 927.36 42.9538 925.08 40.487 922.249C40.4245 922.176 40.3934 922.072 40.4038 921.968C40.8826 918.2 42.0587 914.599 43.8802 911.268C43.9323 911.175 44.0156 911.112 44.1197 911.091C45.9516 910.706 47.8251 910.508 49.7091 910.508C51.5931 910.508 53.4666 910.706 55.2985 911.091C55.4026 911.112 55.4859 911.175 55.5379 911.268C57.3594 914.599 58.5252 918.2 59.0144 921.968H59.004ZM58.4419 896.134C58.4419 896.134 58.5668 896.03 58.6917 896.03C58.7334 896.03 58.7854 896.03 58.8374 896.061C62.6678 897.581 66.0923 900.079 68.7569 903.274C68.8922 903.431 68.8401 903.597 68.8089 903.66C68.7881 903.712 68.6944 903.878 68.4758 903.878C66.1131 903.909 63.7607 903.639 61.4813 903.097C61.3876 903.077 61.3043 903.014 61.2522 902.931C60.0344 900.922 59.056 898.757 58.3482 896.509C58.2858 896.311 58.4003 896.176 58.4523 896.134H58.4419ZM44.4423 894.885C47.8876 894.146 51.5202 894.146 54.9654 894.885C55.1008 894.916 55.2152 895.02 55.2464 895.156C55.9854 898.247 57.1825 901.203 58.7958 903.941C58.8687 904.065 58.8582 904.222 58.775 904.347L55.8918 908.323C55.8086 908.437 55.6628 908.5 55.5275 908.468C51.7179 907.698 47.6898 907.698 43.8802 908.468C43.7449 908.5 43.5992 908.437 43.5159 908.323L40.6327 904.347C40.5495 904.232 40.539 904.065 40.6119 903.941C42.2252 901.203 43.4223 898.247 44.1613 895.156C44.1925 895.02 44.307 894.916 44.4423 894.885ZM30.6509 903.274C33.3155 900.069 36.7399 897.57 40.5703 896.061C40.6223 896.04 40.6744 896.03 40.716 896.03C40.8513 896.03 40.9346 896.103 40.9658 896.134C41.0179 896.186 41.1323 896.311 41.0699 896.509C40.3621 898.767 39.3837 900.922 38.1659 902.931C38.1138 903.014 38.0306 903.077 37.9369 903.097C35.6574 903.639 33.3051 903.909 30.9423 903.878C30.7237 903.878 30.63 903.712 30.6092 903.66C30.578 903.597 30.5259 903.431 30.6612 903.274H30.6509ZM28.3297 906.584C28.3922 906.47 28.5171 906.397 28.6524 906.397C28.6524 906.397 28.6732 906.397 28.6836 906.397C31.8583 906.647 35.0433 906.428 38.1347 905.741C38.2804 905.71 38.4261 905.762 38.5094 905.887L41.4134 909.884C41.4966 909.998 41.5071 910.155 41.4446 910.269C39.5919 913.725 38.3845 917.441 37.8536 921.323C37.8328 921.458 37.7392 921.573 37.6038 921.625L32.9095 923.155C32.7742 923.196 32.6181 923.155 32.5244 923.051C30.4219 920.667 27.9862 918.627 25.2696 916.962C25.1551 916.889 25.0822 916.754 25.0926 916.608C25.4465 913.038 26.5394 909.665 28.3401 906.595L28.3297 906.584ZM29.4643 932.231C29.4018 932.429 29.2249 932.471 29.152 932.481C29.0792 932.481 28.9126 932.481 28.7981 932.315C26.5811 928.828 25.2696 924.789 25.0094 920.646C24.9989 920.438 25.1343 920.334 25.1967 920.303C25.2592 920.272 25.4257 920.199 25.5922 920.324C27.5178 921.687 29.2665 923.29 30.7966 925.07C30.859 925.143 30.8903 925.237 30.8798 925.341C30.6925 927.683 30.2137 930.004 29.4539 932.242L29.4643 932.231ZM39.748 941.734C36.5005 940.308 33.6381 938.216 31.2441 935.531C31.1504 935.427 31.1193 935.271 31.1713 935.146C32.3891 932.21 33.1593 929.119 33.4612 925.955C33.4716 925.809 33.5757 925.684 33.711 925.643L38.3532 924.133C38.3532 924.133 38.4261 924.112 38.4677 924.112C38.5718 924.112 38.6655 924.154 38.7383 924.237C41.3405 927.152 44.5984 929.525 48.1686 931.097C48.3039 931.159 48.3872 931.284 48.3872 931.43V936.311C48.3872 936.457 48.3039 936.592 48.1686 936.644C45.2542 937.904 42.5479 939.601 40.1227 941.672C40.0186 941.766 39.8625 941.786 39.7376 941.724L39.748 941.734ZM56.1208 942.765C56.1104 942.838 56.0583 943.004 55.8501 943.056C51.8324 944.076 47.5857 944.076 43.568 943.056C43.3702 943.004 43.3077 942.838 43.2973 942.765C43.2869 942.692 43.2661 942.525 43.4431 942.39C45.3374 940.985 47.3984 939.809 49.5738 938.903C49.6675 938.861 49.7611 938.861 49.8548 938.903C52.0198 939.809 54.0807 940.985 55.9855 942.39C56.152 942.515 56.1416 942.692 56.1312 942.765H56.1208ZM68.1844 935.541C65.7904 938.227 62.928 940.308 59.6805 941.734C59.5452 941.797 59.3995 941.766 59.2954 941.682C56.8702 939.611 54.1744 937.914 51.2495 936.655C51.1142 936.592 51.0309 936.468 51.0309 936.322V931.44C51.0309 931.294 51.1142 931.159 51.2495 931.107C54.8197 929.535 58.088 927.162 60.6798 924.248C60.7526 924.165 60.8463 924.123 60.9504 924.123C60.992 924.123 61.0232 924.123 61.0649 924.144L65.7072 925.653C65.8425 925.695 65.9465 925.819 65.957 925.965C66.2588 929.129 67.0291 932.21 68.2469 935.156C68.2989 935.281 68.2781 935.437 68.174 935.541H68.1844ZM70.62 932.325C70.5055 932.502 70.3286 932.502 70.2661 932.491C70.1933 932.491 70.0267 932.439 69.9538 932.242C69.2044 930.004 68.7256 927.683 68.5279 925.341C68.5279 925.247 68.5487 925.143 68.6111 925.07C70.1412 923.29 71.8899 921.698 73.8155 920.324C73.8883 920.272 73.9612 920.251 74.0236 920.251C74.1069 920.251 74.1694 920.282 74.211 920.303C74.2734 920.334 74.4192 920.438 74.3983 920.646C74.1381 924.789 72.8266 928.828 70.6096 932.315L70.62 932.325Z" fill="white"/>
<path d="M49.5529 845.152C36.8544 845.152 24.1663 840.323 14.4966 830.653C-4.83221 811.324 -4.83221 779.88 14.4966 760.551C23.8644 751.183 36.3131 746.031 49.5529 746.031C62.7927 746.031 75.2414 751.183 84.6092 760.551C103.938 779.88 103.938 811.324 84.6092 830.653C74.95 840.312 62.2514 845.152 49.5529 845.152ZM17.0988 828.051C34.9912 845.943 64.1042 845.943 81.9966 828.051C99.8891 810.159 99.8891 781.046 81.9966 763.153C73.3262 754.483 61.8039 749.716 49.5425 749.716C37.2811 749.716 25.7588 754.493 17.0884 763.153C-0.804078 781.046 -0.804078 810.159 17.0884 828.051H17.0988Z" fill="#9DADF2"/>
<path d="M48.8972 814.156C49.0742 814.582 49.4905 814.832 49.9277 814.832C50.0734 814.832 50.2192 814.801 50.3649 814.749C53.8622 813.281 57.0472 811.012 59.5661 808.181C59.972 807.723 59.9304 807.015 59.4724 806.609C59.0145 806.203 58.3067 806.245 57.9007 806.703C55.6004 809.295 52.6964 811.366 49.501 812.698C48.9389 812.938 48.6683 813.594 48.9077 814.156H48.8972Z" fill="#9DADF2"/>
<path d="M68.4432 778.464L49.9574 771.074C49.6868 770.97 49.3954 770.97 49.1247 771.074L30.639 778.464C30.2122 778.631 29.9416 779.037 29.9416 779.495V792.735C29.9624 804.954 37.6856 815.998 49.1559 820.203C49.2808 820.245 49.4057 820.265 49.541 820.265C49.6764 820.265 49.8012 820.245 49.9262 820.203C61.3965 815.987 69.1197 804.954 69.1405 792.735V779.495C69.1405 779.037 68.8699 778.631 68.4432 778.464ZM66.9131 792.735C66.8922 803.851 59.9185 813.979 49.5515 817.965C39.1845 813.979 32.2003 803.851 32.1794 792.735V780.255L49.5515 773.312L66.9131 780.255V792.735Z" fill="#9DADF2"/>
<path d="M41.8288 780.203C41.5581 780.088 41.2563 780.088 40.9753 780.203L36.5724 781.962C36.1457 782.128 35.875 782.534 35.875 782.992V787.686C35.875 788.3 36.3746 788.8 36.9887 788.8C37.6028 788.8 38.1025 788.3 38.1025 787.686V783.752L41.7975 782.274C42.0785 782.159 42.2867 781.951 42.4117 781.67C42.5261 781.4 42.5261 781.098 42.4117 780.817C42.2972 780.536 42.089 780.327 41.8184 780.203H41.8288Z" fill="#9DADF2"/>
<path d="M77.6962 767.452C70.1812 759.927 60.1785 755.794 49.5409 755.794C38.9033 755.794 28.911 759.937 21.3855 767.452C5.86628 782.971 5.86628 808.233 21.3855 823.763C29.1504 831.528 39.3404 835.4 49.5409 835.4C59.7414 835.4 69.9314 831.517 77.6962 823.763C93.2155 808.244 93.2155 782.982 77.6962 767.452ZM72.1901 792.735C72.2213 806.859 63.197 819.214 49.7387 823.492C49.6138 823.534 49.4784 823.534 49.3431 823.492C35.8848 819.214 26.8605 806.859 26.8917 792.735V777.111C26.8917 776.851 27.0478 776.612 27.2976 776.508L49.3015 767.712C49.3744 767.681 49.4576 767.671 49.5409 767.671C49.6242 767.671 49.7074 767.681 49.7803 767.712L71.7841 776.518C72.0339 776.612 72.1901 776.851 72.1901 777.122V792.745V792.735Z" fill="#9DADF2"/>
<path d="M49.967 722.841C22.6444 722.841 0.421875 700.608 0.421875 673.296C0.421875 645.983 22.6548 623.75 49.967 623.75C77.2793 623.75 99.5121 645.983 99.5121 673.296C99.5121 700.608 77.2793 722.841 49.967 722.841ZM49.967 627.05C24.4659 627.05 3.72139 647.794 3.72139 673.296C3.72139 698.797 24.4659 719.541 49.967 719.541C75.4682 719.541 96.2126 698.797 96.2126 673.296C96.2126 647.794 75.4682 627.05 49.967 627.05Z" fill="#478BF9"/>
<path d="M82.2877 637.949L66.9494 653.287L69.9671 656.305L85.3053 640.966L82.2877 637.949Z" fill="#478BF9"/>
<path d="M29.4945 690.741L14.1563 706.079L17.1739 709.096L32.5121 693.758L29.4945 690.741Z" fill="#478BF9"/>
<path d="M70.4319 690.756L67.4143 693.773L82.7525 709.111L85.7701 706.094L70.4319 690.756Z" fill="#478BF9"/>
<path d="M17.1701 637.487L14.1525 640.505L29.4835 655.836L32.5011 652.818L17.1701 637.487Z" fill="#478BF9"/>
<path d="M62.0511 674.628C63.0503 673.629 63.0503 672.015 62.0511 671.026L59.9277 668.913C58.9285 667.914 57.3152 667.914 56.3264 668.913L55.1814 670.058L53.8595 668.736C52.8603 667.737 51.2469 667.737 50.2581 668.736L49.1132 669.892L47.7913 668.559C46.792 667.56 45.1787 667.56 44.1899 668.559L37.164 675.585C37.112 675.637 37.112 675.721 37.164 675.783C38.1008 676.72 39.6309 676.72 40.5781 675.783L45.1058 671.255C45.595 670.766 46.3861 670.766 46.8753 671.255L47.2084 671.588C47.2708 671.651 47.2708 671.745 47.2084 671.807L43.4301 675.585C43.378 675.637 43.378 675.721 43.4301 675.783C44.3668 676.72 45.8969 676.72 46.8441 675.783L51.1845 671.443C51.6737 670.953 52.4648 670.953 52.954 671.443L53.2871 671.776C53.3391 671.828 53.3391 671.911 53.2871 671.974L49.644 675.617C49.592 675.669 49.592 675.752 49.644 675.814C50.5808 676.751 52.1109 676.751 53.058 675.814L57.2527 671.62C57.742 671.13 58.533 671.13 59.0222 671.62L59.7404 672.338C60.0214 672.619 60.0214 673.087 59.7404 673.368L59.6259 673.483C59.3449 673.764 58.8765 673.764 58.5954 673.483L57.6691 672.556C57.617 672.504 57.5337 672.504 57.4713 672.556L55.8684 674.159C55.8163 674.211 55.8163 674.295 55.8684 674.357L57.3152 675.804C58.3144 676.803 59.9277 676.803 60.9165 675.804L62.0615 674.659L62.0511 674.628Z" fill="#478BF9"/>
<path d="M49.9681 635.304C28.9843 635.304 11.9766 652.312 11.9766 673.295C11.9766 694.279 28.9843 711.287 49.9681 711.287C70.9519 711.287 87.9596 694.279 87.9596 673.295C87.9596 652.312 70.9519 635.304 49.9681 635.304ZM51.519 647.035C57.6184 647.388 63.1558 649.824 67.4442 653.634L61.9588 659.119C59.0964 656.694 55.4846 655.122 51.519 654.789V647.035ZM48.4276 647.035V654.789C44.4619 655.112 40.8501 656.694 37.9877 659.119L32.5024 653.634C36.7907 649.824 42.3281 647.388 48.4276 647.035ZM30.3166 655.819L35.8019 661.305C33.3767 664.167 31.805 667.779 31.4719 671.745H23.7175C24.0714 665.645 26.507 660.108 30.3166 655.819ZM23.7175 674.836H31.4719C31.7946 678.802 33.3767 682.413 35.8019 685.276L30.3166 690.761C26.507 686.473 24.0714 680.935 23.7175 674.836ZM48.4276 699.546C42.3281 699.192 36.7907 696.757 32.5024 692.947L37.9877 687.462C40.8501 689.887 44.4619 691.459 48.4276 691.792V699.546ZM34.0012 673.285C34.0012 664.469 41.152 657.318 49.9681 657.318C58.7842 657.318 65.9349 664.469 65.9349 673.285C65.9349 682.101 58.7842 689.252 49.9681 689.252C41.152 689.252 34.0012 682.101 34.0012 673.285ZM51.519 699.546V691.792C55.4846 691.469 59.0964 689.887 61.9588 687.462L67.4442 692.947C63.1558 696.757 57.6184 699.192 51.519 699.546ZM69.6299 690.761L64.1446 685.276C66.5698 682.413 68.1415 678.802 68.4746 674.836H76.229C75.8752 680.935 73.4395 686.473 69.6299 690.761ZM68.4746 671.745C68.1519 667.779 66.5698 664.167 64.1446 661.305L69.6299 655.819C73.4395 660.108 75.8752 665.645 76.229 671.745H68.4746Z" fill="#478BF9"/>
<path d="M15.0626 578.48C-4.42712 558.99 -4.42712 527.281 15.0626 507.792C34.5523 488.302 66.261 488.302 85.7507 507.792C105.24 527.281 105.24 558.99 85.7507 578.48C66.261 597.97 34.5523 597.97 15.0626 578.48ZM83.3951 510.147C65.2041 491.956 35.6093 491.956 17.423 510.147C-0.768065 528.338 -0.768065 557.933 17.423 576.119C35.614 594.31 65.2088 594.31 83.3951 576.119C101.586 557.928 101.586 528.334 83.3951 510.147Z" fill="white"/>
<path d="M83.9344 532.533C83.7591 532.358 83.6169 532.135 83.5363 531.888C81.8063 526.769 78.9814 522.234 75.1422 518.394C71.3078 514.56 66.7672 511.735 61.6483 510C60.9705 509.768 60.5155 509.138 60.5155 508.422V496.274C60.5155 495.762 60.7524 495.279 61.1553 494.961C61.5629 494.644 62.089 494.535 62.582 494.658C71.3315 496.848 79.3416 501.388 85.7402 507.792C92.1388 514.195 96.6795 522.2 98.8693 530.95C98.9925 531.448 98.8788 531.974 98.5659 532.381C98.2484 532.789 97.7649 533.021 97.253 533.021H85.1051C84.6501 533.021 84.233 532.836 83.9249 532.528L83.9344 532.533ZM77.4978 516.039C81.4129 519.954 84.3657 524.542 86.2901 529.689H95.0775C92.8688 522.333 88.8542 515.612 83.3893 510.147C77.9244 504.682 71.2035 500.668 63.8522 498.464V507.251C68.9996 509.171 73.5876 512.124 77.5026 516.043L77.4978 516.039Z" fill="white"/>
<path d="M15.0613 578.48C8.66264 572.081 4.11724 564.071 1.92749 555.321C1.80425 554.824 1.91801 554.298 2.23084 553.895C2.5484 553.487 3.03183 553.255 3.54372 553.255H15.6916C16.4073 553.255 17.0424 553.71 17.27 554.388C19 559.507 21.8248 564.043 25.664 567.882C29.4984 571.716 34.0391 574.541 39.158 576.276C39.8358 576.503 40.2907 577.138 40.2907 577.854V590.002C40.2907 590.514 40.0538 590.997 39.6509 591.315C39.2433 591.632 38.7172 591.741 38.2195 591.618C29.47 589.428 21.4646 584.888 15.0613 578.489V578.48ZM5.72875 556.582C7.93746 563.938 11.952 570.659 17.4169 576.124C22.8818 581.589 29.6027 585.603 36.9588 587.812V579.025C31.8114 577.105 27.2234 574.152 23.3084 570.237C19.3933 566.322 16.4405 561.734 14.5162 556.587H5.72875V556.582Z" fill="white"/>
<path d="M61.0115 591.173C60.6987 590.86 60.5233 590.438 60.5233 589.993V577.845C60.5233 577.129 60.9783 576.494 61.6561 576.266C66.775 574.536 71.3109 571.712 75.15 567.872C78.9892 564.033 81.8093 559.497 83.5441 554.378C83.7716 553.701 84.4067 553.246 85.1224 553.246H97.2703C97.7822 553.246 98.2657 553.483 98.5832 553.885C98.9008 554.288 99.0098 554.819 98.8866 555.312C96.6921 564.062 92.1514 572.067 85.7528 578.47C79.3542 584.874 71.344 589.414 62.5945 591.604C62.0969 591.727 61.5707 591.614 61.1679 591.301C61.1157 591.253 61.0636 591.211 61.0162 591.163L61.0115 591.173ZM63.8553 579.02V587.808C71.2113 585.599 77.9323 581.584 83.3972 576.119C88.862 570.655 92.8719 563.934 95.0853 556.578H86.2979C84.3783 561.725 81.4254 566.308 77.5057 570.228C73.5907 574.143 69.0026 577.101 63.8553 579.02Z" fill="white"/>
<path d="M2.36428 532.533C2.31688 532.486 2.2695 532.433 2.23158 532.381C1.91402 531.978 1.805 531.448 1.92823 530.95C4.11798 522.2 8.65864 514.19 15.062 507.792C21.4654 501.393 29.4707 496.848 38.2202 494.658C38.7179 494.535 39.244 494.648 39.6469 494.961C40.0498 495.279 40.2868 495.762 40.2868 496.274V508.422C40.2868 509.138 39.8318 509.773 39.154 510C34.0351 511.73 29.4991 514.555 25.66 518.394C21.8255 522.229 19.0007 526.769 17.266 531.888C17.0384 532.566 16.4033 533.021 15.6876 533.021H3.53975C3.09421 533.021 2.66761 532.846 2.35953 532.538L2.36428 532.533ZM36.9548 498.464C29.5987 500.673 22.8778 504.687 17.4129 510.152C11.948 515.617 7.9382 522.338 5.72475 529.694H14.5122C16.4318 524.547 19.3846 519.963 23.3044 516.043C27.2194 512.128 31.8074 509.176 36.9548 507.251V498.464Z" fill="white"/>
<path d="M77.502 516.039C62.5624 501.099 38.2476 501.094 23.308 516.039C8.3637 530.983 8.36844 555.293 23.308 570.233C38.2476 585.172 62.5576 585.177 77.502 570.233C92.4463 555.288 92.4415 530.978 77.502 516.039Z" fill="white"/>
<path d="M64.2248 556.813L36.6972 556.996C35.5376 557.004 34.6037 557.95 34.6114 559.109L34.6179 560.091C34.6256 561.25 35.5719 562.184 36.7315 562.176L64.2592 561.994C65.4188 561.986 66.3526 561.04 66.3449 559.88L66.3384 558.899C66.3307 557.739 65.3844 556.806 64.2248 556.813Z" fill="#110A1D"/>
<path d="M40.4476 540.197C40.149 540.197 39.8457 540.131 39.5708 539.998L37.4237 538.96C36.49 538.505 36.0634 537.401 36.452 536.439L37.4379 533.984C37.7413 533.235 38.457 532.746 39.2627 532.742C39.6087 532.742 39.95 532.827 40.2533 533.002L42.8128 534.462C43.2915 534.732 43.6375 535.202 43.7607 535.742C43.8839 536.282 43.7749 536.851 43.4621 537.306L42.0592 539.339C41.6942 539.87 41.0875 540.193 40.4429 540.193L40.4476 540.197Z" fill="#110A1D"/>
<path d="M60.2625 540.065C59.6179 540.065 59.0065 539.756 58.6368 539.23L57.248 537.273C56.9257 536.823 56.812 536.254 56.9258 535.713C57.0395 535.173 57.3808 534.699 57.8595 534.42L60.4995 532.87C60.7981 532.694 61.1394 532.6 61.4854 532.595C62.2911 532.59 63.0163 533.069 63.3291 533.813L64.3245 536.197C64.7226 537.154 64.3103 538.268 63.386 538.733L61.1394 539.856C60.8692 539.989 60.5658 540.065 60.2672 540.065H60.2625Z" fill="#110A1D"/>
<path d="M38.2851 555.156C37.0764 555.165 35.9911 554.407 35.5787 553.269L30.986 540.628C30.6921 540.771 30.3792 540.88 30.0617 540.96C29.6872 541.055 29.308 541.102 28.9241 541.102C28.7014 541.102 28.4833 541.093 28.27 541.064C25.8765 540.761 24.0612 538.709 24.047 536.292C24.028 533.618 26.1893 531.429 28.8625 531.41C31.5357 531.391 33.7255 533.552 33.7397 536.225C33.7397 536.841 33.6354 537.434 33.4174 537.988C33.2989 538.292 33.152 538.581 32.9814 538.856L41.7166 543.084L48.3997 533.4C48.12 533.282 47.8498 533.135 47.5939 532.96C47.1104 532.633 46.6886 532.225 46.3473 531.746C45.7691 530.931 45.4563 529.969 45.4515 528.973C45.4326 526.3 47.5939 524.111 50.2671 524.092C50.3856 524.092 50.5088 524.092 50.6273 524.101C53.0209 524.262 54.9547 526.182 55.1301 528.575C55.2106 529.708 54.9121 530.794 54.2674 531.718C53.9262 532.201 53.509 532.614 53.0303 532.941C52.7791 533.116 52.509 533.263 52.2293 533.381L59.0308 542.965L67.6239 538.666C67.4628 538.358 67.3349 538.036 67.2401 537.699C67.1263 537.292 67.0647 536.865 67.0647 536.434C67.0647 536.239 67.0741 536.045 67.0931 535.856C67.368 533.419 69.425 531.571 71.8755 531.557C74.5487 531.538 76.7384 533.699 76.7526 536.372C76.7716 538.922 74.7904 541.064 72.2452 541.24L71.9418 541.249C71.4489 541.249 70.9655 541.183 70.4962 541.041C70.1929 540.946 69.899 540.827 69.6241 540.676L65.311 553.07C64.9176 554.212 63.8369 554.98 62.6283 554.99L38.2851 555.151V555.156Z" fill="#110A1D"/>
<path d="M49.5529 472C36.8544 472 24.1663 467.17 14.4966 457.501C-4.83221 438.172 -4.83221 406.727 14.4966 387.398C23.8644 378.031 36.3131 372.878 49.5529 372.878C62.7927 372.878 75.2414 378.031 84.6092 387.398C103.938 406.727 103.938 438.172 84.6092 457.501C74.95 467.16 62.2514 472 49.5529 472ZM17.0988 454.899C34.9912 472.791 64.1042 472.791 81.9966 454.899C99.8891 437.006 99.8891 407.893 81.9966 390.001C73.3262 381.33 61.8039 376.563 49.5425 376.563C37.2811 376.563 25.7588 381.341 17.0884 390.001C-0.804078 407.893 -0.804078 437.006 17.0884 454.899H17.0988Z" fill="#9DADF2"/>
<path d="M48.8972 440.992C49.0742 441.419 49.4905 441.669 49.9277 441.669C50.0734 441.669 50.2192 441.638 50.3649 441.586C53.8622 440.118 57.0472 437.849 59.5661 435.018C59.972 434.56 59.9304 433.852 59.4724 433.446C59.0145 433.04 58.3067 433.082 57.9007 433.54C55.6004 436.132 52.6964 438.203 49.501 439.535C48.9389 439.775 48.6683 440.43 48.9077 440.992H48.8972Z" fill="#9DADF2"/>
<path d="M68.4432 405.312L49.9574 397.922C49.6868 397.817 49.3954 397.817 49.1247 397.922L30.639 405.312C30.2122 405.478 29.9416 405.884 29.9416 406.342V419.582C29.9624 431.802 37.6856 442.845 49.1559 447.05C49.2808 447.092 49.4057 447.113 49.541 447.113C49.6764 447.113 49.8012 447.092 49.9262 447.05C61.3965 442.835 69.1197 431.802 69.1405 419.582V406.342C69.1405 405.884 68.8699 405.478 68.4432 405.312ZM66.9131 419.582C66.8922 430.698 59.9185 440.826 49.5515 444.812C39.1845 440.826 32.2003 430.698 32.1794 419.582V407.102L49.5515 400.159L66.9131 407.102V419.582Z" fill="#9DADF2"/>
<path d="M41.8288 407.05C41.5581 406.935 41.2563 406.935 40.9753 407.05L36.5724 408.809C36.1457 408.975 35.875 409.381 35.875 409.839V414.534C35.875 415.148 36.3746 415.647 36.9887 415.647C37.6028 415.647 38.1025 415.148 38.1025 414.534V410.599L41.7975 409.121C42.0785 409.007 42.2867 408.798 42.4117 408.517C42.5261 408.247 42.5261 407.945 42.4117 407.664C42.2972 407.383 42.089 407.175 41.8184 407.05H41.8288Z" fill="#9DADF2"/>
<path d="M77.6962 394.299C70.1812 386.774 60.1785 382.642 49.5409 382.642C38.9033 382.642 28.911 386.784 21.3855 394.299C5.86628 409.819 5.86628 435.08 21.3855 450.61C29.1504 458.375 39.3404 462.247 49.5409 462.247C59.7414 462.247 69.9314 458.364 77.6962 450.61C93.2155 435.091 93.2155 409.829 77.6962 394.299ZM72.1901 419.582C72.2213 433.706 63.197 446.061 49.7387 450.339C49.6138 450.381 49.4784 450.381 49.3431 450.339C35.8848 446.061 26.8605 433.706 26.8917 419.582V403.958C26.8917 403.698 27.0478 403.459 27.2976 403.355L49.3015 394.56C49.3744 394.528 49.4576 394.518 49.5409 394.518C49.6242 394.518 49.7074 394.528 49.7803 394.56L71.7841 403.365C72.0339 403.459 72.1901 403.698 72.1901 403.969V419.592V419.582Z" fill="#9DADF2"/>
<path d="M49.6976 345.389C22.3749 345.389 0.152466 323.156 0.152466 295.844C0.152466 268.532 22.3854 246.299 49.6976 246.299C77.0099 246.299 99.2427 268.532 99.2427 295.844C99.2427 323.156 77.0099 345.389 49.6976 345.389ZM49.6976 249.598C24.1965 249.598 3.45205 270.343 3.45205 295.844C3.45205 321.345 24.1965 342.089 49.6976 342.089C75.1988 342.089 95.9432 321.345 95.9432 295.844C95.9432 270.343 75.1988 249.598 49.6976 249.598Z" fill="white"/>
<path d="M65.7682 264.899C65.5184 264.899 65.2686 264.847 65.0396 264.733C60.2412 262.36 55.0786 261.152 49.6973 261.152C44.316 261.152 39.1534 262.36 34.355 264.733C33.7201 265.045 32.9602 264.92 32.4606 264.42L23.9463 255.906C23.582 255.542 23.4155 255.042 23.4779 254.532C23.5404 254.022 23.8318 253.575 24.269 253.314C31.9402 248.714 40.7355 246.289 49.7077 246.289C58.68 246.289 67.4753 248.724 75.1464 253.314C75.5836 253.575 75.875 254.022 75.9374 254.532C75.9999 255.042 75.823 255.542 75.4691 255.906L66.9548 264.42C66.6321 264.733 66.2158 264.899 65.7786 264.899H65.7682ZM49.6973 257.853C55.1826 257.853 60.4702 258.998 65.4247 261.256L71.5866 255.094C64.8835 251.483 57.3581 249.588 49.6973 249.588C42.0365 249.588 34.5111 251.483 27.8079 255.094L33.9699 261.256C38.9244 258.998 44.2119 257.853 49.6973 257.853Z" fill="white"/>
<path d="M49.6955 345.389C40.7233 345.389 31.928 342.954 24.2568 338.363C23.8196 338.103 23.5282 337.656 23.4657 337.146C23.4033 336.636 23.5802 336.136 23.9341 335.772L32.4484 327.257C32.948 326.758 33.7182 326.633 34.3428 326.945C39.1411 329.318 44.3038 330.526 49.6851 330.526C55.0664 330.526 60.229 329.318 65.0274 326.945C65.6623 326.633 66.4222 326.758 66.9218 327.257L75.436 335.772C75.8003 336.136 75.9669 336.636 75.9044 337.146C75.842 337.656 75.5505 338.103 75.1134 338.363C67.4422 342.964 58.6469 345.389 49.6747 345.389H49.6955ZM27.8061 336.584C34.5093 340.195 42.0347 342.09 49.6955 342.09C57.3563 342.09 64.8817 340.195 71.5848 336.584L65.4229 330.422C60.4684 332.68 55.1809 333.825 49.6955 333.825C44.2102 333.825 38.9226 332.68 33.9681 330.422L27.8061 336.584Z" fill="white"/>
<path d="M90.8034 322.074C90.3662 322.074 89.9499 321.907 89.6376 321.595L81.1234 313.081C80.6237 312.581 80.4989 311.811 80.8111 311.186C83.1843 306.388 84.3916 301.225 84.3916 295.844C84.3916 290.463 83.1843 285.3 80.8111 280.502C80.4989 279.867 80.6237 279.097 81.1234 278.607L89.6376 270.093C90.0019 269.729 90.5015 269.562 91.0116 269.625C91.5216 269.687 91.9691 269.979 92.2294 270.416C96.83 278.087 99.2552 286.882 99.2552 295.854C99.2552 304.827 96.83 313.622 92.2294 321.293C91.9691 321.73 91.5216 322.022 91.0116 322.084C90.9387 322.084 90.8762 322.084 90.8034 322.084V322.074ZM84.2771 311.561L90.4391 317.723C94.0509 311.02 95.9452 303.494 95.9452 295.834C95.9452 288.173 94.0509 280.647 90.4391 273.944L84.2771 280.106C86.5358 285.061 87.6808 290.348 87.6808 295.834C87.6808 301.319 86.5358 306.607 84.2771 311.561Z" fill="white"/>
<path d="M8.59416 322.074C8.5213 322.074 8.45885 322.074 8.3964 322.063C7.88637 322.001 7.43876 321.709 7.17854 321.272C2.57792 313.601 0.15271 304.806 0.15271 295.834C0.15271 286.861 2.57792 278.066 7.17854 270.395C7.43876 269.958 7.88637 269.666 8.3964 269.604C8.90642 269.541 9.40604 269.718 9.77034 270.072L18.2846 278.587C18.7842 279.086 18.9091 279.856 18.5968 280.481C16.2237 285.279 15.0163 290.442 15.0163 295.823C15.0163 301.205 16.2237 306.367 18.5968 311.166C18.9091 311.801 18.7842 312.571 18.2846 313.06L9.77034 321.574C9.45808 321.886 9.04168 322.063 8.60452 322.063L8.59416 322.074ZM8.95844 273.944C5.34664 280.647 3.45229 288.173 3.45229 295.834C3.45229 303.494 5.34664 311.02 8.95844 317.723L15.1203 311.561C12.8617 306.607 11.7168 301.319 11.7168 295.834C11.7168 290.348 12.8617 285.061 15.1203 280.106L8.95844 273.944Z" fill="white"/>
<path d="M49.6987 257.853C28.7565 257.853 11.7072 274.891 11.7072 295.844C11.7072 316.797 28.7461 333.836 49.6987 333.836C70.6513 333.836 87.6902 316.797 87.6902 295.844C87.6902 274.891 70.6513 257.853 49.6987 257.853ZM71.078 283.364C72.8787 286.445 73.9716 289.807 74.3255 293.377C74.3359 293.523 74.2734 293.658 74.1485 293.731C71.4319 295.397 68.9962 297.437 66.8937 299.82C66.8 299.935 66.6439 299.976 66.5086 299.924L61.8143 298.394C61.679 298.353 61.5853 298.238 61.5645 298.092C61.0336 294.21 59.8263 290.494 57.9735 287.038C57.9111 286.913 57.9215 286.768 58.0047 286.653L60.9087 282.656C60.9816 282.563 61.0961 282.5 61.2106 282.5C61.2418 282.5 61.2627 282.5 61.2939 282.5C64.3957 283.187 67.5807 283.416 70.7449 283.156C70.8906 283.146 71.026 283.218 71.0988 283.343L71.078 283.364ZM59.004 298.748C59.0144 298.852 58.9832 298.956 58.9207 299.029C56.4539 301.871 53.3105 304.15 49.8444 305.607C49.7507 305.649 49.657 305.649 49.5634 305.607C46.0973 304.14 42.9538 301.86 40.487 299.029C40.4245 298.956 40.3934 298.852 40.4038 298.748C40.8826 294.98 42.0587 291.379 43.8802 288.048C43.9323 287.954 44.0156 287.892 44.1197 287.871C45.9516 287.486 47.8251 287.288 49.7091 287.288C51.5931 287.288 53.4666 287.486 55.2985 287.871C55.4026 287.892 55.4859 287.954 55.5379 288.048C57.3594 291.379 58.5252 294.98 59.0144 298.748H59.004ZM58.4419 272.914C58.4419 272.914 58.5668 272.81 58.6917 272.81C58.7334 272.81 58.7854 272.81 58.8374 272.841C62.6678 274.361 66.0923 276.859 68.7569 280.054C68.8922 280.21 68.8401 280.377 68.8089 280.439C68.7881 280.491 68.6944 280.658 68.4758 280.658C66.1131 280.689 63.7607 280.418 61.4813 279.877C61.3876 279.856 61.3043 279.794 61.2522 279.711C60.0344 277.702 59.056 275.537 58.3482 273.289C58.2858 273.091 58.4003 272.956 58.4523 272.914H58.4419ZM44.4423 271.665C47.8876 270.926 51.5202 270.926 54.9654 271.665C55.1008 271.696 55.2152 271.8 55.2464 271.935C55.9854 275.027 57.1825 277.983 58.7958 280.72C58.8687 280.845 58.8582 281.001 58.775 281.126L55.8918 285.102C55.8086 285.217 55.6628 285.279 55.5275 285.248C51.7179 284.478 47.6898 284.478 43.8802 285.248C43.7449 285.279 43.5992 285.217 43.5159 285.102L40.6327 281.126C40.5495 281.012 40.539 280.845 40.6119 280.72C42.2252 277.983 43.4223 275.027 44.1613 271.935C44.1925 271.8 44.307 271.696 44.4423 271.665ZM30.6509 280.054C33.3155 276.848 36.7399 274.35 40.5703 272.841C40.6223 272.82 40.6744 272.81 40.716 272.81C40.8513 272.81 40.9346 272.883 40.9658 272.914C41.0179 272.966 41.1323 273.091 41.0699 273.289C40.3621 275.547 39.3837 277.702 38.1659 279.711C38.1138 279.794 38.0306 279.856 37.9369 279.877C35.6574 280.418 33.3051 280.689 30.9423 280.658C30.7237 280.658 30.63 280.491 30.6092 280.439C30.578 280.377 30.5259 280.21 30.6612 280.054H30.6509ZM28.3297 283.364C28.3922 283.25 28.5171 283.177 28.6524 283.177C28.6524 283.177 28.6732 283.177 28.6836 283.177C31.8583 283.427 35.0433 283.208 38.1347 282.521C38.2804 282.49 38.4261 282.542 38.5094 282.667L41.4134 286.664C41.4966 286.778 41.5071 286.934 41.4446 287.049C39.5919 290.504 38.3845 294.22 37.8536 298.103C37.8328 298.238 37.7392 298.353 37.6038 298.405L32.9095 299.935C32.7742 299.976 32.6181 299.935 32.5244 299.831C30.4219 297.447 27.9862 295.407 25.2696 293.742C25.1551 293.669 25.0822 293.533 25.0926 293.388C25.4465 289.817 26.5394 286.445 28.3401 283.375L28.3297 283.364ZM29.4643 309.011C29.4018 309.209 29.2249 309.25 29.152 309.261C29.0792 309.261 28.9126 309.261 28.7981 309.094C26.5811 305.607 25.2696 301.569 25.0094 297.426C24.9989 297.218 25.1343 297.114 25.1967 297.083C25.2592 297.051 25.4257 296.979 25.5922 297.104C27.5178 298.467 29.2665 300.07 30.7966 301.85C30.859 301.923 30.8903 302.016 30.8798 302.12C30.6925 304.462 30.2137 306.784 29.4539 309.021L29.4643 309.011ZM39.748 318.514C36.5005 317.088 33.6381 314.996 31.2441 312.311C31.1504 312.206 31.1193 312.05 31.1713 311.925C32.3891 308.99 33.1593 305.899 33.4612 302.735C33.4716 302.589 33.5757 302.464 33.711 302.422L38.3532 300.913C38.3532 300.913 38.4261 300.892 38.4677 300.892C38.5718 300.892 38.6655 300.934 38.7383 301.017C41.3405 303.932 44.5984 306.305 48.1686 307.876C48.3039 307.939 48.3872 308.064 48.3872 308.21V313.091C48.3872 313.237 48.3039 313.372 48.1686 313.424C45.2542 314.684 42.5479 316.38 40.1227 318.452C40.0186 318.545 39.8625 318.566 39.7376 318.504L39.748 318.514ZM56.1208 319.545C56.1104 319.617 56.0583 319.784 55.8501 319.836C51.8324 320.856 47.5857 320.856 43.568 319.836C43.3702 319.784 43.3077 319.617 43.2973 319.545C43.2869 319.472 43.2661 319.305 43.4431 319.17C45.3374 317.765 47.3984 316.588 49.5738 315.683C49.6675 315.641 49.7611 315.641 49.8548 315.683C52.0198 316.588 54.0807 317.765 55.9855 319.17C56.152 319.295 56.1416 319.472 56.1312 319.545H56.1208ZM68.1844 312.321C65.7904 315.006 62.928 317.088 59.6805 318.514C59.5452 318.577 59.3995 318.545 59.2954 318.462C56.8702 316.391 54.1744 314.694 51.2495 313.435C51.1142 313.372 51.0309 313.247 51.0309 313.102V308.22C51.0309 308.074 51.1142 307.939 51.2495 307.887C54.8197 306.315 58.088 303.942 60.6798 301.028C60.7526 300.944 60.8463 300.903 60.9504 300.903C60.992 300.903 61.0232 300.903 61.0649 300.923L65.7072 302.433C65.8425 302.474 65.9465 302.599 65.957 302.745C66.2588 305.909 67.0291 308.99 68.2469 311.936C68.2989 312.061 68.2781 312.217 68.174 312.321H68.1844ZM70.62 309.105C70.5055 309.282 70.3286 309.282 70.2661 309.271C70.1933 309.271 70.0267 309.219 69.9538 309.021C69.2044 306.784 68.7256 304.462 68.5279 302.12C68.5279 302.027 68.5487 301.923 68.6111 301.85C70.1412 300.07 71.8899 298.477 73.8155 297.104C73.8883 297.051 73.9612 297.031 74.0236 297.031C74.1069 297.031 74.1694 297.062 74.211 297.083C74.2734 297.114 74.4192 297.218 74.3983 297.426C74.1381 301.569 72.8266 305.607 70.6096 309.094L70.62 309.105Z" fill="white"/>
<path d="M49.5529 221.932C36.8544 221.932 24.1663 217.103 14.4966 207.433C-4.83221 188.104 -4.83221 156.66 14.4966 137.331C23.8644 127.963 36.3131 122.811 49.5529 122.811C62.7927 122.811 75.2414 127.963 84.6092 137.331C103.938 156.66 103.938 188.104 84.6092 207.433C74.95 217.092 62.2514 221.932 49.5529 221.932ZM17.0988 204.831C34.9912 222.724 64.1042 222.724 81.9966 204.831C99.8891 186.939 99.8891 157.826 81.9966 139.933C73.3262 131.263 61.8039 126.496 49.5425 126.496C37.2811 126.496 25.7588 131.273 17.0884 139.933C-0.804078 157.826 -0.804078 186.939 17.0884 204.831H17.0988Z" fill="#9DADF2"/>
<path d="M48.8972 190.935C49.0742 191.362 49.4905 191.612 49.9277 191.612C50.0734 191.612 50.2192 191.581 50.3649 191.529C53.8622 190.061 57.0472 187.792 59.5661 184.961C59.972 184.503 59.9304 183.795 59.4724 183.389C59.0145 182.983 58.3067 183.025 57.9007 183.483C55.6004 186.075 52.6964 188.146 49.501 189.478C48.9389 189.718 48.6683 190.373 48.9077 190.935H48.8972Z" fill="#9DADF2"/>
<path d="M68.4432 155.244L49.9574 147.854C49.6868 147.75 49.3954 147.75 49.1247 147.854L30.639 155.244C30.2122 155.411 29.9416 155.817 29.9416 156.275V169.514C29.9624 181.734 37.6856 192.778 49.1559 196.983C49.2808 197.024 49.4057 197.045 49.541 197.045C49.6764 197.045 49.8012 197.024 49.9262 196.983C61.3965 192.767 69.1197 181.734 69.1405 169.514V156.275C69.1405 155.817 68.8699 155.411 68.4432 155.244ZM66.9131 169.514C66.8922 180.631 59.9185 190.758 49.5515 194.745C39.1845 190.758 32.2003 180.631 32.1794 169.514V157.034L49.5515 150.092L66.9131 157.034V169.514Z" fill="#9DADF2"/>
<path d="M41.8288 156.982C41.5581 156.868 41.2563 156.868 40.9753 156.982L36.5724 158.741C36.1457 158.908 35.875 159.314 35.875 159.772V164.466C35.875 165.08 36.3746 165.58 36.9887 165.58C37.6028 165.58 38.1025 165.08 38.1025 164.466V160.532L41.7975 159.054C42.0785 158.939 42.2867 158.731 42.4117 158.45C42.5261 158.179 42.5261 157.877 42.4117 157.596C42.2972 157.315 42.089 157.107 41.8184 156.982H41.8288Z" fill="#9DADF2"/>
<path d="M77.6962 144.232C70.1812 136.706 60.1785 132.574 49.5409 132.574C38.9033 132.574 28.911 136.717 21.3855 144.232C5.86628 159.751 5.86628 185.013 21.3855 200.543C29.1504 208.307 39.3404 212.179 49.5409 212.179C59.7413 212.179 69.9314 208.297 77.6962 200.543C93.2155 185.023 93.2155 159.762 77.6962 144.232ZM72.1901 169.514C72.2213 183.639 63.197 195.994 49.7387 200.272C49.6138 200.314 49.4784 200.314 49.3431 200.272C35.8848 195.994 26.8605 183.639 26.8917 169.514V153.891C26.8917 153.631 27.0478 153.392 27.2976 153.287L49.3015 144.492C49.3744 144.461 49.4576 144.451 49.5409 144.451C49.6242 144.451 49.7074 144.461 49.7803 144.492L71.7841 153.298C72.0339 153.392 72.1901 153.631 72.1901 153.902V169.525V169.514Z" fill="#9DADF2"/>
<path d="M49.967 99.6205C22.6444 99.6205 0.421875 77.3876 0.421875 50.0754C0.421875 22.7631 22.6548 0.530273 49.967 0.530273C77.2793 0.530273 99.5121 22.7631 99.5121 50.0754C99.5121 77.3876 77.2793 99.6205 49.967 99.6205ZM49.967 3.82979C24.4659 3.82979 3.72139 24.5742 3.72139 50.0754C3.72139 75.5765 24.4659 96.3209 49.967 96.3209C75.4682 96.3209 96.2126 75.5765 96.2126 50.0754C96.2126 24.5742 75.4682 3.82979 49.967 3.82979Z" fill="#478BF9"/>
<path d="M82.2877 14.7286L66.9494 30.0669L69.9671 33.0845L85.3053 17.7462L82.2877 14.7286Z" fill="#478BF9"/>
<path d="M29.4945 67.5204L14.1563 82.8586L17.1739 85.8762L32.5121 70.538L29.4945 67.5204Z" fill="#478BF9"/>
<path d="M70.4319 67.5353L67.4143 70.553L82.7525 85.8912L85.7701 82.8736L70.4319 67.5353Z" fill="#478BF9"/>
<path d="M17.1701 14.2668L14.1525 17.2844L29.4835 32.6153L32.5011 29.5978L17.1701 14.2668Z" fill="#478BF9"/>
<path d="M62.0511 51.4075C63.0503 50.4083 63.0503 48.7949 62.0511 47.8061L59.9277 45.6932C58.9285 44.694 57.3152 44.694 56.3264 45.6932L55.1814 46.8381L53.8595 45.5162C52.8603 44.517 51.2469 44.517 50.2581 45.5162L49.1132 46.6716L47.7913 45.3393C46.792 44.34 45.1787 44.34 44.1899 45.3393L37.164 52.3651C37.112 52.4171 37.112 52.5004 37.164 52.5629C38.1008 53.4996 39.6309 53.4996 40.5781 52.5629L45.1058 48.0351C45.595 47.5459 46.3861 47.5459 46.8753 48.0351L47.2084 48.3682C47.2708 48.4306 47.2708 48.5243 47.2084 48.5868L43.4301 52.3651C43.378 52.4171 43.378 52.5004 43.4301 52.5629C44.3668 53.4996 45.8969 53.4996 46.8441 52.5629L51.1845 48.2225C51.6737 47.7333 52.4648 47.7333 52.954 48.2225L53.2871 48.5556C53.3391 48.6076 53.3391 48.6909 53.2871 48.7533L49.644 52.3964C49.592 52.4484 49.592 52.5317 49.644 52.5941C50.5808 53.5309 52.1109 53.5309 53.058 52.5941L57.2527 48.3994C57.742 47.9102 58.533 47.9102 59.0222 48.3994L59.7404 49.1176C60.0214 49.3986 60.0214 49.867 59.7404 50.148L59.6259 50.2625C59.3449 50.5436 58.8765 50.5436 58.5954 50.2625L57.6691 49.3362C57.617 49.2842 57.5337 49.2842 57.4713 49.3362L55.8684 50.9391C55.8163 50.9912 55.8163 51.0744 55.8684 51.1369L57.3152 52.5837C58.3144 53.5829 59.9277 53.5829 60.9165 52.5837L62.0615 51.4387L62.0511 51.4075Z" fill="#478BF9"/>
<path d="M49.9681 12.0837C28.9843 12.0837 11.9766 29.0915 11.9766 50.0753C11.9766 71.0591 28.9843 88.0668 49.9681 88.0668C70.9519 88.0668 87.9596 71.0591 87.9596 50.0753C87.9596 29.0915 70.9519 12.0837 49.9681 12.0837ZM51.519 23.8143C57.6184 24.1682 63.1558 26.6038 67.4442 30.4133L61.9588 35.8987C59.0964 33.4735 55.4846 31.9018 51.519 31.5687V23.8143ZM48.4276 23.8143V31.5687C44.4619 31.8914 40.8501 33.4735 37.9877 35.8987L32.5024 30.4133C36.7907 26.6038 42.3281 24.1682 48.4276 23.8143ZM30.3166 32.5992L35.8019 38.0846C33.3767 40.9469 31.805 44.5587 31.4719 48.5244H23.7175C24.0714 42.4249 26.507 36.8875 30.3166 32.5992ZM23.7175 51.6158H31.4719C31.7946 55.5815 33.3767 59.1932 35.8019 62.0556L30.3166 67.541C26.507 63.2526 24.0714 57.7152 23.7175 51.6158ZM48.4276 76.3259C42.3281 75.972 36.7907 73.5363 32.5024 69.7268L37.9877 64.2414C40.8501 66.6666 44.4619 68.2383 48.4276 68.5714V76.3259ZM34.0012 50.0648C34.0012 41.2487 41.152 34.098 49.9681 34.098C58.7842 34.098 65.9349 41.2487 65.9349 50.0648C65.9349 58.881 58.7842 66.0317 49.9681 66.0317C41.152 66.0317 34.0012 58.881 34.0012 50.0648ZM51.519 76.3259V68.5714C55.4846 68.2488 59.0964 66.6666 61.9588 64.2414L67.4442 69.7268C63.1558 73.5363 57.6184 75.972 51.519 76.3259ZM69.6299 67.541L64.1446 62.0556C66.5698 59.1932 68.1415 55.5815 68.4746 51.6158H76.229C75.8752 57.7152 73.4395 63.2526 69.6299 67.541ZM68.4746 48.5244C68.1519 44.5587 66.5698 40.9469 64.1446 38.0846L69.6299 32.5992C73.4395 36.8875 75.8752 42.4249 76.229 48.5244H68.4746Z" fill="#478BF9"/>
</g>
</svg>
