<svg width="660" height="50" viewBox="0 0 660 50" fill="none" xmlns="http://www.w3.org/2000/svg">
<g opacity="0.2">
<path d="M635.017 49.0637C628.74 49.0637 622.468 46.6764 617.688 41.8966C608.134 32.3421 608.134 16.7988 617.688 7.24432C622.319 2.61373 628.472 0.0668945 635.017 0.0668945C641.562 0.0668945 647.715 2.61373 652.346 7.24432C661.9 16.7988 661.9 32.3421 652.346 41.8966C647.571 46.6713 641.294 49.0637 635.017 49.0637ZM618.975 40.6103C627.819 49.4548 642.21 49.4548 651.054 40.6103C659.899 31.7659 659.899 17.375 651.054 8.53059C646.768 4.24472 641.073 1.88828 635.012 1.88828C628.951 1.88828 623.255 4.24987 618.969 8.53059C610.125 17.375 610.125 31.7659 618.969 40.6103H618.975Z" fill="#9DADF2"/>
<path d="M634.693 33.7363C634.78 33.9473 634.986 34.0707 635.202 34.0707C635.274 34.0707 635.346 34.0553 635.418 34.0296C637.147 33.3041 638.721 32.1825 639.967 30.783C640.167 30.5566 640.147 30.2068 639.92 30.0061C639.694 29.8055 639.344 29.826 639.143 30.0524C638.006 31.3336 636.571 32.3574 634.991 33.016C634.713 33.1344 634.58 33.4585 634.698 33.7363H634.693Z" fill="#9DADF2"/>
<path d="M644.354 16.0989L635.217 12.4458C635.083 12.3944 634.939 12.3944 634.805 12.4458L625.667 16.0989C625.457 16.1812 625.323 16.3818 625.323 16.6082V23.1528C625.333 29.1931 629.151 34.6521 634.821 36.7307C634.882 36.7513 634.944 36.7616 635.011 36.7616C635.078 36.7616 635.14 36.7513 635.201 36.7307C640.871 34.6469 644.689 29.1931 644.699 23.1528V16.6082C644.699 16.3818 644.565 16.1812 644.354 16.0989ZM643.598 23.1528C643.588 28.6477 640.141 33.6539 635.016 35.6245C629.892 33.6539 626.439 28.6477 626.429 23.1528V16.9838L635.016 13.552L643.598 16.9838V23.1528Z" fill="#9DADF2"/>
<path d="M631.199 16.958C631.065 16.9014 630.916 16.9014 630.777 16.958L628.601 17.8275C628.39 17.9099 628.256 18.1105 628.256 18.3369V20.6573C628.256 20.9609 628.503 21.2078 628.806 21.2078C629.11 21.2078 629.357 20.9609 629.357 20.6573V18.7125L631.183 17.9819C631.322 17.9253 631.425 17.8224 631.487 17.6835C631.544 17.5497 631.544 17.4005 631.487 17.2616C631.43 17.1227 631.327 17.0197 631.194 16.958H631.199Z" fill="#9DADF2"/>
<path d="M648.934 10.6553C645.219 6.93543 640.275 4.89282 635.017 4.89282C629.758 4.89282 624.819 6.94058 621.099 10.6553C613.428 18.3267 613.428 30.8139 621.099 38.4904C624.937 42.3286 629.975 44.2426 635.017 44.2426C640.059 44.2426 645.096 42.3235 648.934 38.4904C656.606 30.819 656.606 18.3318 648.934 10.6553ZM646.212 23.1528C646.228 30.1347 641.767 36.2419 635.114 38.3566C635.053 38.3772 634.986 38.3772 634.919 38.3566C628.266 36.2419 623.806 30.1347 623.821 23.1528V15.43C623.821 15.3014 623.898 15.183 624.022 15.1316L634.898 10.784C634.934 10.7685 634.976 10.7634 635.017 10.7634C635.058 10.7634 635.099 10.7685 635.135 10.784L646.012 15.1367C646.135 15.183 646.212 15.3014 646.212 15.4351V23.1579V23.1528Z" fill="#9DADF2"/>
<path d="M572.44 49.0558C558.934 49.0558 547.949 38.0659 547.949 24.5651C547.949 11.0644 558.939 0.0744629 572.44 0.0744629C585.941 0.0744629 596.931 11.0644 596.931 24.5651C596.931 38.0659 585.941 49.0558 572.44 49.0558ZM572.44 1.70545C559.834 1.70545 549.58 11.9596 549.58 24.5651C549.58 37.1706 559.834 47.4248 572.44 47.4248C585.045 47.4248 595.3 37.1706 595.3 24.5651C595.3 11.9596 585.045 1.70545 572.44 1.70545Z" fill="#7DDACF"/>
<path d="M588.422 7.08952L580.84 14.6714L582.332 16.163L589.914 8.58117L588.422 7.08952Z" fill="#7DDACF"/>
<path d="M562.322 33.1886L554.74 40.7705L556.232 42.2621L563.814 34.6803L562.322 33.1886Z" fill="#7DDACF"/>
<path d="M582.554 33.1922L581.062 34.6838L588.644 42.2657L590.136 40.7741L582.554 33.1922Z" fill="#7DDACF"/>
<path d="M556.23 6.86482L554.738 8.35645L562.317 15.9347L563.808 14.4431L556.23 6.86482Z" fill="#7DDACF"/>
<path d="M578.413 25.2236C578.907 24.7296 578.907 23.9321 578.413 23.4433L577.363 22.3989C576.869 21.905 576.072 21.905 575.583 22.3989L575.017 22.9649L574.364 22.3114C573.87 21.8175 573.072 21.8175 572.584 22.3114L572.018 22.8826L571.364 22.224C570.87 21.73 570.073 21.73 569.584 22.224L566.111 25.6969C566.085 25.7226 566.085 25.7638 566.111 25.7947C566.574 26.2577 567.33 26.2577 567.799 25.7947L570.037 23.5566C570.279 23.3147 570.67 23.3147 570.911 23.5566L571.076 23.7212C571.107 23.7521 571.107 23.7984 571.076 23.8292L569.208 25.6969C569.183 25.7226 569.183 25.7638 569.208 25.7947C569.672 26.2577 570.428 26.2577 570.896 25.7947L573.042 23.6492C573.283 23.4073 573.674 23.4073 573.916 23.6492L574.081 23.8138C574.107 23.8395 574.107 23.8807 574.081 23.9116L572.28 25.7124C572.254 25.7381 572.254 25.7792 572.28 25.8101C572.743 26.2732 573.499 26.2732 573.968 25.8101L576.041 23.7366C576.283 23.4948 576.674 23.4948 576.916 23.7366L577.271 24.0916C577.41 24.2306 577.41 24.4621 577.271 24.601L577.214 24.6576C577.075 24.7965 576.844 24.7965 576.705 24.6576L576.247 24.1997C576.221 24.174 576.18 24.174 576.149 24.1997L575.357 24.992C575.331 25.0178 575.331 25.0589 575.357 25.0898L576.072 25.805C576.566 26.2989 577.363 26.2989 577.852 25.805L578.418 25.239L578.413 25.2236Z" fill="#7DDACF"/>
<path d="M572.44 5.7854C562.068 5.7854 553.661 14.1925 553.661 24.565C553.661 34.9375 562.068 43.3446 572.44 43.3446C582.813 43.3446 591.22 34.9375 591.22 24.565C591.22 14.1925 582.813 5.7854 572.44 5.7854ZM573.207 11.5839C576.222 11.7589 578.959 12.9628 581.079 14.8459L578.367 17.5574C576.953 16.3586 575.167 15.5817 573.207 15.417V11.5839ZM571.679 11.5839V15.417C569.719 15.5765 567.933 16.3586 566.518 17.5574L563.807 14.8459C565.927 12.9628 568.664 11.7589 571.679 11.5839ZM562.726 15.9264L565.438 18.6379C564.239 20.0528 563.462 21.8381 563.297 23.7984H559.464C559.639 20.7834 560.843 18.0462 562.726 15.9264ZM559.464 25.3265H563.297C563.457 27.2868 564.239 29.0721 565.438 30.487L562.726 33.1985C560.843 31.0787 559.639 28.3415 559.464 25.3265ZM571.679 37.541C568.664 37.3661 565.927 36.1621 563.807 34.279L566.518 31.5675C567.933 32.7663 569.719 33.5432 571.679 33.7079V37.541ZM564.548 24.5599C564.548 20.202 568.082 16.6673 572.44 16.6673C576.798 16.6673 580.333 20.202 580.333 24.5599C580.333 28.9178 576.798 32.4525 572.44 32.4525C568.082 32.4525 564.548 28.9178 564.548 24.5599ZM573.207 37.541V33.7079C575.167 33.5484 576.953 32.7663 578.367 31.5675L581.079 34.279C578.959 36.1621 576.222 37.3661 573.207 37.541ZM582.159 33.1985L579.448 30.487C580.647 29.0721 581.424 27.2868 581.588 25.3265H585.421C585.246 28.3415 584.042 31.0787 582.159 33.1985ZM581.588 23.7984C581.429 21.8381 580.647 20.0528 579.448 18.6379L582.159 15.9264C584.042 18.0462 585.246 20.7834 585.421 23.7984H581.588Z" fill="#7DDACF"/>
<path d="M511.411 48.9813C497.905 48.9813 486.92 37.9914 486.92 24.4907C486.92 10.9899 497.91 0 511.411 0C524.911 0 535.901 10.9899 535.901 24.4907C535.901 37.9914 524.911 48.9813 511.411 48.9813ZM511.411 1.63099C498.805 1.63099 488.551 11.8852 488.551 24.4907C488.551 37.0962 498.805 47.3504 511.411 47.3504C524.016 47.3504 534.27 37.0962 534.27 24.4907C534.27 11.8852 524.016 1.63099 511.411 1.63099Z" fill="#9DADF2"/>
<path d="M519.356 9.19944C519.233 9.19944 519.109 9.1737 518.996 9.1171C516.624 7.94402 514.072 7.34719 511.412 7.34719C508.752 7.34719 506.2 7.94402 503.828 9.1171C503.514 9.27146 503.139 9.20972 502.892 8.96276L498.683 4.75407C498.503 4.57399 498.421 4.32702 498.452 4.07491C498.483 3.8228 498.627 3.60157 498.843 3.47294C502.635 1.19881 506.982 0 511.417 0C515.852 0 520.2 1.20395 523.992 3.47294C524.208 3.60157 524.352 3.8228 524.383 4.07491C524.414 4.32702 524.326 4.57399 524.151 4.75407L519.943 8.96276C519.783 9.11711 519.577 9.19944 519.361 9.19944H519.356ZM511.412 5.7162C514.124 5.7162 516.737 6.28217 519.186 7.39866L522.232 4.35274C518.919 2.56739 515.199 1.63099 511.412 1.63099C507.625 1.63099 503.905 2.56739 500.592 4.35274L503.638 7.39866C506.087 6.28217 508.701 5.7162 511.412 5.7162Z" fill="#9DADF2"/>
<path d="M511.411 48.9813C506.976 48.9813 502.629 47.7773 498.837 45.5083C498.621 45.3797 498.476 45.1585 498.446 44.9064C498.415 44.6543 498.502 44.4073 498.677 44.2272L502.886 40.0185C503.133 39.7716 503.513 39.7098 503.822 39.8642C506.194 41.0373 508.746 41.6341 511.406 41.6341C514.066 41.6341 516.618 41.0373 518.99 39.8642C519.304 39.7098 519.679 39.7716 519.926 40.0185L524.135 44.2272C524.315 44.4073 524.397 44.6543 524.367 44.9064C524.336 45.1585 524.192 45.3797 523.976 45.5083C520.184 47.7825 515.836 48.9813 511.401 48.9813H511.411ZM500.591 44.6286C503.905 46.4139 507.624 47.3503 511.411 47.3503C515.198 47.3503 518.918 46.4139 522.231 44.6286L519.185 41.5827C516.736 42.6991 514.123 43.2651 511.411 43.2651C508.7 43.2651 506.086 42.6991 503.637 41.5827L500.591 44.6286Z" fill="#9DADF2"/>
<path d="M531.729 37.4616C531.513 37.4616 531.308 37.3793 531.153 37.2249L526.945 33.0162C526.698 32.7692 526.636 32.3885 526.79 32.0798C527.963 29.7079 528.56 27.1559 528.56 24.4959C528.56 21.8359 527.963 19.2839 526.79 16.912C526.636 16.5982 526.698 16.2175 526.945 15.9756L531.153 11.7669C531.333 11.5869 531.58 11.5045 531.832 11.5354C532.085 11.5663 532.306 11.7103 532.434 11.9264C534.709 15.7184 535.907 20.066 535.907 24.5011C535.907 28.9361 534.709 33.2838 532.434 37.0757C532.306 37.2918 532.085 37.4359 531.832 37.4667C531.796 37.4667 531.766 37.4667 531.729 37.4667V37.4616ZM528.504 32.265L531.549 35.3109C533.335 31.9975 534.271 28.2776 534.271 24.4908C534.271 20.704 533.335 16.9841 531.549 13.6706L528.504 16.7165C529.62 19.1656 530.186 21.7793 530.186 24.4908C530.186 27.2022 529.62 29.8159 528.504 32.265Z" fill="#9DADF2"/>
<path d="M491.093 37.4616C491.057 37.4616 491.026 37.4616 490.995 37.4565C490.743 37.4256 490.521 37.2815 490.393 37.0654C488.119 33.2735 486.92 28.9259 486.92 24.4908C486.92 20.0557 488.119 15.7081 490.393 11.9162C490.521 11.7001 490.743 11.556 490.995 11.5252C491.247 11.4943 491.494 11.5818 491.674 11.7567L495.883 15.9654C496.13 16.2123 496.191 16.5931 496.037 16.9018C494.864 19.2737 494.267 21.8256 494.267 24.4857C494.267 27.1457 494.864 29.6976 496.037 32.0695C496.191 32.3834 496.13 32.7641 495.883 33.006L491.674 37.2146C491.52 37.369 491.314 37.4565 491.098 37.4565L491.093 37.4616ZM491.273 13.6707C489.487 16.9841 488.551 20.704 488.551 24.4908C488.551 28.2776 489.487 31.9975 491.273 35.311L494.319 32.2651C493.202 29.816 492.636 27.2023 492.636 24.4908C492.636 21.7793 493.202 19.1656 494.319 16.7166L491.273 13.6707Z" fill="#9DADF2"/>
<path d="M511.411 5.71118C501.059 5.71118 492.631 14.1337 492.631 24.4908C492.631 34.8479 501.054 43.2704 511.411 43.2704C521.768 43.2704 530.191 34.8479 530.191 24.4908C530.191 14.1337 521.768 5.71118 511.411 5.71118ZM521.979 18.3218C522.869 19.8448 523.409 21.5066 523.584 23.2714C523.589 23.3434 523.559 23.4103 523.497 23.4464C522.154 24.2696 520.95 25.278 519.911 26.4562C519.864 26.5128 519.787 26.5334 519.72 26.5077L517.4 25.7514C517.333 25.7308 517.287 25.6742 517.276 25.6022C517.014 23.683 516.417 21.8462 515.501 20.138C515.47 20.0763 515.476 20.0043 515.517 19.9477L516.952 17.972C516.988 17.9257 517.045 17.8948 517.101 17.8948C517.117 17.8948 517.127 17.8948 517.143 17.8948C518.676 18.2344 520.25 18.3476 521.814 18.2189C521.886 18.2138 521.953 18.2498 521.989 18.3115L521.979 18.3218ZM516.011 25.9263C516.016 25.9777 516 26.0292 515.97 26.0652C514.75 27.4698 513.196 28.5966 511.483 29.3169C511.437 29.3375 511.39 29.3375 511.344 29.3169C509.631 28.5915 508.077 27.4647 506.858 26.0652C506.827 26.0292 506.811 25.9777 506.816 25.9263C507.053 24.0637 507.634 22.2836 508.535 20.6371C508.561 20.5908 508.602 20.56 508.653 20.5497C509.559 20.3593 510.485 20.2615 511.416 20.2615C512.347 20.2615 513.273 20.3593 514.179 20.5497C514.23 20.56 514.272 20.5908 514.297 20.6371C515.198 22.2836 515.774 24.0637 516.016 25.9263H516.011ZM515.733 13.1562C515.733 13.1562 515.795 13.1047 515.856 13.1047C515.877 13.1047 515.903 13.1047 515.928 13.1201C517.822 13.8713 519.515 15.1061 520.832 16.6857C520.899 16.7629 520.873 16.8452 520.857 16.8761C520.847 16.9018 520.801 16.9841 520.693 16.9841C519.525 16.9996 518.362 16.8658 517.235 16.5982C517.189 16.5879 517.148 16.5571 517.122 16.5159C516.52 15.5229 516.036 14.4527 515.687 13.3414C515.656 13.2436 515.712 13.1767 515.738 13.1562H515.733ZM508.813 12.5387C510.516 12.1734 512.311 12.1734 514.014 12.5387C514.081 12.5542 514.138 12.6056 514.153 12.6725C514.519 14.2006 515.11 15.6618 515.908 17.015C515.944 17.0767 515.939 17.1539 515.898 17.2156L514.472 19.1811C514.431 19.2377 514.359 19.2685 514.292 19.2531C512.409 18.8724 510.418 18.8724 508.535 19.2531C508.468 19.2685 508.396 19.2377 508.355 19.1811L506.93 17.2156C506.888 17.159 506.883 17.0767 506.919 17.015C507.717 15.6618 508.308 14.2006 508.674 12.6725C508.689 12.6056 508.746 12.5542 508.813 12.5387ZM501.995 16.6857C503.313 15.101 505.005 13.8662 506.899 13.1201C506.924 13.1099 506.95 13.1047 506.971 13.1047C507.038 13.1047 507.079 13.1407 507.094 13.1562C507.12 13.1819 507.177 13.2436 507.146 13.3414C506.796 14.4579 506.312 15.5229 505.71 16.5159C505.684 16.5571 505.643 16.5879 505.597 16.5982C504.47 16.8658 503.307 16.9996 502.14 16.9841C502.031 16.9841 501.985 16.9018 501.975 16.8761C501.959 16.8452 501.934 16.7629 502.001 16.6857H501.995ZM500.848 18.3218C500.879 18.2652 500.941 18.2292 501.008 18.2292C501.008 18.2292 501.018 18.2292 501.023 18.2292C502.592 18.3527 504.167 18.2447 505.695 17.9051C505.767 17.8896 505.839 17.9154 505.88 17.9771L507.315 19.9528C507.357 20.0094 507.362 20.0866 507.331 20.1432C506.415 21.8514 505.818 23.6882 505.556 25.6073C505.546 25.6742 505.499 25.7308 505.432 25.7565L503.112 26.5128C503.045 26.5334 502.968 26.5128 502.922 26.4614C501.882 25.2832 500.678 24.2747 499.335 23.4515C499.279 23.4155 499.243 23.3486 499.248 23.2766C499.423 21.5118 499.963 19.8448 500.853 18.327L500.848 18.3218ZM501.409 30.9994C501.378 31.0971 501.291 31.1177 501.255 31.1228C501.219 31.1228 501.136 31.1228 501.08 31.0405C499.984 29.3169 499.335 27.3206 499.207 25.2729C499.202 25.17 499.269 25.1185 499.299 25.1031C499.33 25.0876 499.413 25.0516 499.495 25.1134C500.447 25.7874 501.311 26.5797 502.067 27.4595C502.098 27.4956 502.114 27.5419 502.109 27.5933C502.016 28.751 501.779 29.8983 501.404 31.0045L501.409 30.9994ZM506.492 35.6969C504.887 34.992 503.472 33.9578 502.289 32.6304C502.242 32.5789 502.227 32.5017 502.253 32.44C502.855 30.9891 503.235 29.461 503.385 27.8969C503.39 27.8248 503.441 27.7631 503.508 27.7425L505.803 26.9965C505.803 26.9965 505.839 26.9862 505.859 26.9862C505.911 26.9862 505.957 27.0068 505.993 27.0479C507.279 28.4886 508.89 29.6616 510.655 30.4385C510.722 30.4694 510.763 30.5312 510.763 30.6032V33.0162C510.763 33.0883 510.722 33.1552 510.655 33.1809C509.214 33.8034 507.876 34.6421 506.677 35.666C506.626 35.7123 506.549 35.7226 506.487 35.6917L506.492 35.6969ZM514.585 36.2062C514.58 36.2422 514.555 36.3245 514.452 36.3503C512.466 36.8545 510.367 36.8545 508.38 36.3503C508.283 36.3245 508.252 36.2422 508.247 36.2062C508.242 36.1702 508.231 36.0879 508.319 36.021C509.255 35.3264 510.274 34.745 511.349 34.2974C511.396 34.2768 511.442 34.2768 511.488 34.2974C512.558 34.745 513.577 35.3264 514.519 36.021C514.601 36.0827 514.596 36.1702 514.591 36.2062H514.585ZM520.549 32.6355C519.365 33.9629 517.95 34.992 516.345 35.6969C516.278 35.7277 516.206 35.7123 516.155 35.6711C514.956 34.6472 513.623 33.8086 512.178 33.186C512.111 33.1552 512.07 33.0934 512.07 33.0214V30.6083C512.07 30.5363 512.111 30.4694 512.178 30.4437C513.942 29.6668 515.558 28.4937 516.839 27.0531C516.875 27.0119 516.921 26.9913 516.973 26.9913C516.993 26.9913 517.009 26.9913 517.029 27.0016L519.324 27.7477C519.391 27.7682 519.442 27.83 519.448 27.902C519.597 29.4661 519.978 30.9891 520.58 32.4451C520.605 32.5069 520.595 32.5841 520.544 32.6355H520.549ZM521.753 31.0457C521.696 31.1331 521.609 31.1331 521.578 31.128C521.542 31.128 521.459 31.1023 521.423 31.0045C521.053 29.8983 520.816 28.751 520.718 27.5933C520.718 27.547 520.729 27.4956 520.76 27.4595C521.516 26.5797 522.38 25.7925 523.332 25.1134C523.368 25.0876 523.404 25.0774 523.435 25.0774C523.476 25.0774 523.507 25.0928 523.528 25.1031C523.559 25.1185 523.631 25.17 523.62 25.2729C523.492 27.3206 522.843 29.3169 521.747 31.0405L521.753 31.0457Z" fill="#9DADF2"/>
<path d="M450.949 0.15679C464.455 0.15679 475.445 11.1467 475.445 24.6526C475.445 38.1585 464.455 49.1484 450.949 49.1484C437.443 49.1484 426.453 38.1585 426.453 24.6526C426.453 11.1467 437.443 0.15679 450.949 0.15679ZM450.949 47.3837C463.482 47.3837 473.68 37.1861 473.68 24.6526C473.68 12.1191 463.482 1.92156 450.949 1.92156C438.415 1.92156 428.218 12.1191 428.218 24.6526C428.218 37.1861 438.415 47.3837 450.949 47.3837Z" fill="#478BF9"/>
<path d="M391.07 0.155371C391.559 0.155371 391.95 0.551524 391.95 1.03516C391.95 1.5188 391.554 1.91499 391.07 1.91499C378.537 1.91499 368.339 12.1126 368.339 24.646C368.339 37.1795 378.537 47.3771 391.07 47.3771C391.559 47.3771 391.95 47.7733 391.95 48.2569C391.95 48.7406 391.554 49.1367 391.07 49.1367C377.564 49.1367 366.574 38.1468 366.574 24.6409C366.574 11.135 377.564 0.145071 391.07 0.145071V0.155371Z" fill="#478BF9"/>
<path d="M446.236 20.3199C446.236 21.2203 446.848 22.0024 447.723 22.2184L449.385 22.6352V18.3596H448.201C447.121 18.3596 446.241 19.2394 446.241 20.3199H446.236Z" fill="#478BF9"/>
<path d="M452.522 30.9343H453.706C454.786 30.9343 455.666 30.0545 455.666 28.974C455.666 28.0736 455.054 27.2915 454.179 27.0754L452.517 26.6587V30.9343H452.522Z" fill="#478BF9"/>
<path d="M450.954 4.71509C439.964 4.71509 431.017 13.6573 431.017 24.6524C431.017 35.6474 439.959 44.5896 450.954 44.5896C461.949 44.5896 470.891 35.6474 470.891 24.6524C470.891 13.6573 461.949 4.71509 450.954 4.71509ZM458.816 21.5036H455.672V19.9292C455.672 19.0648 454.967 18.3548 454.098 18.3548H452.523V23.4176L454.946 24.0247C457.221 24.5958 458.81 26.6281 458.81 28.9743C458.81 31.7886 456.521 34.0782 453.707 34.0782H452.523V38.0605H449.379V34.0782H447.805C445.202 34.0782 443.087 31.9636 443.087 29.3601V27.7857H446.231V29.3601C446.231 30.2245 446.936 30.9345 447.805 30.9345H449.379V25.8717L446.956 25.2646C444.682 24.6935 443.092 22.6612 443.092 20.315C443.092 17.5007 445.382 15.2111 448.196 15.2111H449.379V11.2288H452.523V15.2111H454.098C456.701 15.2111 458.816 17.3257 458.816 19.9292V21.5036Z" fill="#478BF9"/>
<path d="M390.694 0.12637L449.811 0.12637C450.3 0.12637 450.691 0.522523 450.691 1.00616C450.691 1.4898 450.295 1.88599 449.811 1.88599L390.694 1.88599C390.205 1.88599 389.814 1.4898 389.814 1.00616C389.814 0.522523 390.211 0.12637 390.694 0.12637Z" fill="#478BF9"/>
<path d="M390.566 47.3505L449.683 47.3505C450.172 47.3505 450.563 47.7467 450.563 48.2303C450.563 48.714 450.167 49.1101 449.683 49.1101L390.566 49.1101C390.077 49.1101 389.686 48.714 389.686 48.2303C389.686 47.7467 390.082 47.3505 390.566 47.3505Z" fill="#478BF9"/>
<path d="M326.953 49.0637C320.676 49.0637 314.404 46.6764 309.624 41.8966C300.07 32.3421 300.07 16.7988 309.624 7.24432C314.255 2.61373 320.408 0.0668945 326.953 0.0668945C333.497 0.0668945 339.651 2.61373 344.282 7.24432C353.836 16.7988 353.836 32.3421 344.282 41.8966C339.507 46.6713 333.23 49.0637 326.953 49.0637ZM310.91 40.6103C319.755 49.4548 334.146 49.4548 342.99 40.6103C351.835 31.7659 351.835 17.375 342.99 8.53059C338.704 4.24472 333.009 1.88828 326.948 1.88828C320.887 1.88828 315.191 4.24987 310.905 8.53059C302.061 17.375 302.061 31.7659 310.905 40.6103H310.91Z" fill="#9DADF2"/>
<path d="M326.629 33.7363C326.716 33.9473 326.922 34.0707 327.138 34.0707C327.21 34.0707 327.282 34.0553 327.354 34.0296C329.083 33.3041 330.657 32.1825 331.903 30.783C332.103 30.5566 332.083 30.2068 331.856 30.0061C331.63 29.8055 331.28 29.826 331.079 30.0524C329.942 31.3336 328.507 32.3574 326.927 33.016C326.649 33.1344 326.516 33.4585 326.634 33.7363H326.629Z" fill="#9DADF2"/>
<path d="M336.291 16.0991L327.153 12.4461C327.019 12.3946 326.875 12.3946 326.741 12.4461L317.604 16.0991C317.393 16.1814 317.259 16.3821 317.259 16.6085V23.153C317.269 29.1934 321.087 34.6523 326.757 36.7309C326.818 36.7515 326.88 36.7618 326.947 36.7618C327.014 36.7618 327.076 36.7515 327.137 36.7309C332.807 34.6472 336.625 29.1934 336.635 23.153V16.6085C336.635 16.3821 336.501 16.1814 336.291 16.0991ZM335.534 23.153C335.524 28.648 332.077 33.6542 326.952 35.6247C321.828 33.6542 318.375 28.648 318.365 23.153V16.984L326.952 13.5523L335.534 16.984V23.153Z" fill="#9DADF2"/>
<path d="M323.135 16.9582C323.001 16.9016 322.852 16.9016 322.713 16.9582L320.536 17.8278C320.325 17.9101 320.192 18.1107 320.192 18.3371V20.6576C320.192 20.9611 320.439 21.2081 320.742 21.2081C321.046 21.2081 321.293 20.9611 321.293 20.6576V18.7127L323.119 17.9822C323.258 17.9256 323.361 17.8226 323.423 17.6837C323.479 17.5499 323.479 17.4007 323.423 17.2618C323.366 17.1229 323.263 17.02 323.129 16.9582H323.135Z" fill="#9DADF2"/>
<path d="M340.87 10.6553C337.156 6.93543 332.211 4.89282 326.953 4.89282C321.694 4.89282 316.755 6.94058 313.035 10.6553C305.364 18.3267 305.364 30.8139 313.035 38.4904C316.873 42.3286 321.911 44.2426 326.953 44.2426C331.995 44.2426 337.032 42.3235 340.87 38.4904C348.542 30.819 348.542 18.3318 340.87 10.6553ZM338.148 23.1528C338.164 30.1347 333.703 36.2419 327.051 38.3566C326.989 38.3772 326.922 38.3772 326.855 38.3566C320.202 36.2419 315.742 30.1347 315.757 23.1528V15.43C315.757 15.3014 315.834 15.183 315.958 15.1316L326.834 10.784C326.87 10.7685 326.912 10.7634 326.953 10.7634C326.994 10.7634 327.035 10.7685 327.071 10.784L337.948 15.1367C338.071 15.183 338.148 15.3014 338.148 15.4351V23.1579V23.1528Z" fill="#9DADF2"/>
<path d="M264.376 49.0558C250.87 49.0558 239.885 38.0659 239.885 24.5651C239.885 11.0644 250.875 0.0744629 264.376 0.0744629C277.876 0.0744629 288.866 11.0644 288.866 24.5651C288.866 38.0659 277.876 49.0558 264.376 49.0558ZM264.376 1.70545C251.77 1.70545 241.516 11.9596 241.516 24.5651C241.516 37.1706 251.77 47.4248 264.376 47.4248C276.981 47.4248 287.235 37.1706 287.235 24.5651C287.235 11.9596 276.981 1.70545 264.376 1.70545Z" fill="#7DDACF"/>
<path d="M280.358 7.08952L272.776 14.6714L274.268 16.163L281.849 8.58117L280.358 7.08952Z" fill="#7DDACF"/>
<path d="M254.258 33.1886L246.676 40.7705L248.167 42.2621L255.749 34.6803L254.258 33.1886Z" fill="#7DDACF"/>
<path d="M274.49 33.1922L272.998 34.6838L280.58 42.2657L282.072 40.7741L274.49 33.1922Z" fill="#7DDACF"/>
<path d="M248.166 6.86482L246.674 8.35645L254.252 15.9347L255.744 14.4431L248.166 6.86482Z" fill="#7DDACF"/>
<path d="M270.349 25.2236C270.843 24.7296 270.843 23.9321 270.349 23.4433L269.299 22.3989C268.806 21.905 268.008 21.905 267.519 22.3989L266.953 22.9649L266.3 22.3114C265.806 21.8175 265.008 21.8175 264.52 22.3114L263.954 22.8826L263.3 22.224C262.806 21.73 262.009 21.73 261.52 22.224L258.047 25.6969C258.021 25.7226 258.021 25.7638 258.047 25.7947C258.51 26.2577 259.267 26.2577 259.735 25.7947L261.973 23.5566C262.215 23.3147 262.606 23.3147 262.848 23.5566L263.012 23.7212C263.043 23.7521 263.043 23.7984 263.012 23.8292L261.144 25.6969C261.119 25.7226 261.119 25.7638 261.144 25.7947C261.608 26.2577 262.364 26.2577 262.832 25.7947L264.978 23.6492C265.219 23.4073 265.61 23.4073 265.852 23.6492L266.017 23.8138C266.043 23.8395 266.043 23.8807 266.017 23.9116L264.216 25.7124C264.19 25.7381 264.19 25.7792 264.216 25.8101C264.679 26.2732 265.436 26.2732 265.904 25.8101L267.977 23.7366C268.219 23.4948 268.61 23.4948 268.852 23.7366L269.207 24.0916C269.346 24.2306 269.346 24.4621 269.207 24.601L269.15 24.6576C269.011 24.7965 268.78 24.7965 268.641 24.6576L268.183 24.1997C268.157 24.174 268.116 24.174 268.085 24.1997L267.293 24.992C267.267 25.0178 267.267 25.0589 267.293 25.0898L268.008 25.805C268.502 26.2989 269.299 26.2989 269.788 25.805L270.354 25.239L270.349 25.2236Z" fill="#7DDACF"/>
<path d="M264.376 5.7854C254.004 5.7854 245.597 14.1925 245.597 24.565C245.597 34.9375 254.004 43.3446 264.376 43.3446C274.749 43.3446 283.156 34.9375 283.156 24.565C283.156 14.1925 274.749 5.7854 264.376 5.7854ZM265.143 11.5839C268.158 11.7589 270.895 12.9628 273.015 14.8459L270.303 17.5574C268.889 16.3586 267.103 15.5817 265.143 15.417V11.5839ZM263.615 11.5839V15.417C261.655 15.5765 259.869 16.3586 258.454 17.5574L255.743 14.8459C257.863 12.9628 260.6 11.7589 263.615 11.5839ZM254.662 15.9264L257.374 18.6379C256.175 20.0528 255.398 21.8381 255.233 23.7984H251.4C251.575 20.7834 252.779 18.0462 254.662 15.9264ZM251.4 25.3265H255.233C255.393 27.2868 256.175 29.0721 257.374 30.487L254.662 33.1985C252.779 31.0787 251.575 28.3415 251.4 25.3265ZM263.615 37.541C260.6 37.3661 257.863 36.1621 255.743 34.279L258.454 31.5675C259.869 32.7663 261.655 33.5432 263.615 33.7079V37.541ZM256.484 24.5599C256.484 20.202 260.018 16.6673 264.376 16.6673C268.734 16.6673 272.269 20.202 272.269 24.5599C272.269 28.9178 268.734 32.4525 264.376 32.4525C260.018 32.4525 256.484 28.9178 256.484 24.5599ZM265.143 37.541V33.7079C267.103 33.5484 268.889 32.7663 270.303 31.5675L273.015 34.279C270.895 36.1621 268.158 37.3661 265.143 37.541ZM274.095 33.1985L271.384 30.487C272.583 29.0721 273.36 27.2868 273.524 25.3265H277.357C277.182 28.3415 275.979 31.0787 274.095 33.1985ZM273.524 23.7984C273.365 21.8381 272.583 20.0528 271.384 18.6379L274.095 15.9264C275.979 18.0462 277.182 20.7834 277.357 23.7984H273.524Z" fill="#7DDACF"/>
<path d="M203.346 48.9813C189.84 48.9813 178.856 37.9914 178.856 24.4907C178.856 10.9899 189.846 0 203.346 0C216.847 0 227.837 10.9899 227.837 24.4907C227.837 37.9914 216.847 48.9813 203.346 48.9813ZM203.346 1.63099C190.741 1.63099 180.487 11.8852 180.487 24.4907C180.487 37.0962 190.741 47.3504 203.346 47.3504C215.952 47.3504 226.206 37.0962 226.206 24.4907C226.206 11.8852 215.952 1.63099 203.346 1.63099Z" fill="#9DADF2"/>
<path d="M211.292 9.19944C211.169 9.19944 211.045 9.1737 210.932 9.1171C208.56 7.94402 206.008 7.34719 203.348 7.34719C200.688 7.34719 198.136 7.94402 195.764 9.1171C195.45 9.27146 195.075 9.20972 194.828 8.96276L190.619 4.75407C190.439 4.57399 190.357 4.32702 190.387 4.07491C190.418 3.8228 190.562 3.60157 190.778 3.47294C194.57 1.19881 198.918 0 203.353 0C207.788 0 212.136 1.20395 215.928 3.47294C216.144 3.60157 216.288 3.8228 216.319 4.07491C216.35 4.32702 216.262 4.57399 216.087 4.75407L211.879 8.96276C211.719 9.11711 211.513 9.19944 211.297 9.19944H211.292ZM203.348 5.7162C206.059 5.7162 208.673 6.28217 211.122 7.39866L214.168 4.35274C210.855 2.56739 207.135 1.63099 203.348 1.63099C199.561 1.63099 195.841 2.56739 192.528 4.35274L195.574 7.39866C198.023 6.28217 200.637 5.7162 203.348 5.7162Z" fill="#9DADF2"/>
<path d="M203.347 48.9813C198.912 48.9813 194.565 47.7773 190.773 45.5083C190.557 45.3797 190.412 45.1585 190.382 44.9064C190.351 44.6543 190.438 44.4073 190.613 44.2272L194.822 40.0185C195.069 39.7716 195.45 39.7098 195.758 39.8642C198.13 41.0373 200.682 41.6341 203.342 41.6341C206.002 41.6341 208.554 41.0373 210.926 39.8642C211.24 39.7098 211.615 39.7716 211.862 40.0185L216.071 44.2272C216.251 44.4073 216.333 44.6543 216.303 44.9064C216.272 45.1585 216.128 45.3797 215.912 45.5083C212.12 47.7825 207.772 48.9813 203.337 48.9813H203.347ZM192.527 44.6286C195.841 46.4139 199.56 47.3503 203.347 47.3503C207.134 47.3503 210.854 46.4139 214.167 44.6286L211.122 41.5827C208.672 42.6991 206.059 43.2651 203.347 43.2651C200.636 43.2651 198.022 42.6991 195.573 41.5827L192.527 44.6286Z" fill="#9DADF2"/>
<path d="M223.665 37.4616C223.449 37.4616 223.243 37.3793 223.089 37.2249L218.88 33.0162C218.633 32.7692 218.572 32.3885 218.726 32.0798C219.899 29.7079 220.496 27.1559 220.496 24.4959C220.496 21.8359 219.899 19.2839 218.726 16.912C218.572 16.5982 218.633 16.2175 218.88 15.9756L223.089 11.7669C223.269 11.5869 223.516 11.5045 223.768 11.5354C224.02 11.5663 224.242 11.7103 224.37 11.9264C226.644 15.7184 227.843 20.066 227.843 24.5011C227.843 28.9361 226.644 33.2838 224.37 37.0757C224.242 37.2918 224.02 37.4359 223.768 37.4667C223.732 37.4667 223.701 37.4667 223.665 37.4667V37.4616ZM220.439 32.265L223.485 35.3109C225.271 31.9975 226.207 28.2776 226.207 24.4908C226.207 20.704 225.271 16.9841 223.485 13.6706L220.439 16.7165C221.556 19.1656 222.122 21.7793 222.122 24.4908C222.122 27.2022 221.556 29.8159 220.439 32.265Z" fill="#9DADF2"/>
<path d="M183.028 37.4616C182.992 37.4616 182.961 37.4616 182.931 37.4565C182.679 37.4256 182.457 37.2815 182.329 37.0654C180.055 33.2735 178.856 28.9259 178.856 24.4908C178.856 20.0557 180.055 15.7081 182.329 11.9162C182.457 11.7001 182.679 11.556 182.931 11.5252C183.183 11.4943 183.43 11.5818 183.61 11.7567L187.818 15.9654C188.065 16.2123 188.127 16.5931 187.973 16.9018C186.8 19.2737 186.203 21.8256 186.203 24.4857C186.203 27.1457 186.8 29.6976 187.973 32.0695C188.127 32.3834 188.065 32.7641 187.818 33.006L183.61 37.2146C183.455 37.369 183.25 37.4565 183.034 37.4565L183.028 37.4616ZM183.208 13.6707C181.423 16.9841 180.487 20.704 180.487 24.4908C180.487 28.2776 181.423 31.9975 183.208 35.311L186.254 32.2651C185.138 29.816 184.572 27.2023 184.572 24.4908C184.572 21.7793 185.138 19.1656 186.254 16.7166L183.208 13.6707Z" fill="#9DADF2"/>
<path d="M203.347 5.71118C192.995 5.71118 184.567 14.1337 184.567 24.4908C184.567 34.8479 192.99 43.2704 203.347 43.2704C213.704 43.2704 222.127 34.8479 222.127 24.4908C222.127 14.1337 213.704 5.71118 203.347 5.71118ZM213.915 18.3218C214.805 19.8448 215.345 21.5066 215.52 23.2714C215.525 23.3434 215.495 23.4103 215.433 23.4464C214.09 24.2696 212.886 25.278 211.847 26.4562C211.8 26.5128 211.723 26.5334 211.656 26.5077L209.336 25.7514C209.269 25.7308 209.223 25.6742 209.212 25.6022C208.95 23.683 208.353 21.8462 207.437 20.138C207.406 20.0763 207.412 20.0043 207.453 19.9477L208.888 17.972C208.924 17.9257 208.981 17.8948 209.037 17.8948C209.053 17.8948 209.063 17.8948 209.079 17.8948C210.612 18.2344 212.186 18.3476 213.75 18.2189C213.822 18.2138 213.889 18.2498 213.925 18.3115L213.915 18.3218ZM207.947 25.9263C207.952 25.9777 207.936 26.0292 207.906 26.0652C206.686 27.4698 205.132 28.5966 203.419 29.3169C203.373 29.3375 203.326 29.3375 203.28 29.3169C201.567 28.5915 200.013 27.4647 198.794 26.0652C198.763 26.0292 198.747 25.9777 198.752 25.9263C198.989 24.0637 199.571 22.2836 200.471 20.6371C200.497 20.5908 200.538 20.56 200.589 20.5497C201.495 20.3593 202.421 20.2615 203.352 20.2615C204.283 20.2615 205.21 20.3593 206.115 20.5497C206.167 20.56 206.208 20.5908 206.233 20.6371C207.134 22.2836 207.71 24.0637 207.952 25.9263H207.947ZM207.669 13.1562C207.669 13.1562 207.731 13.1047 207.792 13.1047C207.813 13.1047 207.839 13.1047 207.864 13.1201C209.758 13.8713 211.451 15.1061 212.768 16.6857C212.835 16.7629 212.809 16.8452 212.793 16.8761C212.783 16.9018 212.737 16.9841 212.629 16.9841C211.461 16.9996 210.298 16.8658 209.171 16.5982C209.125 16.5879 209.084 16.5571 209.058 16.5159C208.456 15.5229 207.972 14.4527 207.623 13.3414C207.592 13.2436 207.648 13.1767 207.674 13.1562H207.669ZM200.749 12.5387C202.452 12.1734 204.247 12.1734 205.95 12.5387C206.017 12.5542 206.074 12.6056 206.089 12.6725C206.455 14.2006 207.046 15.6618 207.844 17.015C207.88 17.0767 207.875 17.1539 207.834 17.2156L206.408 19.1811C206.367 19.2377 206.295 19.2685 206.228 19.2531C204.345 18.8724 202.354 18.8724 200.471 19.2531C200.404 19.2685 200.332 19.2377 200.291 19.1811L198.866 17.2156C198.824 17.159 198.819 17.0767 198.855 17.015C199.653 15.6618 200.245 14.2006 200.61 12.6725C200.625 12.6056 200.682 12.5542 200.749 12.5387ZM193.931 16.6857C195.249 15.101 196.941 13.8662 198.835 13.1201C198.86 13.1099 198.886 13.1047 198.907 13.1047C198.974 13.1047 199.015 13.1407 199.03 13.1562C199.056 13.1819 199.113 13.2436 199.082 13.3414C198.732 14.4579 198.248 15.5229 197.646 16.5159C197.62 16.5571 197.579 16.5879 197.533 16.5982C196.406 16.8658 195.243 16.9996 194.076 16.9841C193.968 16.9841 193.921 16.9018 193.911 16.8761C193.895 16.8452 193.87 16.7629 193.937 16.6857H193.931ZM192.784 18.3218C192.815 18.2652 192.877 18.2292 192.944 18.2292C192.944 18.2292 192.954 18.2292 192.959 18.2292C194.528 18.3527 196.103 18.2447 197.631 17.9051C197.703 17.8896 197.775 17.9154 197.816 17.9771L199.252 19.9528C199.293 20.0094 199.298 20.0866 199.267 20.1432C198.351 21.8514 197.754 23.6882 197.492 25.6073C197.482 25.6742 197.435 25.7308 197.368 25.7565L195.048 26.5128C194.981 26.5334 194.904 26.5128 194.858 26.4614C193.818 25.2832 192.614 24.2747 191.271 23.4515C191.215 23.4155 191.179 23.3486 191.184 23.2766C191.359 21.5118 191.899 19.8448 192.789 18.327L192.784 18.3218ZM193.345 30.9994C193.314 31.0971 193.227 31.1177 193.191 31.1228C193.155 31.1228 193.072 31.1228 193.016 31.0405C191.92 29.3169 191.271 27.3206 191.143 25.2729C191.138 25.17 191.205 25.1185 191.235 25.1031C191.266 25.0876 191.349 25.0516 191.431 25.1134C192.383 25.7874 193.247 26.5797 194.004 27.4595C194.034 27.4956 194.05 27.5419 194.045 27.5933C193.952 28.751 193.715 29.8983 193.34 31.0045L193.345 30.9994ZM198.428 35.6969C196.823 34.992 195.408 33.9578 194.225 32.6304C194.178 32.5789 194.163 32.5017 194.189 32.44C194.791 30.9891 195.171 29.461 195.321 27.8969C195.326 27.8248 195.377 27.7631 195.444 27.7425L197.739 26.9965C197.739 26.9965 197.775 26.9862 197.795 26.9862C197.847 26.9862 197.893 27.0068 197.929 27.0479C199.216 28.4886 200.826 29.6616 202.591 30.4385C202.658 30.4694 202.699 30.5312 202.699 30.6032V33.0162C202.699 33.0883 202.658 33.1552 202.591 33.1809C201.15 33.8034 199.812 34.6421 198.614 35.666C198.562 35.7123 198.485 35.7226 198.423 35.6917L198.428 35.6969ZM206.522 36.2062C206.516 36.2422 206.491 36.3245 206.388 36.3503C204.402 36.8545 202.303 36.8545 200.317 36.3503C200.219 36.3245 200.188 36.2422 200.183 36.2062C200.178 36.1702 200.167 36.0879 200.255 36.021C201.191 35.3264 202.21 34.745 203.285 34.2974C203.332 34.2768 203.378 34.2768 203.424 34.2974C204.494 34.745 205.513 35.3264 206.455 36.021C206.537 36.0827 206.532 36.1702 206.527 36.2062H206.522ZM212.485 32.6355C211.301 33.9629 209.886 34.992 208.281 35.6969C208.214 35.7277 208.142 35.7123 208.091 35.6711C206.892 34.6472 205.559 33.8086 204.114 33.186C204.047 33.1552 204.006 33.0934 204.006 33.0214V30.6083C204.006 30.5363 204.047 30.4694 204.114 30.4437C205.878 29.6668 207.494 28.4937 208.775 27.0531C208.811 27.0119 208.857 26.9913 208.909 26.9913C208.929 26.9913 208.945 26.9913 208.965 27.0016L211.26 27.7477C211.327 27.7682 211.379 27.83 211.384 27.902C211.533 29.4661 211.914 30.9891 212.516 32.4451C212.541 32.5069 212.531 32.5841 212.48 32.6355H212.485ZM213.689 31.0457C213.632 31.1331 213.545 31.1331 213.514 31.128C213.478 31.128 213.395 31.1023 213.359 31.0045C212.989 29.8983 212.752 28.751 212.655 27.5933C212.655 27.547 212.665 27.4956 212.696 27.4595C213.452 26.5797 214.316 25.7925 215.268 25.1134C215.304 25.0876 215.34 25.0774 215.371 25.0774C215.412 25.0774 215.443 25.0928 215.464 25.1031C215.495 25.1185 215.567 25.17 215.556 25.2729C215.428 27.3206 214.779 29.3169 213.684 31.0405L213.689 31.0457Z" fill="#9DADF2"/>
<path d="M142.884 0.15679C156.39 0.15679 167.38 11.1467 167.38 24.6526C167.38 38.1585 156.39 49.1484 142.884 49.1484C129.378 49.1484 118.388 38.1585 118.388 24.6526C118.388 11.1467 129.378 0.15679 142.884 0.15679ZM142.884 47.3837C155.417 47.3837 165.615 37.1861 165.615 24.6526C165.615 12.1191 155.417 1.92156 142.884 1.92156C130.351 1.92156 120.153 12.1191 120.153 24.6526C120.153 37.1861 130.351 47.3837 142.884 47.3837Z" fill="#478BF9"/>
<path d="M83.0051 0.155371C83.4939 0.155371 83.8849 0.551524 83.8849 1.03516C83.8849 1.5188 83.4887 1.91499 83.0051 1.91499C70.4716 1.91499 60.274 12.1126 60.274 24.646C60.274 37.1795 70.4716 47.3771 83.0051 47.3771C83.4939 47.3771 83.8849 47.7733 83.8849 48.2569C83.8849 48.7406 83.4887 49.1367 83.0051 49.1367C69.4992 49.1367 58.5093 38.1468 58.5093 24.6409C58.5093 11.135 69.4992 0.145071 83.0051 0.145071V0.155371Z" fill="#478BF9"/>
<path d="M138.171 20.3199C138.171 21.2203 138.783 22.0024 139.658 22.2184L141.32 22.6352V18.3596H140.137C139.056 18.3596 138.176 19.2394 138.176 20.3199H138.171Z" fill="#478BF9"/>
<path d="M144.458 30.9343H145.641C146.721 30.9343 147.601 30.0545 147.601 28.974C147.601 28.0736 146.989 27.2915 146.114 27.0754L144.452 26.6587V30.9343H144.458Z" fill="#478BF9"/>
<path d="M142.889 4.71509C131.899 4.71509 122.952 13.6573 122.952 24.6524C122.952 35.6474 131.894 44.5896 142.889 44.5896C153.884 44.5896 162.826 35.6474 162.826 24.6524C162.826 13.6573 153.884 4.71509 142.889 4.71509ZM150.751 21.5036H147.607V19.9292C147.607 19.0648 146.902 18.3548 146.033 18.3548H144.458V23.4176L146.882 24.0247C149.156 24.5958 150.746 26.6281 150.746 28.9743C150.746 31.7886 148.456 34.0782 145.642 34.0782H144.458V38.0605H141.315V34.0782H139.74C137.137 34.0782 135.022 31.9636 135.022 29.3601V27.7857H138.166V29.3601C138.166 30.2245 138.871 30.9345 139.74 30.9345H141.315V25.8717L138.891 25.2646C136.617 24.6935 135.027 22.6612 135.027 20.315C135.027 17.5007 137.317 15.2111 140.131 15.2111H141.315V11.2288H144.458V15.2111H146.033C148.636 15.2111 150.751 17.3257 150.751 19.9292V21.5036Z" fill="#478BF9"/>
<path d="M82.6298 0.12637L141.747 0.12637C142.236 0.12637 142.627 0.522523 142.627 1.00616C142.627 1.4898 142.231 1.88599 141.747 1.88599L82.6298 1.88599C82.141 1.88599 81.75 1.4898 81.75 1.00616C81.75 0.522523 82.1462 0.12637 82.6298 0.12637Z" fill="#478BF9"/>
<path d="M82.5011 47.3505L141.618 47.3505C142.107 47.3505 142.498 47.7467 142.498 48.2303C142.498 48.714 142.102 49.1101 141.618 49.1101L82.5011 49.1101C82.0123 49.1101 81.6213 48.714 81.6213 48.2303C81.6213 47.7467 82.0175 47.3505 82.5011 47.3505Z" fill="#478BF9"/>
<path d="M24.4945 49.0637C18.2175 49.0637 11.9456 46.6764 7.16584 41.8966C-2.38861 32.3421 -2.38861 16.7988 7.16584 7.24432C11.7964 2.61373 17.95 0.0668945 24.4945 0.0668945C31.0391 0.0668945 37.1927 2.61373 41.8233 7.24432C51.3777 16.7988 51.3777 32.3421 41.8233 41.8966C37.0486 46.6713 30.7716 49.0637 24.4945 49.0637ZM8.45212 40.6103C17.2965 49.4548 31.6874 49.4548 40.5318 40.6103C49.3763 31.7659 49.3763 17.375 40.5318 8.53059C36.246 4.24472 30.5504 1.88828 24.4894 1.88828C18.4285 1.88828 12.7328 4.24987 8.44697 8.53059C-0.397465 17.375 -0.397465 31.7659 8.44697 40.6103H8.45212Z" fill="#9DADF2"/>
<path d="M24.1704 33.7363C24.2578 33.9473 24.4636 34.0707 24.6797 34.0707C24.7518 34.0707 24.8238 34.0553 24.8958 34.0296C26.6246 33.3041 28.199 32.1825 29.4441 30.783C29.6448 30.5566 29.6242 30.2068 29.3978 30.0061C29.1714 29.8055 28.8215 29.826 28.6209 30.0524C27.4838 31.3336 26.0483 32.3574 24.4688 33.016C24.1909 33.1344 24.0572 33.4585 24.1755 33.7363H24.1704Z" fill="#9DADF2"/>
<path d="M33.8318 16.0991L24.6941 12.4461C24.5603 12.3946 24.4162 12.3946 24.2825 12.4461L15.1448 16.0991C14.9338 16.1814 14.8 16.3821 14.8 16.6085V23.153C14.8103 29.1934 18.628 34.6523 24.2979 36.7309C24.3597 36.7515 24.4214 36.7618 24.4883 36.7618C24.5552 36.7618 24.6169 36.7515 24.6787 36.7309C30.3486 34.6472 34.1662 29.1934 34.1765 23.153V16.6085C34.1765 16.3821 34.0427 16.1814 33.8318 16.0991ZM33.0755 23.153C33.0652 28.648 29.6179 33.6542 24.4934 35.6247C19.3689 33.6542 15.9165 28.648 15.9062 23.153V16.984L24.4934 13.5523L33.0755 16.984V23.153Z" fill="#9DADF2"/>
<path d="M20.6761 16.9582C20.5424 16.9016 20.3932 16.9016 20.2542 16.9582L18.0779 17.8278C17.8669 17.9101 17.7332 18.1107 17.7332 18.3371V20.6576C17.7332 20.9611 17.9801 21.2081 18.2837 21.2081C18.5872 21.2081 18.8342 20.9611 18.8342 20.6576V18.7127L20.6607 17.9822C20.7996 17.9256 20.9025 17.8226 20.9643 17.6837C21.0209 17.5499 21.0209 17.4007 20.9643 17.2618C20.9077 17.1229 20.8048 17.02 20.671 16.9582H20.6761Z" fill="#9DADF2"/>
<path d="M38.4118 10.6553C34.697 6.93543 29.7525 4.89282 24.4942 4.89282C19.236 4.89282 14.2967 6.94058 10.5768 10.6553C2.90541 18.3267 2.90541 30.8139 10.5768 38.4904C14.415 42.3286 19.452 44.2426 24.4942 44.2426C29.5364 44.2426 34.5735 42.3235 38.4118 38.4904C46.0831 30.819 46.0831 18.3318 38.4118 10.6553ZM35.69 23.1528C35.7054 30.1347 31.2446 36.2419 24.592 38.3566C24.5303 38.3772 24.4634 38.3772 24.3965 38.3566C17.7439 36.2419 13.2831 30.1347 13.2985 23.1528V15.43C13.2985 15.3014 13.3757 15.183 13.4992 15.1316L24.3759 10.784C24.4119 10.7685 24.4531 10.7634 24.4942 10.7634C24.5354 10.7634 24.5766 10.7685 24.6126 10.784L35.4894 15.1367C35.6128 15.183 35.69 15.3014 35.69 15.4351V23.1579V23.1528Z" fill="#9DADF2"/>
</g>
</svg>
