<svg width="599" height="51" viewBox="0 0 599 51" fill="none" xmlns="http://www.w3.org/2000/svg">
<g opacity="0.6">
<path d="M514.404 49.6169C500.898 49.6169 489.908 38.627 489.908 25.1211C489.908 11.6152 500.898 0.625264 514.404 0.625264C527.91 0.625264 538.9 11.6152 538.9 25.1211C538.9 38.627 527.91 49.6169 514.404 49.6169ZM514.404 2.39003C501.871 2.39003 491.673 12.5876 491.673 25.1211C491.673 37.6546 501.871 47.8521 514.404 47.8521C526.937 47.8521 537.135 37.6546 537.135 25.1211C537.135 12.5876 526.937 2.39003 514.404 2.39003Z" fill="#478BF9"/>
<path d="M574.288 49.6181C573.799 49.6181 573.408 49.222 573.408 48.7383C573.408 48.2547 573.804 47.8585 574.288 47.8585C586.821 47.8585 597.019 37.6609 597.019 25.1274C597.019 12.594 586.821 2.39639 574.288 2.39639C573.799 2.39639 573.408 2.0002 573.408 1.51656C573.408 1.03292 573.804 0.63677 574.288 0.63677C587.793 0.63677 598.783 11.6267 598.783 25.1326C598.783 38.6385 587.793 49.6284 574.288 49.6284V49.6181Z" fill="#478BF9"/>
<path d="M538.702 24.1487H527.974V26.2633H538.702V24.1487Z" fill="#478BF9"/>
<path d="M501.765 24.1487H491.038V26.2633H501.765V24.1487Z" fill="#478BF9"/>
<path d="M516.096 38.4724H513.981V49.2H516.096V38.4724Z" fill="#478BF9"/>
<path d="M516.096 1.21167H513.981V11.9392H516.096V1.21167Z" fill="#478BF9"/>
<path d="M527.65 11.7849C520.313 4.448 508.412 4.448 501.07 11.7849C493.733 19.1218 493.733 31.0225 501.07 38.3645C508.407 45.7014 520.308 45.7014 527.65 38.3645C534.987 31.0276 534.987 19.127 527.65 11.7849ZM517.992 13.3748C520.133 14.0385 522.052 15.2784 523.544 16.966L523.832 17.2902L523.41 17.3879C522.294 17.6503 521.1 17.8664 519.865 18.0259L519.644 18.0568L519.582 17.8407C519.376 17.1358 519.135 16.4567 518.857 15.829C518.512 15.0418 518.126 14.3523 517.704 13.7709L517.241 13.1381L517.992 13.3696V13.3748ZM509.405 24.4882L509.415 24.2206C509.467 22.5948 509.647 21.041 509.956 19.6106L510.002 19.3842L510.233 19.4048C512.94 19.6415 515.831 19.6312 518.522 19.3791L518.754 19.3585L518.805 19.5849C519.119 21.0307 519.299 22.5896 519.345 24.2206V24.4882H509.41H509.405ZM519.345 25.6818V25.9494C519.289 27.5804 519.109 29.1393 518.795 30.5851L518.744 30.8115L518.512 30.7909C515.821 30.5388 512.93 30.5337 510.223 30.7652L509.992 30.7858L509.945 30.5594C509.637 29.129 509.457 27.5804 509.405 25.9494L509.395 25.6818H519.335H519.345ZM514.375 12.9271C515.873 12.9271 517.395 14.8257 518.347 17.887L518.445 18.1957L518.121 18.2214C516.855 18.3295 515.548 18.3861 514.236 18.3861C513.017 18.3861 511.803 18.3398 510.619 18.242L510.295 18.2163L510.393 17.9024C511.345 14.8308 512.873 12.922 514.375 12.922V12.9271ZM505.155 17.0226C506.658 15.3093 508.592 14.0488 510.758 13.3799L511.515 13.1484L511.046 13.7864C510.625 14.3626 510.234 15.0572 509.894 15.8393C509.621 16.4567 509.374 17.1461 509.158 17.887L509.096 18.098L508.875 18.0722C507.63 17.9179 506.426 17.7121 505.294 17.4497L504.867 17.3519L505.155 17.0226ZM502.151 24.2103C502.295 22.2038 502.938 20.2486 504.013 18.5456L504.116 18.3861L504.301 18.4324C505.618 18.7668 507.038 19.0344 508.53 19.2247L508.808 19.2608L508.752 19.5386C508.443 21.0307 508.268 22.6102 508.222 24.2361V24.4882H502.135L502.156 24.2103H502.151ZM504.116 31.7839L504.013 31.6244C502.938 29.9265 502.295 27.9663 502.151 25.9597L502.13 25.6818H508.211V25.9339C508.263 27.5598 508.443 29.1445 508.747 30.6314L508.803 30.9092L508.525 30.9453C507.038 31.1356 505.613 31.4032 504.296 31.7376L504.111 31.7839H504.116ZM510.758 36.7952C508.592 36.1264 506.658 34.8659 505.155 33.1525L504.867 32.8232L505.294 32.7255C506.426 32.4682 507.63 32.2573 508.875 32.1029L509.096 32.0772L509.158 32.2882C509.374 33.0291 509.621 33.7185 509.894 34.3359C510.239 35.1231 510.625 35.8125 511.046 36.3939L511.515 37.0319L510.758 36.8004V36.7952ZM514.375 37.2429C512.873 37.2429 511.345 35.334 510.393 32.2624L510.295 31.9486L510.619 31.9229C513.074 31.7273 515.687 31.7325 518.121 31.9434L518.445 31.9691L518.347 32.2779C517.39 35.3341 515.867 37.2377 514.375 37.2377V37.2429ZM523.544 33.204C522.052 34.8916 520.128 36.1315 517.992 36.7952L517.241 37.0268L517.704 36.3939C518.126 35.8177 518.512 35.1231 518.857 34.3359C519.129 33.7031 519.376 33.029 519.582 32.3242L519.644 32.1081L519.865 32.1389C521.1 32.2984 522.294 32.5145 523.41 32.7769L523.832 32.8798L523.544 33.204ZM526.595 25.9597C526.451 27.9868 525.797 29.9677 524.696 31.6862L524.593 31.8457L524.408 31.7994C523.107 31.4547 521.692 31.1819 520.21 30.9813L519.932 30.9453L519.989 30.6726C520.297 29.1805 520.477 27.5907 520.524 25.9391V25.687H526.61L526.59 25.9648L526.595 25.9597ZM520.534 24.4882V24.2361C520.483 22.5845 520.302 20.9895 519.994 19.5026L519.937 19.2299L520.215 19.1939C521.697 18.9932 523.107 18.7205 524.413 18.3758L524.599 18.3295L524.702 18.489C525.803 20.2075 526.461 22.1832 526.6 24.2155L526.621 24.4933H520.539L520.534 24.4882Z" fill="#478BF9"/>
<path d="M574.658 49.6477L515.541 49.6477C515.052 49.6477 514.661 49.2515 514.661 48.7679C514.661 48.2842 515.057 47.8881 515.541 47.8881L574.658 47.8881C575.147 47.8881 575.538 48.2842 575.538 48.7679C575.538 49.2515 575.142 49.6477 574.658 49.6477Z" fill="#478BF9"/>
<path d="M574.792 2.41626L515.675 2.41626C515.186 2.41626 514.795 2.02011 514.795 1.53647C514.795 1.05283 515.191 0.656643 515.675 0.656643L574.792 0.656643C575.281 0.656643 575.672 1.05283 575.672 1.53647C575.672 2.02011 575.276 2.41626 574.792 2.41626Z" fill="#478BF9"/>
<path d="M436.452 42.1674C426.818 32.5334 426.818 16.8595 436.452 7.22549C446.086 -2.4085 461.76 -2.4085 471.394 7.22549C481.028 16.8595 481.028 32.5334 471.394 42.1674C461.76 51.8014 446.086 51.8014 436.452 42.1674ZM470.23 8.38991C461.238 -0.602124 446.608 -0.602124 437.619 8.38991C428.627 17.3819 428.627 32.011 437.619 41.0007C446.611 49.9927 461.24 49.9927 470.23 41.0007C479.222 32.0086 479.222 17.3796 470.23 8.38991Z" fill="white"/>
<path d="M470.496 19.4555C470.409 19.3688 470.339 19.2587 470.299 19.1369C469.444 16.6066 468.048 14.3644 466.15 12.4667C464.255 10.5713 462.01 9.1749 459.48 8.3174C459.145 8.2026 458.92 7.89099 458.92 7.53722V1.53238C458.92 1.27935 459.037 1.04037 459.236 0.883392C459.438 0.726418 459.698 0.672535 459.941 0.73345C464.266 1.81587 468.226 4.06036 471.389 7.22561C474.552 10.3909 476.796 14.348 477.879 18.673C477.94 18.919 477.883 19.1791 477.729 19.3805C477.572 19.582 477.333 19.6968 477.08 19.6968H471.075C470.85 19.6968 470.644 19.6055 470.491 19.4532L470.496 19.4555ZM467.315 11.3022C469.25 13.2375 470.709 15.5054 471.661 18.0498H476.004C474.913 14.4136 472.928 11.0914 470.227 8.39003C467.525 5.68867 464.203 3.70424 460.569 2.61479V6.95852C463.114 7.90739 465.382 9.36701 467.317 11.3046L467.315 11.3022Z" fill="white"/>
<path d="M436.451 42.1676C433.288 39.0047 431.042 35.0452 429.959 30.7202C429.898 30.4742 429.954 30.2142 430.109 30.015C430.266 29.8135 430.505 29.6987 430.758 29.6987H436.763C437.117 29.6987 437.431 29.9237 437.543 30.2587C438.398 32.789 439.795 35.0312 441.692 36.9289C443.588 38.8243 445.832 40.2207 448.363 41.0782C448.698 41.1906 448.923 41.5046 448.923 41.8584V47.8632C448.923 48.1162 448.805 48.3552 448.606 48.5122C448.405 48.6692 448.145 48.723 447.899 48.6621C443.574 47.5797 439.617 45.3352 436.451 42.1723V42.1676ZM431.838 31.3434C432.93 34.9796 434.914 38.3018 437.616 41.0032C440.317 43.7046 443.639 45.689 447.275 46.7808V42.437C444.731 41.4882 442.463 40.0286 440.528 38.0933C438.593 36.1581 437.133 33.8902 436.182 31.3458H431.838V31.3434Z" fill="white"/>
<path d="M459.165 48.4417C459.011 48.2871 458.924 48.0785 458.924 47.8583V41.8535C458.924 41.4997 459.149 41.1857 459.484 41.0733C462.014 40.2181 464.256 38.8218 466.154 36.924C468.052 35.0263 469.446 32.7841 470.303 30.2538C470.416 29.9188 470.73 29.6938 471.083 29.6938H477.088C477.341 29.6938 477.58 29.811 477.737 30.0101C477.894 30.2093 477.948 30.4717 477.887 30.7153C476.802 35.0403 474.558 38.9975 471.395 42.1627C468.232 45.328 464.273 47.5725 459.948 48.6549C459.702 48.7158 459.442 48.6596 459.242 48.5049C459.217 48.4815 459.191 48.4604 459.167 48.437L459.165 48.4417ZM460.571 42.4345V46.7782C464.207 45.6864 467.529 43.702 470.231 41.0007C472.932 38.2993 474.914 34.9771 476.008 31.3409H471.664C470.716 33.8853 469.256 36.1509 467.318 38.0884C465.383 40.0237 463.115 41.4856 460.571 42.4345Z" fill="white"/>
<path d="M430.175 19.4554C430.152 19.432 430.128 19.4062 430.109 19.3804C429.952 19.1813 429.899 18.9189 429.96 18.6729C431.042 14.3479 433.286 10.3884 436.452 7.22549C439.617 4.06258 443.574 1.81574 447.899 0.733326C448.145 0.672411 448.405 0.728637 448.604 0.883268C448.803 1.04024 448.921 1.27922 448.921 1.53225V7.53709C448.921 7.89087 448.696 8.20482 448.361 8.31728C445.83 9.17243 443.588 10.5688 441.69 12.4665C439.795 14.3619 438.399 16.6064 437.541 19.1368C437.429 19.4718 437.115 19.6967 436.761 19.6967H430.756C430.536 19.6967 430.325 19.61 430.173 19.4577L430.175 19.4554ZM447.274 2.61467C443.637 3.70646 440.315 5.69089 437.614 8.39225C434.912 11.0936 432.93 14.4158 431.836 18.052H436.18C437.129 15.5076 438.588 13.242 440.526 11.3045C442.461 9.36924 444.729 7.90961 447.274 6.9584V2.61467Z" fill="white"/>
<path d="M467.316 11.3022C459.932 3.91737 447.913 3.91503 440.528 11.3022C433.141 18.6893 433.143 30.706 440.528 38.0908C447.913 45.4756 459.929 45.478 467.316 38.0908C474.704 30.7037 474.701 18.687 467.316 11.3022Z" fill="white"/>
<path d="M460.755 31.4576L447.148 31.5478C446.575 31.5516 446.113 32.0194 446.117 32.5926L446.12 33.0775C446.124 33.6507 446.592 34.1123 447.165 34.1085L460.772 34.0183C461.346 34.0145 461.807 33.5467 461.803 32.9735L461.8 32.4886C461.796 31.9153 461.329 31.4538 460.755 31.4576Z" fill="#110A1D"/>
<path d="M449.002 23.244C448.854 23.244 448.704 23.2112 448.569 23.1456L447.507 22.6325C447.046 22.4076 446.835 21.8617 447.027 21.386L447.514 20.1724C447.664 19.8023 448.018 19.5609 448.416 19.5586C448.587 19.5586 448.756 19.6008 448.906 19.6875L450.171 20.4091C450.408 20.5426 450.579 20.7746 450.64 21.0416C450.701 21.3087 450.647 21.5899 450.492 21.8148L449.799 22.8199C449.618 23.0823 449.318 23.2416 449 23.2416L449.002 23.244Z" fill="#110A1D"/>
<path d="M458.797 23.1785C458.478 23.1785 458.176 23.0262 457.993 22.7662L457.307 21.7985C457.147 21.576 457.091 21.2948 457.147 21.0277C457.203 20.7606 457.372 20.5263 457.609 20.3881L458.914 19.622C459.061 19.5353 459.23 19.4884 459.401 19.4861C459.799 19.4838 460.158 19.7204 460.312 20.0882L460.804 21.2667C461.001 21.74 460.797 22.2905 460.341 22.5201L459.23 23.0754C459.097 23.141 458.947 23.1785 458.799 23.1785H458.797Z" fill="#110A1D"/>
<path d="M447.933 30.638C447.336 30.6427 446.799 30.2679 446.595 29.7056L444.325 23.4571C444.18 23.5274 444.025 23.5812 443.868 23.6211C443.683 23.6679 443.496 23.6914 443.306 23.6914C443.196 23.6914 443.088 23.6867 442.983 23.6726C441.799 23.5227 440.902 22.5082 440.895 21.3133C440.886 19.9919 441.954 18.9095 443.275 18.9001C444.597 18.8908 445.679 19.9591 445.686 21.2805C445.686 21.5851 445.635 21.878 445.527 22.1521C445.468 22.302 445.396 22.4449 445.311 22.5808L449.629 24.6707L452.933 19.8842C452.795 19.8256 452.661 19.753 452.535 19.6663C452.296 19.5046 452.087 19.3031 451.918 19.0665C451.633 18.6635 451.478 18.1879 451.476 17.6959C451.466 16.3745 452.535 15.2921 453.856 15.2827C453.915 15.2827 453.975 15.2827 454.034 15.2874C455.217 15.3671 456.173 16.3159 456.26 17.4991C456.3 18.059 456.152 18.5956 455.833 19.0524C455.665 19.2914 455.458 19.4952 455.222 19.6569C455.098 19.7436 454.964 19.8162 454.826 19.8748L458.188 24.6121L462.436 22.4871C462.356 22.3348 462.293 22.1755 462.246 22.0092C462.19 21.8077 462.159 21.5968 462.159 21.3836C462.159 21.2875 462.164 21.1915 462.173 21.0978C462.309 19.8935 463.326 18.9798 464.537 18.9728C465.859 18.9634 466.941 20.0318 466.948 21.3532C466.957 22.6136 465.978 23.6726 464.72 23.7593L464.57 23.764C464.326 23.764 464.087 23.7312 463.855 23.6609C463.706 23.614 463.56 23.5555 463.424 23.4805L461.292 29.6072C461.098 30.1718 460.564 30.5514 459.966 30.556L447.933 30.6357V30.638Z" fill="#110A1D"/>
<path d="M391.017 49.3969C384.739 49.3969 378.468 47.0096 373.688 42.2298C364.133 32.6754 364.133 17.132 373.688 7.57757C378.318 2.94698 384.472 0.400146 391.017 0.400146C397.561 0.400146 403.715 2.94698 408.345 7.57757C417.9 17.132 417.9 32.6754 408.345 42.2298C403.571 47.0045 397.294 49.3969 391.017 49.3969ZM374.974 40.9435C383.819 49.788 398.209 49.788 407.054 40.9435C415.898 32.0991 415.898 17.7083 407.054 8.86385C402.768 4.57798 397.072 2.2215 391.011 2.2215C384.95 2.2215 379.255 4.58312 374.969 8.86385C366.125 17.7083 366.125 32.0991 374.969 40.9435H374.974Z" fill="#7DDACF"/>
<path d="M391.924 19.7458L387.386 26.1052H390.107V30.6432L394.645 24.289H391.924V19.7458Z" fill="#7DDACF"/>
<path d="M391.012 16.2109C386.042 16.2109 382.008 20.2447 382.008 25.2149C382.008 30.185 386.042 34.2085 391.012 34.2085C395.982 34.2085 400.016 30.1747 400.016 25.2149C400.016 20.255 395.982 16.2109 391.012 16.2109ZM391.012 33.0972C386.649 33.0972 383.109 29.5573 383.109 25.1943C383.109 20.8313 386.649 17.2914 391.012 17.2914C395.375 17.2914 398.915 20.8313 398.915 25.1943C398.915 29.5573 395.375 33.0972 391.012 33.0972Z" fill="#7DDACF"/>
<path d="M404.93 10.9888C401.215 7.26893 396.271 5.22632 391.013 5.22632C385.754 5.22632 380.815 7.27408 377.095 10.9888C369.424 18.6602 369.424 31.1473 377.095 38.8238C380.933 42.6621 385.97 44.5812 391.013 44.5812C396.055 44.5812 401.092 42.6621 404.93 38.8238C412.601 31.1525 412.601 18.6653 404.93 10.9888ZM391.013 37.4295C384.283 37.4295 378.803 31.95 378.803 25.2202C378.803 22.2463 379.868 19.5194 381.638 17.3893L380.146 15.8973C379.719 15.4702 379.719 14.7756 380.146 14.3435C380.573 13.9113 381.268 13.9164 381.7 14.3435L383.192 15.8355C385.044 14.2868 387.375 13.2681 389.917 13.052V12.0436H388.908C388.018 12.0436 387.282 11.3078 387.282 10.4177V9.56879C387.282 8.66839 388.018 7.94295 388.908 7.94295H393.127C394.017 7.94295 394.753 8.66839 394.753 9.56879V10.4177C394.753 11.3078 394.017 12.0436 393.127 12.0436H392.119V13.052C394.666 13.2733 396.991 14.292 398.843 15.8355L400.335 14.3435C400.763 13.9164 401.457 13.9164 401.889 14.3435C402.316 14.7705 402.316 15.4651 401.889 15.8973L400.397 17.3893C402.167 19.5194 403.232 22.2412 403.232 25.2202C403.232 31.95 397.753 37.4295 391.023 37.4295H391.013Z" fill="#7DDACF"/>
<path d="M332.555 49.8874C319.05 49.8874 308.065 38.8974 308.065 25.3967C308.065 11.8959 319.055 0.906006 332.555 0.906006C346.056 0.906006 357.046 11.8959 357.046 25.3967C357.046 38.8974 346.056 49.8874 332.555 49.8874ZM332.555 2.53699C319.95 2.53699 309.696 12.7912 309.696 25.3967C309.696 38.0022 319.95 48.2564 332.555 48.2564C345.161 48.2564 355.415 38.0022 355.415 25.3967C355.415 12.7912 345.161 2.53699 332.555 2.53699Z" fill="white"/>
<path d="M348.536 7.92056L340.954 15.5024L342.445 16.9941L350.027 9.41219L348.536 7.92056Z" fill="white"/>
<path d="M322.438 34.0197L314.856 41.6016L316.347 43.0932L323.929 35.5113L322.438 34.0197Z" fill="white"/>
<path d="M342.675 34.0184L341.184 35.51L348.765 43.0919L350.257 41.6002L342.675 34.0184Z" fill="white"/>
<path d="M316.353 7.69099L314.862 9.18262L322.44 16.7609L323.931 15.2692L316.353 7.69099Z" fill="white"/>
<path d="M338.535 26.0551C339.029 25.5612 339.029 24.7637 338.535 24.2749L337.485 23.2304C336.991 22.7365 336.194 22.7365 335.705 23.2304L335.139 23.7964L334.485 23.143C333.992 22.649 333.194 22.649 332.705 23.143L332.139 23.7141L331.486 23.0555C330.992 22.5616 330.194 22.5616 329.706 23.0555L326.233 26.5285C326.207 26.5542 326.207 26.5953 326.233 26.6262C326.696 27.0893 327.452 27.0893 327.92 26.6262L330.158 24.3881C330.4 24.1463 330.791 24.1463 331.033 24.3881L331.198 24.5527C331.229 24.5836 331.229 24.6299 331.198 24.6608L329.33 26.5285C329.304 26.5542 329.304 26.5953 329.33 26.6262C329.793 27.0893 330.549 27.0893 331.018 26.6262L333.163 24.4807C333.405 24.2389 333.796 24.2389 334.038 24.4807L334.202 24.6453C334.228 24.6711 334.228 24.7122 334.202 24.7431L332.402 26.5439C332.376 26.5696 332.376 26.6108 332.402 26.6416C332.865 27.1047 333.621 27.1047 334.089 26.6416L336.163 24.5682C336.405 24.3263 336.796 24.3263 337.037 24.5682L337.392 24.9232C337.531 25.0621 337.531 25.2936 337.392 25.4325L337.336 25.4891C337.197 25.6281 336.965 25.6281 336.826 25.4891L336.369 25.0312C336.343 25.0055 336.302 25.0055 336.271 25.0312L335.478 25.8236C335.453 25.8493 335.453 25.8905 335.478 25.9213L336.194 26.6365C336.688 27.1304 337.485 27.1304 337.974 26.6365L338.54 26.0705L338.535 26.0551Z" fill="white"/>
<path d="M332.556 6.61182C322.183 6.61182 313.776 15.0189 313.776 25.3914C313.776 35.764 322.183 44.171 332.556 44.171C342.929 44.171 351.336 35.764 351.336 25.3914C351.336 15.0189 342.929 6.61182 332.556 6.61182ZM333.323 12.4103C336.338 12.5853 339.075 13.7892 341.195 15.6723L338.483 18.3838C337.068 17.185 335.283 16.4081 333.323 16.2434V12.4103ZM331.794 12.4103V16.2434C329.834 16.4029 328.049 17.185 326.634 18.3838L323.922 15.6723C326.042 13.7892 328.779 12.5853 331.794 12.4103ZM322.842 16.7528L325.553 19.4643C324.355 20.8792 323.578 22.6645 323.413 24.6248H319.58C319.755 21.6098 320.959 18.8726 322.842 16.7528ZM319.58 26.1529H323.413C323.573 28.1132 324.355 29.8986 325.553 31.3135L322.842 34.0249C320.959 31.9051 319.755 29.1679 319.58 26.1529ZM331.794 38.3674C328.779 38.1925 326.042 36.9885 323.922 35.1054L326.634 32.3939C328.049 33.5927 329.834 34.3696 331.794 34.5343V38.3674ZM324.663 25.3863C324.663 21.0284 328.198 17.4937 332.556 17.4937C336.914 17.4937 340.449 21.0284 340.449 25.3863C340.449 29.7442 336.914 33.2789 332.556 33.2789C328.198 33.2789 324.663 29.7442 324.663 25.3863ZM333.323 38.3674V34.5343C335.283 34.3748 337.068 33.5927 338.483 32.3939L341.195 35.1054C339.075 36.9885 336.338 38.1925 333.323 38.3674ZM342.275 34.0249L339.564 31.3135C340.762 29.8986 341.539 28.1132 341.704 26.1529H345.537C345.362 29.1679 344.158 31.9051 342.275 34.0249ZM341.704 24.6248C341.544 22.6645 340.762 20.8792 339.564 19.4643L342.275 16.7528C344.158 18.8726 345.362 21.6098 345.537 24.6248H341.704Z" fill="white"/>
<path d="M206.339 49.6169C192.833 49.6169 181.844 38.627 181.844 25.1211C181.844 11.6152 192.833 0.625264 206.339 0.625264C219.845 0.625264 230.835 11.6152 230.835 25.1211C230.835 38.627 219.845 49.6169 206.339 49.6169ZM206.339 2.39003C193.806 2.39003 183.608 12.5876 183.608 25.1211C183.608 37.6546 193.806 47.8521 206.339 47.8521C218.873 47.8521 229.07 37.6546 229.07 25.1211C229.07 12.5876 218.873 2.39003 206.339 2.39003Z" fill="#478BF9"/>
<path d="M266.223 49.6181C265.734 49.6181 265.343 49.222 265.343 48.7383C265.343 48.2547 265.739 47.8585 266.223 47.8585C278.757 47.8585 288.954 37.6609 288.954 25.1274C288.954 12.594 278.757 2.39639 266.223 2.39639C265.734 2.39639 265.343 2.0002 265.343 1.51656C265.343 1.03292 265.739 0.63677 266.223 0.63677C279.729 0.63677 290.719 11.6267 290.719 25.1326C290.719 38.6385 279.729 49.6284 266.223 49.6284V49.6181Z" fill="#478BF9"/>
<path d="M230.637 24.1487H219.909V26.2633H230.637V24.1487Z" fill="#478BF9"/>
<path d="M193.7 24.1487H182.973V26.2633H193.7V24.1487Z" fill="#478BF9"/>
<path d="M208.03 38.4727H205.916V49.2002H208.03V38.4727Z" fill="#478BF9"/>
<path d="M208.03 1.21167H205.916V11.9392H208.03V1.21167Z" fill="#478BF9"/>
<path d="M219.585 11.7849C212.248 4.448 200.348 4.448 193.006 11.7849C185.669 19.1218 185.669 31.0225 193.006 38.3645C200.343 45.7014 212.243 45.7014 219.585 38.3645C226.922 31.0276 226.922 19.127 219.585 11.7849ZM209.928 13.3748C212.068 14.0385 213.987 15.2784 215.479 16.966L215.768 17.2902L215.346 17.3879C214.229 17.6503 213.036 17.8664 211.801 18.0259L211.579 18.0568L211.518 17.8407C211.312 17.1358 211.07 16.4567 210.792 15.829C210.448 15.0418 210.062 14.3523 209.64 13.7709L209.177 13.1381L209.928 13.3696V13.3748ZM201.341 24.4882L201.351 24.2206C201.402 22.5948 201.583 21.041 201.891 19.6106L201.938 19.3842L202.169 19.4048C204.875 19.6415 207.767 19.6312 210.458 19.3791L210.689 19.3585L210.741 19.5849C211.055 21.0307 211.235 22.5896 211.281 24.2206V24.4882H201.346H201.341ZM211.281 25.6818V25.9494C211.224 27.5804 211.044 29.1393 210.73 30.5851L210.679 30.8115L210.448 30.7909C207.757 30.5388 204.865 30.5337 202.159 30.7652L201.927 30.7858L201.881 30.5594C201.572 29.129 201.392 27.5804 201.341 25.9494L201.33 25.6818H211.271H211.281ZM206.311 12.9271C207.808 12.9271 209.331 14.8257 210.283 17.887L210.381 18.1957L210.056 18.2214C208.791 18.3295 207.484 18.3861 206.172 18.3861C204.953 18.3861 203.738 18.3398 202.555 18.242L202.231 18.2163L202.329 17.9024C203.28 14.8308 204.809 12.922 206.311 12.922V12.9271ZM197.091 17.0226C198.593 15.3093 200.528 14.0488 202.694 13.3799L203.45 13.1484L202.982 13.7864C202.56 14.3626 202.169 15.0572 201.829 15.8393C201.557 16.4567 201.31 17.1461 201.094 17.887L201.032 18.098L200.811 18.0722C199.566 17.9179 198.362 17.7121 197.23 17.4497L196.803 17.3519L197.091 17.0226ZM194.086 24.2103C194.23 22.2038 194.873 20.2486 195.949 18.5456L196.052 18.3861L196.237 18.4324C197.554 18.7668 198.974 19.0344 200.466 19.2247L200.744 19.2608L200.687 19.5386C200.379 21.0307 200.204 22.6102 200.157 24.2361V24.4882H194.071L194.091 24.2103H194.086ZM196.052 31.7839L195.949 31.6244C194.873 29.9265 194.23 27.9663 194.086 25.9597L194.066 25.6818H200.147V25.9339C200.198 27.5598 200.379 29.1445 200.682 30.6314L200.739 30.9092L200.461 30.9453C198.974 31.1356 197.549 31.4032 196.232 31.7376L196.046 31.7839H196.052ZM202.694 36.7952C200.528 36.1264 198.593 34.8659 197.091 33.1525L196.803 32.8232L197.23 32.7255C198.362 32.4682 199.566 32.2573 200.811 32.1029L201.032 32.0772L201.094 32.2882C201.31 33.0291 201.557 33.7185 201.829 34.3359C202.174 35.1231 202.56 35.8125 202.982 36.3939L203.45 37.0319L202.694 36.8004V36.7952ZM206.311 37.2429C204.809 37.2429 203.28 35.334 202.329 32.2624L202.231 31.9486L202.555 31.9229C205.009 31.7273 207.623 31.7325 210.056 31.9434L210.381 31.9691L210.283 32.2779C209.326 35.3341 207.803 37.2377 206.311 37.2377V37.2429ZM215.479 33.204C213.987 34.8916 212.063 36.1315 209.928 36.7952L209.177 37.0268L209.64 36.3939C210.062 35.8177 210.448 35.1231 210.792 34.3359C211.065 33.7031 211.312 33.029 211.518 32.3242L211.579 32.1081L211.801 32.1389C213.036 32.2984 214.229 32.5145 215.346 32.7769L215.768 32.8798L215.479 33.204ZM218.53 25.9597C218.386 27.9868 217.733 29.9677 216.632 31.6862L216.529 31.8457L216.344 31.7994C215.042 31.4547 213.627 31.1819 212.145 30.9813L211.868 30.9453L211.924 30.6726C212.233 29.1805 212.413 27.5907 212.459 25.9391V25.687H218.546L218.525 25.9648L218.53 25.9597ZM212.47 24.4882V24.2361C212.418 22.5845 212.238 20.9895 211.929 19.5026L211.873 19.2299L212.151 19.1939C213.632 18.9932 215.042 18.7205 216.349 18.3758L216.534 18.3295L216.637 18.489C217.738 20.2075 218.397 22.1832 218.536 24.2155L218.556 24.4933H212.475L212.47 24.4882Z" fill="#478BF9"/>
<path d="M266.593 49.6477L207.476 49.6477C206.987 49.6477 206.596 49.2515 206.596 48.7679C206.596 48.2842 206.993 47.8881 207.476 47.8881L266.593 47.8881C267.082 47.8881 267.473 48.2842 267.473 48.7679C267.473 49.2515 267.077 49.6477 266.593 49.6477Z" fill="#478BF9"/>
<path d="M266.727 2.41626L207.61 2.41626C207.122 2.41626 206.73 2.02011 206.73 1.53647C206.73 1.05283 207.127 0.656643 207.61 0.656643L266.727 0.656643C267.216 0.656643 267.607 1.05283 267.607 1.53647C267.607 2.02011 267.211 2.41626 266.727 2.41626Z" fill="#478BF9"/>
<path d="M128.388 43.0519C118.754 33.418 118.754 17.744 128.388 8.11001C138.022 -1.52397 153.696 -1.52397 163.33 8.11001C172.964 17.744 172.964 33.418 163.33 43.0519C153.696 52.6859 138.022 52.6859 128.388 43.0519ZM162.165 9.27443C153.173 0.282398 138.544 0.282398 129.554 9.27443C120.562 18.2665 120.562 32.8955 129.554 41.8852C138.546 50.8772 153.175 50.8772 162.165 41.8852C171.157 32.8932 171.157 18.2641 162.165 9.27443Z" fill="white"/>
<path d="M162.432 20.3398C162.345 20.2531 162.275 20.143 162.235 20.0212C161.38 17.4908 159.983 15.2487 158.086 13.3509C156.19 11.4555 153.946 10.0592 151.415 9.20168C151.08 9.08687 150.855 8.77527 150.855 8.4215V2.41666C150.855 2.16362 150.973 1.92464 151.172 1.76767C151.373 1.6107 151.633 1.55681 151.877 1.61773C156.202 2.70014 160.161 4.94464 163.324 8.10989C166.487 11.2751 168.732 15.2323 169.814 19.5573C169.875 19.8033 169.819 20.0633 169.664 20.2648C169.507 20.4663 169.268 20.5811 169.015 20.5811H163.01C162.785 20.5811 162.579 20.4897 162.427 20.3375L162.432 20.3398ZM159.25 12.1865C161.185 14.1218 162.645 16.3897 163.596 18.9341H167.94C166.848 15.2979 164.864 11.9757 162.162 9.2743C159.461 6.57295 156.139 4.58852 152.505 3.49907V7.8428C155.049 8.79167 157.317 10.2513 159.252 12.1889L159.25 12.1865Z" fill="white"/>
<path d="M128.387 43.0517C125.224 39.8887 122.977 35.9293 121.895 31.6043C121.834 31.3583 121.89 31.0982 122.045 30.8991C122.202 30.6976 122.441 30.5828 122.694 30.5828H128.699C129.052 30.5828 129.366 30.8077 129.479 31.1427C130.334 33.673 131.73 35.9152 133.628 37.8129C135.524 39.7083 137.768 41.1047 140.298 41.9622C140.633 42.0747 140.858 42.3886 140.858 42.7424V48.7472C140.858 49.0003 140.741 49.2392 140.542 49.3962C140.341 49.5532 140.08 49.6071 139.834 49.5462C135.509 48.4637 131.552 46.2193 128.387 43.0563V43.0517ZM123.774 32.2275C124.866 35.8637 126.85 39.1859 129.552 41.8872C132.253 44.5886 135.575 46.573 139.211 47.6648V43.3211C136.667 42.3722 134.399 40.9126 132.464 38.9774C130.529 37.0421 129.069 34.7742 128.118 32.2298H123.774V32.2275Z" fill="white"/>
<path d="M151.101 49.3262C150.946 49.1716 150.859 48.9631 150.859 48.7428V42.738C150.859 42.3842 151.084 42.0703 151.419 41.9578C153.95 41.1027 156.192 39.7063 158.09 37.8085C159.987 35.9108 161.381 33.6686 162.239 31.1383C162.351 30.8033 162.665 30.5784 163.019 30.5784H169.024C169.277 30.5784 169.516 30.6955 169.673 30.8947C169.83 31.0938 169.884 31.3562 169.823 31.5999C168.738 35.9249 166.494 39.882 163.331 43.0472C160.168 46.2125 156.208 48.457 151.883 49.5394C151.637 49.6003 151.377 49.5441 151.178 49.3895C151.152 49.366 151.126 49.345 151.103 49.3215L151.101 49.3262ZM152.506 43.319V47.6628C156.143 46.571 159.465 44.5865 162.166 41.8852C164.868 39.1838 166.85 35.8616 167.944 32.2254H163.6C162.651 34.7698 161.192 37.0354 159.254 38.973C157.319 40.9082 155.051 42.3702 152.506 43.319Z" fill="white"/>
<path d="M122.111 20.3399C122.087 20.3165 122.064 20.2907 122.045 20.2649C121.888 20.0658 121.834 19.8034 121.895 19.5574C122.978 15.2324 125.222 11.2729 128.387 8.11001C131.553 4.9471 135.51 2.70027 139.835 1.61785C140.081 1.55693 140.341 1.61316 140.54 1.76779C140.739 1.92476 140.856 2.16374 140.856 2.41678V8.42162C140.856 8.77539 140.631 9.08934 140.296 9.2018C137.766 10.057 135.524 11.4533 133.626 13.3511C131.731 15.2465 130.334 17.491 129.477 20.0213C129.364 20.3563 129.051 20.5812 128.697 20.5812H122.692C122.472 20.5812 122.261 20.4946 122.109 20.3423L122.111 20.3399ZM139.209 3.49919C135.573 4.59098 132.251 6.57541 129.55 9.27677C126.848 11.9781 124.866 15.3004 123.772 18.9365H128.116C129.065 16.3921 130.524 14.1266 132.462 12.189C134.397 10.2538 136.665 8.79414 139.209 7.84292V3.49919Z" fill="white"/>
<path d="M159.252 12.1867C151.867 4.80189 139.848 4.79955 132.463 12.1867C125.076 19.5738 125.079 31.5906 132.463 38.9754C139.848 46.3602 151.865 46.3625 159.252 38.9754C166.639 31.5882 166.637 19.5715 159.252 12.1867Z" fill="white"/>
<path d="M152.691 32.3418L139.084 32.4321C138.511 32.4359 138.049 32.9036 138.053 33.4768L138.056 33.9618C138.06 34.535 138.528 34.9966 139.101 34.9928L152.708 34.9026C153.281 34.8988 153.743 34.431 153.739 33.8578L153.736 33.3728C153.732 32.7996 153.264 32.338 152.691 32.3418Z" fill="#110A1D"/>
<path d="M140.938 24.1282C140.79 24.1282 140.64 24.0954 140.504 24.0298L139.443 23.5167C138.982 23.2918 138.771 22.7459 138.963 22.2703L139.45 21.0567C139.6 20.6865 139.954 20.4452 140.352 20.4429C140.523 20.4429 140.692 20.485 140.842 20.5717L142.107 21.2933C142.344 21.4269 142.515 21.6588 142.576 21.9259C142.636 22.193 142.583 22.4742 142.428 22.6991L141.734 23.7042C141.554 23.9666 141.254 24.1259 140.935 24.1259L140.938 24.1282Z" fill="#110A1D"/>
<path d="M150.732 24.0628C150.414 24.0628 150.112 23.9105 149.929 23.6504L149.242 22.6828C149.083 22.4602 149.027 22.1791 149.083 21.912C149.139 21.6449 149.308 21.4106 149.545 21.2724L150.85 20.5063C150.997 20.4196 151.166 20.3727 151.337 20.3704C151.735 20.368 152.094 20.6047 152.248 20.9725L152.74 22.151C152.937 22.6242 152.733 23.1748 152.276 23.4044L151.166 23.9597C151.032 24.0253 150.882 24.0628 150.735 24.0628H150.732Z" fill="#110A1D"/>
<path d="M139.869 31.5226C139.271 31.5272 138.735 31.1524 138.531 30.5901L136.261 24.3416C136.115 24.4119 135.961 24.4658 135.804 24.5056C135.619 24.5525 135.431 24.5759 135.241 24.5759C135.131 24.5759 135.024 24.5712 134.918 24.5571C133.735 24.4072 132.838 23.3927 132.831 22.1978C132.821 20.8765 133.89 19.794 135.211 19.7847C136.532 19.7753 137.615 20.8437 137.622 22.165C137.622 22.4696 137.57 22.7625 137.463 23.0366C137.404 23.1865 137.331 23.3295 137.247 23.4654L141.565 25.5552L144.868 20.7687C144.73 20.7101 144.597 20.6375 144.47 20.5508C144.231 20.3891 144.023 20.1876 143.854 19.951C143.568 19.548 143.413 19.0724 143.411 18.5804C143.402 17.259 144.47 16.1766 145.792 16.1672C145.85 16.1672 145.911 16.1672 145.97 16.1719C147.153 16.2516 148.109 17.2005 148.195 18.3836C148.235 18.9436 148.088 19.4801 147.769 19.937C147.6 20.1759 147.394 20.3798 147.157 20.5414C147.033 20.6281 146.9 20.7007 146.761 20.7593L150.124 25.4966L154.371 23.3716C154.292 23.2193 154.228 23.06 154.181 22.8937C154.125 22.6922 154.095 22.4813 154.095 22.2681C154.095 22.1721 154.099 22.076 154.109 21.9823C154.245 20.7781 155.261 19.8643 156.473 19.8573C157.794 19.8479 158.877 20.9163 158.884 22.2377C158.893 23.4982 157.914 24.5571 156.656 24.6438L156.506 24.6485C156.262 24.6485 156.023 24.6157 155.791 24.5454C155.641 24.4986 155.496 24.44 155.36 24.365L153.228 30.4917C153.033 31.0563 152.499 31.4359 151.902 31.4406L139.869 31.5202V31.5226Z" fill="#110A1D"/>
<path d="M82.9518 49.8606C76.6748 49.8606 70.4029 47.4732 65.6231 42.6934C56.0687 33.139 56.0687 17.5956 65.6231 8.04119C70.2537 3.4106 76.4072 0.86377 82.9518 0.86377C89.4964 0.86377 95.6499 3.4106 100.281 8.04119C109.835 17.5956 109.835 33.139 100.281 42.6934C95.5059 47.4681 89.2288 49.8606 82.9518 49.8606ZM66.9094 41.4072C75.7538 50.2516 90.1447 50.2516 98.9891 41.4072C107.834 32.5627 107.834 18.1719 98.9891 9.32747C94.7032 5.0416 89.0076 2.68512 82.9467 2.68512C76.8857 2.68512 71.1901 5.04674 66.9042 9.32747C58.0598 18.1719 58.0598 32.5627 66.9042 41.4072H66.9094Z" fill="#7DDACF"/>
<path d="M83.8588 20.2092L79.3208 26.5686H82.0425V31.1066L86.5805 24.7523H83.8588V20.2092Z" fill="#7DDACF"/>
<path d="M82.947 16.6743C77.9769 16.6743 73.9431 20.7081 73.9431 25.6782C73.9431 30.6484 77.9769 34.6719 82.947 34.6719C87.9172 34.6719 91.951 30.6381 91.951 25.6782C91.951 20.7184 87.9172 16.6743 82.947 16.6743ZM82.947 33.5605C78.584 33.5605 75.0442 30.0207 75.0442 25.6577C75.0442 21.2946 78.584 17.7548 82.947 17.7548C87.3101 17.7548 90.8499 21.2946 90.8499 25.6577C90.8499 30.0207 87.3101 33.5605 82.947 33.5605Z" fill="#7DDACF"/>
<path d="M96.8654 11.4522C93.1506 7.73231 88.2062 5.6897 82.9479 5.6897C77.6896 5.6897 72.7503 7.73745 69.0304 11.4522C61.359 19.1236 61.359 31.6107 69.0304 39.2872C72.8686 43.1255 77.9057 45.0446 82.9479 45.0446C87.9901 45.0446 93.0271 43.1255 96.8654 39.2872C104.537 31.6159 104.537 19.1287 96.8654 11.4522ZM82.9479 37.8929C76.2181 37.8929 70.7385 32.4134 70.7385 25.6836C70.7385 22.7097 71.8036 19.9828 73.5735 17.8527L72.0814 16.3606C71.6544 15.9336 71.6544 15.239 72.0814 14.8068C72.5085 14.3746 73.203 14.3798 73.6352 14.8068L75.1273 16.2989C76.9796 14.7502 79.3103 13.7315 81.852 13.5154V12.507H80.8435C79.9534 12.507 79.2177 11.7712 79.2177 10.8811V10.0322C79.2177 9.13177 79.9534 8.40633 80.8435 8.40633H85.0625C85.9526 8.40633 86.6884 9.13177 86.6884 10.0322V10.8811C86.6884 11.7712 85.9526 12.507 85.0625 12.507H84.0541V13.5154C86.6009 13.7366 88.9265 14.7554 90.7787 16.2989L92.2708 14.8068C92.6978 14.3798 93.3924 14.3798 93.8246 14.8068C94.2517 15.2339 94.2517 15.9284 93.8246 16.3606L92.3325 17.8527C94.1024 19.9828 95.1675 22.7045 95.1675 25.6836C95.1675 32.4134 89.688 37.8929 82.9582 37.8929H82.9479Z" fill="#7DDACF"/>
<path d="M24.4907 49.393C10.9848 49.393 0 38.4031 0 24.9023C0 11.4016 10.99 0.411621 24.4907 0.411621C37.9915 0.411621 48.9814 11.4016 48.9814 24.9023C48.9814 38.4031 37.9915 49.393 24.4907 49.393ZM24.4907 2.04261C11.8852 2.04261 1.63102 12.2968 1.63102 24.9023C1.63102 37.5078 11.8852 47.762 24.4907 47.762C37.0962 47.762 47.3504 37.5078 47.3504 24.9023C47.3504 12.2968 37.0962 2.04261 24.4907 2.04261Z" fill="white"/>
<path d="M40.471 7.42641L32.8892 15.0083L34.3808 16.4999L41.9627 8.91805L40.471 7.42641Z" fill="white"/>
<path d="M14.3729 33.5253L6.79102 41.1072L8.28264 42.5988L15.8645 35.0169L14.3729 33.5253Z" fill="white"/>
<path d="M34.6105 33.5242L33.1189 35.0159L40.7008 42.5977L42.1924 41.1061L34.6105 33.5242Z" fill="white"/>
<path d="M8.28826 7.19636L6.79663 8.68799L14.3749 16.2662L15.8665 14.7746L8.28826 7.19636Z" fill="white"/>
<path d="M30.4697 25.561C30.9636 25.067 30.9636 24.2695 30.4697 23.7808L29.4201 22.7363C28.9261 22.2424 28.1287 22.2424 27.6399 22.7363L27.0739 23.3023L26.4205 22.6488C25.9266 22.1549 25.1291 22.1549 24.6403 22.6488L24.0743 23.2199L23.4209 22.5614C22.927 22.0674 22.1295 22.0674 21.6407 22.5614L18.1677 26.0343C18.142 26.06 18.142 26.1012 18.1677 26.1321C18.6308 26.5951 19.3871 26.5951 19.8553 26.1321L22.0934 23.8939C22.3353 23.6521 22.7263 23.6521 22.9681 23.8939L23.1328 24.0586C23.1636 24.0895 23.1636 24.1358 23.1328 24.1666L21.2651 26.0343C21.2394 26.06 21.2394 26.1012 21.2651 26.1321C21.7282 26.5951 22.4845 26.5951 22.9527 26.1321L25.0982 23.9866C25.34 23.7447 25.7311 23.7447 25.9729 23.9866L26.1375 24.1512C26.1632 24.1769 26.1632 24.2181 26.1375 24.249L24.3367 26.0497C24.311 26.0755 24.311 26.1166 24.3367 26.1475C24.7998 26.6106 25.5561 26.6106 26.0243 26.1475L28.0978 24.074C28.3396 23.8322 28.7306 23.8322 28.9724 24.074L29.3275 24.429C29.4664 24.568 29.4664 24.7995 29.3275 24.9384L29.2709 24.995C29.132 25.1339 28.9004 25.1339 28.7615 24.995L28.3036 24.5371C28.2779 24.5114 28.2367 24.5114 28.2058 24.5371L27.4135 25.3294C27.3878 25.3552 27.3878 25.3963 27.4135 25.4272L28.1287 26.1424C28.6226 26.6363 29.4201 26.6363 29.9089 26.1424L30.4748 25.5764L30.4697 25.561Z" fill="white"/>
<path d="M24.4913 6.11743C14.1188 6.11743 5.71167 14.5245 5.71167 24.8971C5.71167 35.2696 14.1188 43.6767 24.4913 43.6767C34.8638 43.6767 43.2709 35.2696 43.2709 24.8971C43.2709 14.5245 34.8638 6.11743 24.4913 6.11743ZM25.2579 11.916C28.2729 12.0909 31.0101 13.2948 33.1299 15.1779L30.4184 17.8894C29.0035 16.6906 27.2182 15.9137 25.2579 15.7491V11.916ZM23.7298 11.916V15.7491C21.7695 15.9086 19.9842 16.6906 18.5693 17.8894L15.8578 15.1779C17.9776 13.2948 20.7148 12.0909 23.7298 11.916ZM14.7773 16.2584L17.4888 18.9699C16.29 20.3848 15.5131 22.1702 15.3484 24.1304H11.5153C11.6903 21.1154 12.8942 18.3782 14.7773 16.2584ZM11.5153 25.6585H15.3484C15.5079 27.6188 16.29 29.4042 17.4888 30.8191L14.7773 33.5305C12.8942 31.4108 11.6903 28.6736 11.5153 25.6585ZM23.7298 37.873C20.7148 37.6981 17.9776 36.4941 15.8578 34.611L18.5693 31.8995C19.9842 33.0983 21.7695 33.8752 23.7298 34.0399V37.873ZM16.5987 24.8919C16.5987 20.534 20.1334 16.9993 24.4913 16.9993C28.8492 16.9993 32.3839 20.534 32.3839 24.8919C32.3839 29.2498 28.8492 32.7845 24.4913 32.7845C20.1334 32.7845 16.5987 29.2498 16.5987 24.8919ZM25.2579 37.873V34.0399C27.2182 33.8804 29.0035 33.0983 30.4184 31.8995L33.1299 34.611C31.0101 36.4941 28.2729 37.6981 25.2579 37.873ZM34.2104 33.5305L31.4989 30.8191C32.6977 29.4042 33.4746 27.6188 33.6393 25.6585H37.4724C37.2974 28.6736 36.0935 31.4108 34.2104 33.5305ZM33.6393 24.1304C33.4798 22.1702 32.6977 20.3848 31.4989 18.9699L34.2104 16.2584C36.0935 18.3782 37.2974 21.1154 37.4724 24.1304H33.6393Z" fill="white"/>
</g>
</svg>
